<?xml version="1.0" encoding="utf-8"?>
<!-- Generator: Adobe Illustrator 16.0.0, SVG Export Plug-In . SVG Version: 6.00 Build 0)  -->
<!DOCTYPE svg PUBLIC "-//W3C//DTD SVG 1.1//EN" "http://www.w3.org/Graphics/SVG/1.1/DTD/svg11.dtd">
<svg version="1.1" id="Layer_1" xmlns="http://www.w3.org/2000/svg" xmlns:xlink="http://www.w3.org/1999/xlink" x="0px" y="0px"
	 width="1224px" height="792px" viewBox="0 0 1224 792" enable-background="new 0 0 1224 792" xml:space="preserve">
<polygon fill="#ED1C24" points="66.954,370.804 88.649,370.804 88.649,392.5 66.954,392.5 "/>
<polygon fill="#ED1C24" points="66.954,392.5 88.649,392.5 88.649,414.195 66.954,414.195 "/>
<polygon fill="#CD2127" points="66.954,414.195 88.649,414.195 88.649,435.892 66.954,435.892 "/>
<polygon fill="#ED1C24" points="88.494,349.108 110.189,349.108 110.189,370.804 88.494,370.804 "/>
<polygon fill="#ED1C24" points="88.494,370.804 110.189,370.804 110.189,392.5 88.494,392.5 "/>
<polygon fill="#CD2127" points="88.494,392.5 110.189,392.5 110.189,414.195 88.494,414.195 "/>
<polygon fill="#CD2127" points="88.494,414.195 110.189,414.195 110.189,435.892 88.494,435.892 "/>
<polygon fill="#ED1C24" points="110.04,327.413 131.736,327.413 131.736,349.108 110.04,349.108 "/>
<polygon fill="#ED1C24" points="110.04,349.108 131.736,349.108 131.736,370.804 110.04,370.804 "/>
<polygon fill="#CD2127" points="110.04,370.804 131.736,370.804 131.736,392.5 110.04,392.5 "/>
<polygon fill="#CD2127" points="110.04,392.5 131.736,392.5 131.736,414.195 110.04,414.195 "/>
<polygon fill="#CD2127" points="110.04,414.195 131.736,414.195 131.736,435.892 110.04,435.892 "/>
<polygon fill="#ED1C24" points="131.587,305.717 153.282,305.717 153.282,327.413 131.587,327.413 "/>
<polygon fill="#ED1C24" points="131.587,327.413 153.282,327.413 153.282,349.108 131.587,349.108 "/>
<polygon fill="#CD2127" points="131.587,349.108 153.282,349.108 153.282,370.804 131.587,370.804 "/>
<polygon fill="#CD2127" points="131.587,370.804 153.282,370.804 153.282,392.5 131.587,392.5 "/>
<polygon fill="#CD2127" points="131.587,392.5 153.282,392.5 153.282,414.195 131.587,414.195 "/>
<polygon fill="#CD2127" points="131.587,414.195 153.282,414.195 153.282,435.892 131.587,435.892 "/>
<polygon fill="#F3F3F4" points="153.133,284.021 174.829,284.021 174.829,305.717 153.133,305.717 "/>
<polygon fill="#ED1C24" points="153.133,305.717 174.829,305.717 174.829,327.413 153.133,327.413 "/>
<polygon fill="#CD2127" points="153.133,327.413 174.829,327.413 174.829,349.108 153.133,349.108 "/>
<polygon fill="#ED1C24" points="153.133,349.108 174.829,349.108 174.829,370.804 153.133,370.804 "/>
<polygon fill="#ED1C24" points="153.133,370.804 174.829,370.804 174.829,392.5 153.133,392.5 "/>
<polygon fill="#CD2127" points="153.133,392.5 174.829,392.5 174.829,414.195 153.133,414.195 "/>
<polygon fill="#CD2127" points="153.133,414.195 174.829,414.195 174.829,435.892 153.133,435.892 "/>
<polygon fill="#F3F3F4" points="174.673,262.325 196.369,262.325 196.369,284.021 174.673,284.021 "/>
<polygon fill="#ED1C24" points="174.673,284.021 196.369,284.021 196.369,305.717 174.673,305.717 "/>
<polygon fill="#CD2127" points="174.673,305.717 196.369,305.717 196.369,327.413 174.673,327.413 "/>
<polygon fill="#ED1C24" points="174.673,327.413 196.369,327.413 196.369,349.108 174.673,349.108 "/>
<polygon fill="#ED1C24" points="174.673,349.108 196.369,349.108 196.369,370.804 174.673,370.804 "/>
<polygon fill="#ED1C24" points="174.673,370.804 196.369,370.804 196.369,392.5 174.673,392.5 "/>
<polygon fill="#ED1C24" points="174.673,392.5 196.369,392.5 196.369,414.195 174.673,414.195 "/>
<polygon fill="#CD2127" points="174.673,414.195 196.369,414.195 196.369,435.892 174.673,435.892 "/>
<polygon fill="#ED1C24" points="196.22,262.325 217.916,262.325 217.916,284.021 196.22,284.021 "/>
<polygon fill="#CD2127" points="196.22,284.021 217.916,284.021 217.916,305.717 196.22,305.717 "/>
<polygon fill="#ED1C24" points="196.22,305.717 217.916,305.717 217.916,327.413 196.22,327.413 "/>
<polygon fill="#ED1C24" points="196.22,327.413 217.916,327.413 217.916,349.108 196.22,349.108 "/>
<polygon fill="#ED1C24" points="196.22,349.108 217.916,349.108 217.916,370.804 196.22,370.804 "/>
<polygon fill="#ED1C24" points="196.22,370.804 217.916,370.804 217.916,392.5 196.22,392.5 "/>
<polygon fill="#ED1C24" points="196.22,392.5 217.916,392.5 217.916,414.195 196.22,414.195 "/>
<polygon fill="#CD2127" points="196.22,414.195 217.916,414.195 217.916,435.892 196.22,435.892 "/>
<polygon fill="#CD2127" points="217.767,262.325 239.462,262.325 239.462,284.021 217.767,284.021 "/>
<polygon fill="#ED1C24" points="217.767,284.021 239.462,284.021 239.462,305.717 217.767,305.717 "/>
<polygon fill="#ED1C24" points="217.767,305.717 239.462,305.717 239.462,327.413 217.767,327.413 "/>
<polygon fill="#ED1C24" points="217.767,327.413 239.462,327.413 239.462,349.108 217.767,349.108 "/>
<polygon fill="#ED1C24" points="217.767,349.108 239.462,349.108 239.462,370.804 217.767,370.804 "/>
<polygon fill="#ED1C24" points="217.767,370.804 239.462,370.804 239.462,392.5 217.767,392.5 "/>
<polygon fill="#ED1C24" points="217.767,392.5 239.462,392.5 239.462,414.195 217.767,414.195 "/>
<polygon fill="#CD2127" points="217.767,414.195 239.462,414.195 239.462,435.892 217.767,435.892 "/>
<polygon fill="#FFFFFF" points="260.853,284.021 282.549,284.021 282.549,305.717 260.853,305.717 "/>
<polygon fill="#FFFFFF" points="260.853,305.717 282.549,305.717 282.549,327.413 260.853,327.413 "/>
<polygon fill="#FFFFFF" points="282.399,284.021 304.095,284.021 304.095,305.717 282.399,305.717 "/>
<polygon fill="#FFFFFF" points="282.399,305.717 304.095,305.717 304.095,327.413 282.399,327.413 "/>
<polygon fill="#FFFFFF" points="303.946,284.021 325.642,284.021 325.642,305.717 303.946,305.717 "/>
<polygon fill="#FFFFFF" points="303.946,370.804 325.642,370.804 325.642,392.5 303.946,392.5 "/>
<polygon fill="#FFFFFF" points="303.946,392.5 325.642,392.5 325.642,414.195 303.946,414.195 "/>
<polygon fill="#FFFFFF" points="303.946,414.195 325.642,414.195 325.642,435.892 303.946,435.892 "/>
<polygon fill="#FFFFFF" points="325.493,284.021 347.188,284.021 347.188,305.717 325.493,305.717 "/>
<polygon fill="#FFFFFF" points="325.493,349.108 347.188,349.108 347.188,370.804 325.493,370.804 "/>
<polygon fill="#FFFFFF" points="325.493,370.804 347.188,370.804 347.188,392.5 325.493,392.5 "/>
<polygon fill="#FFFFFF" points="325.493,392.5 347.188,392.5 347.188,414.195 325.493,414.195 "/>
<polygon fill="#FFFFFF" points="325.493,414.195 347.188,414.195 347.188,435.892 325.493,435.892 "/>
<polygon fill="#FFFFFF" points="347.032,284.021 368.728,284.021 368.728,305.717 347.032,305.717 "/>
<polygon fill="#FFFFFF" points="347.032,327.413 368.728,327.413 368.728,349.108 347.032,349.108 "/>
<polygon fill="#FFFFFF" points="347.032,349.108 368.728,349.108 368.728,370.804 347.032,370.804 "/>
<polygon fill="#FFFFFF" points="368.579,284.021 390.275,284.021 390.275,305.717 368.579,305.717 "/>
<polygon fill="#FFFFFF" points="368.579,305.717 390.275,305.717 390.275,327.413 368.579,327.413 "/>
<polygon fill="#FFFFFF" points="368.579,327.413 390.275,327.413 390.275,349.108 368.579,349.108 "/>
<polygon fill="#FFFFFF" points="390.126,284.021 411.821,284.021 411.821,305.717 390.126,305.717 "/>
<polygon fill="#FFFFFF" points="390.126,305.717 411.821,305.717 411.821,327.413 390.126,327.413 "/>
<polygon fill="#FFFFFF" points="433.212,284.021 454.908,284.021 454.908,305.717 433.212,305.717 "/>
<polygon fill="#FFFFFF" points="433.212,305.717 454.908,305.717 454.908,327.413 433.212,327.413 "/>
<polygon fill="#FFFFFF" points="433.212,327.413 454.908,327.413 454.908,349.108 433.212,349.108 "/>
<polygon fill="#FFFFFF" points="433.212,392.5 454.908,392.5 454.908,414.195 433.212,414.195 "/>
<polygon fill="#FFFFFF" points="454.758,284.021 476.454,284.021 476.454,305.717 454.758,305.717 "/>
<polygon fill="#FFFFFF" points="454.758,305.717 476.454,305.717 476.454,327.413 454.758,327.413 "/>
<polygon fill="#FFFFFF" points="454.758,327.413 476.454,327.413 476.454,349.108 454.758,349.108 "/>
<polygon fill="#FFFFFF" points="454.758,392.5 476.454,392.5 476.454,414.195 454.758,414.195 "/>
<polygon fill="#FFFFFF" points="454.758,414.195 476.454,414.195 476.454,435.892 454.758,435.892 "/>
<polygon fill="#FFFFFF" points="476.305,284.021 498.001,284.021 498.001,305.717 476.305,305.717 "/>
<polygon fill="#FFFFFF" points="476.305,327.413 498.001,327.413 498.001,349.108 476.305,349.108 "/>
<polygon fill="#FFFFFF" points="476.305,414.195 498.001,414.195 498.001,435.892 476.305,435.892 "/>
<polygon fill="#FFFFFF" points="497.846,284.021 519.541,284.021 519.541,305.717 497.846,305.717 "/>
<polygon fill="#FFFFFF" points="497.846,327.413 519.541,327.413 519.541,349.108 497.846,349.108 "/>
<polygon fill="#FFFFFF" points="497.846,414.195 519.541,414.195 519.541,435.892 497.846,435.892 "/>
<polygon fill="#FFFFFF" points="519.392,284.021 541.087,284.021 541.087,305.717 519.392,305.717 "/>
<polygon fill="#FFFFFF" points="519.392,327.413 541.087,327.413 541.087,349.108 519.392,349.108 "/>
<polygon fill="#FFFFFF" points="519.392,414.195 541.087,414.195 541.087,435.892 519.392,435.892 "/>
<polygon fill="#FFFFFF" points="540.938,284.021 562.634,284.021 562.634,305.717 540.938,305.717 "/>
<polygon fill="#FFFFFF" points="540.938,327.413 562.634,327.413 562.634,349.108 540.938,349.108 "/>
<polygon fill="#FFFFFF" points="540.938,349.108 562.634,349.108 562.634,370.804 540.938,370.804 "/>
<polygon fill="#FFFFFF" points="540.938,370.804 562.634,370.804 562.634,392.5 540.938,392.5 "/>
<polygon fill="#FFFFFF" points="540.938,392.5 562.634,392.5 562.634,414.195 540.938,414.195 "/>
<polygon fill="#FFFFFF" points="540.938,414.195 562.634,414.195 562.634,435.892 540.938,435.892 "/>
<polygon fill="#FFFFFF" points="562.485,349.108 584.181,349.108 584.181,370.804 562.485,370.804 "/>
<polygon fill="#FFFFFF" points="562.485,370.804 584.181,370.804 584.181,392.5 562.485,392.5 "/>
<polygon fill="#FFFFFF" points="562.485,392.5 584.181,392.5 584.181,414.195 562.485,414.195 "/>
<polygon fill="#FFFFFF" points="605.571,284.021 627.267,284.021 627.267,305.717 605.571,305.717 "/>
<polygon fill="#FFFFFF" points="605.571,305.717 627.267,305.717 627.267,327.413 605.571,327.413 "/>
<polygon fill="#FFFFFF" points="627.118,284.021 648.813,284.021 648.813,305.717 627.118,305.717 "/>
<polygon fill="#FFFFFF" points="627.118,305.717 648.813,305.717 648.813,327.413 627.118,327.413 "/>
<polygon fill="#FFFFFF" points="648.664,284.021 670.359,284.021 670.359,305.717 648.664,305.717 "/>
<polygon fill="#FFFFFF" points="648.664,370.804 670.359,370.804 670.359,392.5 648.664,392.5 "/>
<polygon fill="#FFFFFF" points="648.664,392.5 670.359,392.5 670.359,414.195 648.664,414.195 "/>
<polygon fill="#FFFFFF" points="648.664,414.195 670.359,414.195 670.359,435.892 648.664,435.892 "/>
<polygon fill="#FFFFFF" points="670.204,284.021 691.9,284.021 691.9,305.717 670.204,305.717 "/>
<polygon fill="#FFFFFF" points="670.204,349.108 691.9,349.108 691.9,370.804 670.204,370.804 "/>
<polygon fill="#FFFFFF" points="670.204,370.804 691.9,370.804 691.9,392.5 670.204,392.5 "/>
<polygon fill="#FFFFFF" points="670.204,392.5 691.9,392.5 691.9,414.195 670.204,414.195 "/>
<polygon fill="#FFFFFF" points="670.204,414.195 691.9,414.195 691.9,435.892 670.204,435.892 "/>
<polygon fill="#FFFFFF" points="691.751,284.021 713.447,284.021 713.447,305.717 691.751,305.717 "/>
<polygon fill="#FFFFFF" points="691.751,327.413 713.447,327.413 713.447,349.108 691.751,349.108 "/>
<polygon fill="#FFFFFF" points="691.751,349.108 713.447,349.108 713.447,370.804 691.751,370.804 "/>
<polygon fill="#FFFFFF" points="713.297,284.021 734.993,284.021 734.993,305.717 713.297,305.717 "/>
<polygon fill="#FFFFFF" points="713.297,305.717 734.993,305.717 734.993,327.413 713.297,327.413 "/>
<polygon fill="#FFFFFF" points="713.297,327.413 734.993,327.413 734.993,349.108 713.297,349.108 "/>
<polygon fill="#FFFFFF" points="734.844,284.021 756.54,284.021 756.54,305.717 734.844,305.717 "/>
<polygon fill="#FFFFFF" points="734.844,305.717 756.54,305.717 756.54,327.413 734.844,327.413 "/>
<polygon points="756.384,392.5 778.08,392.5 778.08,414.195 756.384,414.195 "/>
<polygon points="756.384,414.195 778.08,414.195 778.08,435.892 756.384,435.892 "/>
<polygon points="777.931,392.5 799.626,392.5 799.626,414.195 777.931,414.195 "/>
<polygon points="777.931,414.195 799.626,414.195 799.626,435.892 777.931,435.892 "/>
<polygon points="821.018,284.021 842.713,284.021 842.713,305.717 821.018,305.717 "/>
<polygon points="821.018,305.717 842.713,305.717 842.713,327.413 821.018,327.413 "/>
<polygon points="821.018,327.413 842.713,327.413 842.713,349.108 821.018,349.108 "/>
<polygon points="821.018,349.108 842.713,349.108 842.713,370.804 821.018,370.804 "/>
<polygon points="821.018,370.804 842.713,370.804 842.713,392.5 821.018,392.5 "/>
<polygon points="821.018,392.5 842.713,392.5 842.713,414.195 821.018,414.195 "/>
<polygon points="821.018,414.195 842.713,414.195 842.713,435.892 821.018,435.892 "/>
<polygon points="842.563,284.021 864.259,284.021 864.259,305.717 842.563,305.717 "/>
<polygon points="842.563,305.717 864.259,305.717 864.259,327.413 842.563,327.413 "/>
<polygon points="842.563,327.413 864.259,327.413 864.259,349.108 842.563,349.108 "/>
<polygon points="842.563,349.108 864.259,349.108 864.259,370.804 842.563,370.804 "/>
<polygon points="842.563,370.804 864.259,370.804 864.259,392.5 842.563,392.5 "/>
<polygon points="842.563,392.5 864.259,392.5 864.259,414.195 842.563,414.195 "/>
<polygon points="842.563,414.195 864.259,414.195 864.259,435.892 842.563,435.892 "/>
<polygon points="864.11,284.021 885.806,284.021 885.806,305.717 864.11,305.717 "/>
<polygon points="864.11,370.804 885.806,370.804 885.806,392.5 864.11,392.5 "/>
<polygon points="864.11,392.5 885.806,392.5 885.806,414.195 864.11,414.195 "/>
<polygon points="885.657,284.021 907.353,284.021 907.353,305.717 885.657,305.717 "/>
<polygon points="885.657,370.804 907.353,370.804 907.353,392.5 885.657,392.5 "/>
<polygon points="885.657,392.5 907.353,392.5 907.353,414.195 885.657,414.195 "/>
<polygon points="907.196,284.021 928.893,284.021 928.893,305.717 907.196,305.717 "/>
<polygon points="907.196,349.108 928.893,349.108 928.893,370.804 907.196,370.804 "/>
<polygon points="907.196,370.804 928.893,370.804 928.893,392.5 907.196,392.5 "/>
<polygon points="907.196,392.5 928.893,392.5 928.893,414.195 907.196,414.195 "/>
<polygon points="907.196,414.195 928.893,414.195 928.893,435.892 907.196,435.892 "/>
<polygon points="928.743,284.021 950.439,284.021 950.439,305.717 928.743,305.717 "/>
<polygon points="928.743,305.717 950.439,305.717 950.439,327.413 928.743,327.413 "/>
<polygon points="928.743,327.413 950.439,327.413 950.439,349.108 928.743,349.108 "/>
<polygon points="928.743,349.108 950.439,349.108 950.439,370.804 928.743,370.804 "/>
<polygon points="928.743,392.5 950.439,392.5 950.439,414.195 928.743,414.195 "/>
<polygon points="928.743,414.195 950.439,414.195 950.439,435.892 928.743,435.892 "/>
<polygon points="950.29,305.717 971.985,305.717 971.985,327.413 950.29,327.413 "/>
<polygon points="950.29,327.413 971.985,327.413 971.985,349.108 950.29,349.108 "/>
<polygon points="950.29,349.108 971.985,349.108 971.985,370.804 950.29,370.804 "/>
<polygon points="950.29,414.195 971.985,414.195 971.985,435.892 950.29,435.892 "/>
<polygon points="993.376,284.021 1015.072,284.021 1015.072,305.717 993.376,305.717 "/>
<polygon points="993.376,305.717 1015.072,305.717 1015.072,327.413 993.376,327.413 "/>
<polygon points="993.376,327.413 1015.072,327.413 1015.072,349.108 993.376,349.108 "/>
<polygon points="993.376,349.108 1015.072,349.108 1015.072,370.804 993.376,370.804 "/>
<polygon points="993.376,370.804 1015.072,370.804 1015.072,392.5 993.376,392.5 "/>
<polygon points="993.376,392.5 1015.072,392.5 1015.072,414.195 993.376,414.195 "/>
<polygon points="993.376,414.195 1015.072,414.195 1015.072,435.892 993.376,435.892 "/>
<polygon points="1014.923,284.021 1036.619,284.021 1036.619,305.717 1014.923,305.717 "/>
<polygon points="1014.923,305.717 1036.619,305.717 1036.619,327.413 1014.923,327.413 "/>
<polygon points="1014.923,327.413 1036.619,327.413 1036.619,349.108 1014.923,349.108 "/>
<polygon points="1014.923,349.108 1036.619,349.108 1036.619,370.804 1014.923,370.804 "/>
<polygon points="1014.923,370.804 1036.619,370.804 1036.619,392.5 1014.923,392.5 "/>
<polygon points="1014.923,392.5 1036.619,392.5 1036.619,414.195 1014.923,414.195 "/>
<polygon points="1014.923,414.195 1036.619,414.195 1036.619,435.892 1014.923,435.892 "/>
<polygon points="1036.469,284.021 1058.165,284.021 1058.165,305.717 1036.469,305.717 "/>
<polygon points="1036.469,349.108 1058.165,349.108 1058.165,370.804 1036.469,370.804 "/>
<polygon points="1036.469,414.195 1058.165,414.195 1058.165,435.892 1036.469,435.892 "/>
<polygon points="1058.016,284.021 1079.712,284.021 1079.712,305.717 1058.016,305.717 "/>
<polygon points="1058.016,349.108 1079.712,349.108 1079.712,370.804 1058.016,370.804 "/>
<polygon points="1058.016,414.195 1079.712,414.195 1079.712,435.892 1058.016,435.892 "/>
<polygon points="1079.556,284.021 1101.252,284.021 1101.252,305.717 1079.556,305.717 "/>
<polygon points="1079.556,349.108 1101.252,349.108 1101.252,370.804 1079.556,370.804 "/>
<polygon points="1079.556,414.195 1101.252,414.195 1101.252,435.892 1079.556,435.892 "/>
<polygon points="1101.103,284.021 1122.798,284.021 1122.798,305.717 1101.103,305.717 "/>
<polygon points="1101.103,305.717 1122.798,305.717 1122.798,327.413 1101.103,327.413 "/>
<polygon points="1101.103,327.413 1122.798,327.413 1122.798,349.108 1101.103,349.108 "/>
<polygon points="1101.103,349.108 1122.798,349.108 1122.798,370.804 1101.103,370.804 "/>
<polygon points="1101.103,370.804 1122.798,370.804 1122.798,392.5 1101.103,392.5 "/>
<polygon points="1101.103,392.5 1122.798,392.5 1122.798,414.195 1101.103,414.195 "/>
<polygon points="1101.103,414.195 1122.798,414.195 1122.798,435.892 1101.103,435.892 "/>
<polygon points="1122.648,305.717 1144.345,305.717 1144.345,327.413 1122.648,327.413 "/>
<polygon points="1122.648,327.413 1144.345,327.413 1144.345,349.108 1122.648,349.108 "/>
<polygon points="1122.648,370.804 1144.345,370.804 1144.345,392.5 1122.648,392.5 "/>
<polygon points="1122.648,392.5 1144.345,392.5 1144.345,414.195 1122.648,414.195 "/>
</svg>
