<svg xmlns="http://www.w3.org/2000/svg" version="1.1">
<polygon points="15.78,176.00 47.78,176.00 47.78,208.00 15.78,208.00 " style="fill:#ed1c24;fill-opacity:1.00" />
<polygon points="15.78,208.00 47.78,208.00 47.78,240.00 15.78,240.00 " style="fill:#ed1c24;fill-opacity:1.00" />
<polygon points="15.78,240.00 47.78,240.00 47.78,272.00 15.78,272.00 " style="fill:#cd2127;fill-opacity:1.00" />
<polygon points="47.55,144.00 79.55,144.00 79.55,176.00 47.55,176.00 " style="fill:#ed1c24;fill-opacity:1.00" />
<polygon points="47.55,176.00 79.55,176.00 79.55,208.00 47.55,208.00 " style="fill:#ed1c24;fill-opacity:1.00" />
<polygon points="47.55,208.00 79.55,208.00 79.55,240.00 47.55,240.00 " style="fill:#cd2127;fill-opacity:1.00" />
<polygon points="47.55,240.00 79.55,240.00 79.55,272.00 47.55,272.00 " style="fill:#cd2127;fill-opacity:1.00" />
<polygon points="79.33,112.00 111.33,112.00 111.33,144.00 79.33,144.00 " style="fill:#ed1c24;fill-opacity:1.00" />
<polygon points="79.33,144.00 111.33,144.00 111.33,176.00 79.33,176.00 " style="fill:#ed1c24;fill-opacity:1.00" />
<polygon points="79.33,176.00 111.33,176.00 111.33,208.00 79.33,208.00 " style="fill:#cd2127;fill-opacity:1.00" />
<polygon points="79.33,208.00 111.33,208.00 111.33,240.00 79.33,240.00 " style="fill:#cd2127;fill-opacity:1.00" />
<polygon points="79.33,240.00 111.33,240.00 111.33,272.00 79.33,272.00 " style="fill:#cd2127;fill-opacity:1.00" />
<polygon points="111.11,80.00 143.11,80.00 143.11,112.00 111.11,112.00 " style="fill:#ed1c24;fill-opacity:1.00" />
<polygon points="111.11,112.00 143.11,112.00 143.11,144.00 111.11,144.00 " style="fill:#ed1c24;fill-opacity:1.00" />
<polygon points="111.11,144.00 143.11,144.00 143.11,176.00 111.11,176.00 " style="fill:#cd2127;fill-opacity:1.00" />
<polygon points="111.11,176.00 143.11,176.00 143.11,208.00 111.11,208.00 " style="fill:#cd2127;fill-opacity:1.00" />
<polygon points="111.11,208.00 143.11,208.00 143.11,240.00 111.11,240.00 " style="fill:#cd2127;fill-opacity:1.00" />
<polygon points="111.11,240.00 143.11,240.00 143.11,272.00 111.11,272.00 " style="fill:#cd2127;fill-opacity:1.00" />
<polygon points="142.89,48.00 174.89,48.00 174.89,80.00 142.89,80.00 " style="fill:#f3f3f4;fill-opacity:1.00" />
<polygon points="142.89,80.00 174.89,80.00 174.89,112.00 142.89,112.00 " style="fill:#ed1c24;fill-opacity:1.00" />
<polygon points="142.89,112.00 174.89,112.00 174.89,144.00 142.89,144.00 " style="fill:#cd2127;fill-opacity:1.00" />
<polygon points="142.89,144.00 174.89,144.00 174.89,176.00 142.89,176.00 " style="fill:#ed1c24;fill-opacity:1.00" />
<polygon points="142.89,176.00 174.89,176.00 174.89,208.00 142.89,208.00 " style="fill:#ed1c24;fill-opacity:1.00" />
<polygon points="142.89,208.00 174.89,208.00 174.89,240.00 142.89,240.00 " style="fill:#cd2127;fill-opacity:1.00" />
<polygon points="142.89,240.00 174.89,240.00 174.89,272.00 142.89,272.00 " style="fill:#cd2127;fill-opacity:1.00" />
<polygon points="174.66,16.00 206.66,16.00 206.66,48.00 174.66,48.00 " style="fill:#f3f3f4;fill-opacity:1.00" />
<polygon points="174.66,48.00 206.66,48.00 206.66,80.00 174.66,80.00 " style="fill:#ed1c24;fill-opacity:1.00" />
<polygon points="174.66,80.00 206.66,80.00 206.66,112.00 174.66,112.00 " style="fill:#cd2127;fill-opacity:1.00" />
<polygon points="174.66,112.00 206.66,112.00 206.66,144.00 174.66,144.00 " style="fill:#ed1c24;fill-opacity:1.00" />
<polygon points="174.66,144.00 206.66,144.00 206.66,176.00 174.66,176.00 " style="fill:#ed1c24;fill-opacity:1.00" />
<polygon points="174.66,176.00 206.66,176.00 206.66,208.00 174.66,208.00 " style="fill:#ed1c24;fill-opacity:1.00" />
<polygon points="174.66,208.00 206.66,208.00 206.66,240.00 174.66,240.00 " style="fill:#ed1c24;fill-opacity:1.00" />
<polygon points="174.66,240.00 206.66,240.00 206.66,272.00 174.66,272.00 " style="fill:#cd2127;fill-opacity:1.00" />
<polygon points="206.44,16.00 238.44,16.00 238.44,48.00 206.44,48.00 " style="fill:#ed1c24;fill-opacity:1.00" />
<polygon points="206.44,48.00 238.44,48.00 238.44,80.00 206.44,80.00 " style="fill:#cd2127;fill-opacity:1.00" />
<polygon points="206.44,80.00 238.44,80.00 238.44,112.00 206.44,112.00 " style="fill:#ed1c24;fill-opacity:1.00" />
<polygon points="206.44,112.00 238.44,112.00 238.44,144.00 206.44,144.00 " style="fill:#ed1c24;fill-opacity:1.00" />
<polygon points="206.44,144.00 238.44,144.00 238.44,176.00 206.44,176.00 " style="fill:#ed1c24;fill-opacity:1.00" />
<polygon points="206.44,176.00 238.44,176.00 238.44,208.00 206.44,208.00 " style="fill:#ed1c24;fill-opacity:1.00" />
<polygon points="206.44,208.00 238.44,208.00 238.44,240.00 206.44,240.00 " style="fill:#ed1c24;fill-opacity:1.00" />
<polygon points="206.44,240.00 238.44,240.00 238.44,272.00 206.44,272.00 " style="fill:#cd2127;fill-opacity:1.00" />
<polygon points="238.22,16.00 270.22,16.00 270.22,48.00 238.22,48.00 " style="fill:#cd2127;fill-opacity:1.00" />
<polygon points="238.22,48.00 270.22,48.00 270.22,80.00 238.22,80.00 " style="fill:#ed1c24;fill-opacity:1.00" />
<polygon points="238.22,80.00 270.22,80.00 270.22,112.00 238.22,112.00 " style="fill:#ed1c24;fill-opacity:1.00" />
<polygon points="238.22,112.00 270.22,112.00 270.22,144.00 238.22,144.00 " style="fill:#ed1c24;fill-opacity:1.00" />
<polygon points="238.22,144.00 270.22,144.00 270.22,176.00 238.22,176.00 " style="fill:#ed1c24;fill-opacity:1.00" />
<polygon points="238.22,176.00 270.22,176.00 270.22,208.00 238.22,208.00 " style="fill:#ed1c24;fill-opacity:1.00" />
<polygon points="238.22,208.00 270.22,208.00 270.22,240.00 238.22,240.00 " style="fill:#ed1c24;fill-opacity:1.00" />
<polygon points="238.22,240.00 270.22,240.00 270.22,272.00 238.22,272.00 " style="fill:#cd2127;fill-opacity:1.00" />
<polygon points="301.77,48.00 333.77,48.00 333.77,80.00 301.77,80.00 " style="fill:#a3a28b;fill-opacity:1.00" />
<polygon points="301.77,80.00 333.77,80.00 333.77,112.00 301.77,112.00 " style="fill:#a3a28b;fill-opacity:1.00" />
<polygon points="333.55,48.00 365.55,48.00 365.55,80.00 333.55,80.00 " style="fill:#a3a28b;fill-opacity:1.00" />
<polygon points="333.55,80.00 365.55,80.00 365.55,112.00 333.55,112.00 " style="fill:#a3a28b;fill-opacity:1.00" />
<polygon points="365.33,48.00 397.33,48.00 397.33,80.00 365.33,80.00 " style="fill:#a3a28b;fill-opacity:1.00" />
<polygon points="365.33,176.00 397.33,176.00 397.33,208.00 365.33,208.00 " style="fill:#a3a28b;fill-opacity:1.00" />
<polygon points="365.33,208.00 397.33,208.00 397.33,240.00 365.33,240.00 " style="fill:#a3a28b;fill-opacity:1.00" />
<polygon points="365.33,240.00 397.33,240.00 397.33,272.00 365.33,272.00 " style="fill:#a3a28b;fill-opacity:1.00" />
<polygon points="397.11,48.00 429.11,48.00 429.11,80.00 397.11,80.00 " style="fill:#a3a28b;fill-opacity:1.00" />
<polygon points="397.11,144.00 429.11,144.00 429.11,176.00 397.11,176.00 " style="fill:#a3a28b;fill-opacity:1.00" />
<polygon points="397.11,176.00 429.11,176.00 429.11,208.00 397.11,208.00 " style="fill:#a3a28b;fill-opacity:1.00" />
<polygon points="397.11,208.00 429.11,208.00 429.11,240.00 397.11,240.00 " style="fill:#a3a28b;fill-opacity:1.00" />
<polygon points="397.11,240.00 429.11,240.00 429.11,272.00 397.11,272.00 " style="fill:#a3a28b;fill-opacity:1.00" />
<polygon points="428.88,48.00 460.88,48.00 460.88,80.00 428.88,80.00 " style="fill:#a3a28b;fill-opacity:1.00" />
<polygon points="428.88,112.00 460.88,112.00 460.88,144.00 428.88,144.00 " style="fill:#a3a28b;fill-opacity:1.00" />
<polygon points="428.88,144.00 460.88,144.00 460.88,176.00 428.88,176.00 " style="fill:#a3a28b;fill-opacity:1.00" />
<polygon points="460.66,48.00 492.66,48.00 492.66,80.00 460.66,80.00 " style="fill:#a3a28b;fill-opacity:1.00" />
<polygon points="460.66,80.00 492.66,80.00 492.66,112.00 460.66,112.00 " style="fill:#a3a28b;fill-opacity:1.00" />
<polygon points="460.66,112.00 492.66,112.00 492.66,144.00 460.66,144.00 " style="fill:#a3a28b;fill-opacity:1.00" />
<polygon points="492.44,48.00 524.44,48.00 524.44,80.00 492.44,80.00 " style="fill:#a3a28b;fill-opacity:1.00" />
<polygon points="492.44,80.00 524.44,80.00 524.44,112.00 492.44,112.00 " style="fill:#a3a28b;fill-opacity:1.00" />
<polygon points="555.99,48.00 587.99,48.00 587.99,80.00 555.99,80.00 " style="fill:#a3a28b;fill-opacity:1.00" />
<polygon points="555.99,80.00 587.99,80.00 587.99,112.00 555.99,112.00 " style="fill:#a3a28b;fill-opacity:1.00" />
<polygon points="555.99,112.00 587.99,112.00 587.99,144.00 555.99,144.00 " style="fill:#a3a28b;fill-opacity:1.00" />
<polygon points="555.99,208.00 587.99,208.00 587.99,240.00 555.99,240.00 " style="fill:#a3a28b;fill-opacity:1.00" />
<polygon points="587.77,48.00 619.77,48.00 619.77,80.00 587.77,80.00 " style="fill:#a3a28b;fill-opacity:1.00" />
<polygon points="587.77,80.00 619.77,80.00 619.77,112.00 587.77,112.00 " style="fill:#a3a28b;fill-opacity:1.00" />
<polygon points="587.77,112.00 619.77,112.00 619.77,144.00 587.77,144.00 " style="fill:#a3a28b;fill-opacity:1.00" />
<polygon points="587.77,208.00 619.77,208.00 619.77,240.00 587.77,240.00 " style="fill:#a3a28b;fill-opacity:1.00" />
<polygon points="587.77,240.00 619.77,240.00 619.77,272.00 587.77,272.00 " style="fill:#a3a28b;fill-opacity:1.00" />
<polygon points="619.55,48.00 651.55,48.00 651.55,80.00 619.55,80.00 " style="fill:#a3a28b;fill-opacity:1.00" />
<polygon points="619.55,112.00 651.55,112.00 651.55,144.00 619.55,144.00 " style="fill:#a3a28b;fill-opacity:1.00" />
<polygon points="619.55,240.00 651.55,240.00 651.55,272.00 619.55,272.00 " style="fill:#a3a28b;fill-opacity:1.00" />
<polygon points="651.32,48.00 683.32,48.00 683.32,80.00 651.32,80.00 " style="fill:#a3a28b;fill-opacity:1.00" />
<polygon points="651.32,112.00 683.32,112.00 683.32,144.00 651.32,144.00 " style="fill:#a3a28b;fill-opacity:1.00" />
<polygon points="651.32,240.00 683.32,240.00 683.32,272.00 651.32,272.00 " style="fill:#a3a28b;fill-opacity:1.00" />
<polygon points="683.10,48.00 715.10,48.00 715.10,80.00 683.10,80.00 " style="fill:#a3a28b;fill-opacity:1.00" />
<polygon points="683.10,112.00 715.10,112.00 715.10,144.00 683.10,144.00 " style="fill:#a3a28b;fill-opacity:1.00" />
<polygon points="683.10,240.00 715.10,240.00 715.10,272.00 683.10,272.00 " style="fill:#a3a28b;fill-opacity:1.00" />
<polygon points="714.88,48.00 746.88,48.00 746.88,80.00 714.88,80.00 " style="fill:#a3a28b;fill-opacity:1.00" />
<polygon points="714.88,112.00 746.88,112.00 746.88,144.00 714.88,144.00 " style="fill:#a3a28b;fill-opacity:1.00" />
<polygon points="714.88,144.00 746.88,144.00 746.88,176.00 714.88,176.00 " style="fill:#a3a28b;fill-opacity:1.00" />
<polygon points="714.88,176.00 746.88,176.00 746.88,208.00 714.88,208.00 " style="fill:#a3a28b;fill-opacity:1.00" />
<polygon points="714.88,208.00 746.88,208.00 746.88,240.00 714.88,240.00 " style="fill:#a3a28b;fill-opacity:1.00" />
<polygon points="714.88,240.00 746.88,240.00 746.88,272.00 714.88,272.00 " style="fill:#a3a28b;fill-opacity:1.00" />
<polygon points="746.66,144.00 778.66,144.00 778.66,176.00 746.66,176.00 " style="fill:#a3a28b;fill-opacity:1.00" />
<polygon points="746.66,176.00 778.66,176.00 778.66,208.00 746.66,208.00 " style="fill:#a3a28b;fill-opacity:1.00" />
<polygon points="746.66,208.00 778.66,208.00 778.66,240.00 746.66,240.00 " style="fill:#a3a28b;fill-opacity:1.00" />
<polygon points="810.21,48.00 842.21,48.00 842.21,80.00 810.21,80.00 " style="fill:#a3a28b;fill-opacity:1.00" />
<polygon points="810.21,80.00 842.21,80.00 842.21,112.00 810.21,112.00 " style="fill:#a3a28b;fill-opacity:1.00" />
<polygon points="841.99,48.00 873.99,48.00 873.99,80.00 841.99,80.00 " style="fill:#a3a28b;fill-opacity:1.00" />
<polygon points="841.99,80.00 873.99,80.00 873.99,112.00 841.99,112.00 " style="fill:#a3a28b;fill-opacity:1.00" />
<polygon points="873.77,48.00 905.77,48.00 905.77,80.00 873.77,80.00 " style="fill:#a3a28b;fill-opacity:1.00" />
<polygon points="873.77,176.00 905.77,176.00 905.77,208.00 873.77,208.00 " style="fill:#a3a28b;fill-opacity:1.00" />
<polygon points="873.77,208.00 905.77,208.00 905.77,240.00 873.77,240.00 " style="fill:#a3a28b;fill-opacity:1.00" />
<polygon points="873.77,240.00 905.77,240.00 905.77,272.00 873.77,272.00 " style="fill:#a3a28b;fill-opacity:1.00" />
<polygon points="905.54,48.00 937.54,48.00 937.54,80.00 905.54,80.00 " style="fill:#a3a28b;fill-opacity:1.00" />
<polygon points="905.54,144.00 937.54,144.00 937.54,176.00 905.54,176.00 " style="fill:#a3a28b;fill-opacity:1.00" />
<polygon points="905.54,176.00 937.54,176.00 937.54,208.00 905.54,208.00 " style="fill:#a3a28b;fill-opacity:1.00" />
<polygon points="905.54,208.00 937.54,208.00 937.54,240.00 905.54,240.00 " style="fill:#a3a28b;fill-opacity:1.00" />
<polygon points="905.54,240.00 937.54,240.00 937.54,272.00 905.54,272.00 " style="fill:#a3a28b;fill-opacity:1.00" />
<polygon points="937.32,48.00 969.32,48.00 969.32,80.00 937.32,80.00 " style="fill:#a3a28b;fill-opacity:1.00" />
<polygon points="937.32,112.00 969.32,112.00 969.32,144.00 937.32,144.00 " style="fill:#a3a28b;fill-opacity:1.00" />
<polygon points="937.32,144.00 969.32,144.00 969.32,176.00 937.32,176.00 " style="fill:#a3a28b;fill-opacity:1.00" />
<polygon points="969.10,48.00 1001.10,48.00 1001.10,80.00 969.10,80.00 " style="fill:#a3a28b;fill-opacity:1.00" />
<polygon points="969.10,80.00 1001.10,80.00 1001.10,112.00 969.10,112.00 " style="fill:#a3a28b;fill-opacity:1.00" />
<polygon points="969.10,112.00 1001.10,112.00 1001.10,144.00 969.10,144.00 " style="fill:#a3a28b;fill-opacity:1.00" />
<polygon points="1000.88,48.00 1032.88,48.00 1032.88,80.00 1000.88,80.00 " style="fill:#a3a28b;fill-opacity:1.00" />
<polygon points="1000.88,80.00 1032.88,80.00 1032.88,112.00 1000.88,112.00 " style="fill:#a3a28b;fill-opacity:1.00" />
<polygon points="1032.65,208.00 1064.65,208.00 1064.65,240.00 1032.65,240.00 " style="fill:#000000;fill-opacity:1.00" />
<polygon points="1032.65,240.00 1064.65,240.00 1064.65,272.00 1032.65,272.00 " style="fill:#000000;fill-opacity:1.00" />
<polygon points="1064.43,208.00 1096.43,208.00 1096.43,240.00 1064.43,240.00 " style="fill:#000000;fill-opacity:1.00" />
<polygon points="1064.43,240.00 1096.43,240.00 1096.43,272.00 1064.43,272.00 " style="fill:#000000;fill-opacity:1.00" />
<polygon points="1127.98,48.00 1159.98,48.00 1159.98,80.00 1127.98,80.00 " style="fill:#000000;fill-opacity:1.00" />
<polygon points="1127.98,80.00 1159.98,80.00 1159.98,112.00 1127.98,112.00 " style="fill:#000000;fill-opacity:1.00" />
<polygon points="1127.98,112.00 1159.98,112.00 1159.98,144.00 1127.98,144.00 " style="fill:#000000;fill-opacity:1.00" />
<polygon points="1127.98,144.00 1159.98,144.00 1159.98,176.00 1127.98,176.00 " style="fill:#000000;fill-opacity:1.00" />
<polygon points="1127.98,176.00 1159.98,176.00 1159.98,208.00 1127.98,208.00 " style="fill:#000000;fill-opacity:1.00" />
<polygon points="1127.98,208.00 1159.98,208.00 1159.98,240.00 1127.98,240.00 " style="fill:#000000;fill-opacity:1.00" />
<polygon points="1127.98,240.00 1159.98,240.00 1159.98,272.00 1127.98,272.00 " style="fill:#000000;fill-opacity:1.00" />
<polygon points="1159.76,48.00 1191.76,48.00 1191.76,80.00 1159.76,80.00 " style="fill:#000000;fill-opacity:1.00" />
<polygon points="1159.76,80.00 1191.76,80.00 1191.76,112.00 1159.76,112.00 " style="fill:#000000;fill-opacity:1.00" />
<polygon points="1159.76,112.00 1191.76,112.00 1191.76,144.00 1159.76,144.00 " style="fill:#000000;fill-opacity:1.00" />
<polygon points="1159.76,144.00 1191.76,144.00 1191.76,176.00 1159.76,176.00 " style="fill:#000000;fill-opacity:1.00" />
<polygon points="1159.76,176.00 1191.76,176.00 1191.76,208.00 1159.76,208.00 " style="fill:#000000;fill-opacity:1.00" />
<polygon points="1159.76,208.00 1191.76,208.00 1191.76,240.00 1159.76,240.00 " style="fill:#000000;fill-opacity:1.00" />
<polygon points="1159.76,240.00 1191.76,240.00 1191.76,272.00 1159.76,272.00 " style="fill:#000000;fill-opacity:1.00" />
<polygon points="1191.54,48.00 1223.54,48.00 1223.54,80.00 1191.54,80.00 " style="fill:#000000;fill-opacity:1.00" />
<polygon points="1191.54,176.00 1223.54,176.00 1223.54,208.00 1191.54,208.00 " style="fill:#000000;fill-opacity:1.00" />
<polygon points="1223.32,48.00 1255.32,48.00 1255.32,80.00 1223.32,80.00 " style="fill:#000000;fill-opacity:1.00" />
<polygon points="1223.32,176.00 1255.32,176.00 1255.32,208.00 1223.32,208.00 " style="fill:#000000;fill-opacity:1.00" />
<polygon points="1223.32,208.00 1255.32,208.00 1255.32,240.00 1223.32,240.00 " style="fill:#000000;fill-opacity:1.00" />
<polygon points="1255.09,48.00 1287.09,48.00 1287.09,80.00 1255.09,80.00 " style="fill:#000000;fill-opacity:1.00" />
<polygon points="1255.09,144.00 1287.09,144.00 1287.09,176.00 1255.09,176.00 " style="fill:#000000;fill-opacity:1.00" />
<polygon points="1255.09,176.00 1287.09,176.00 1287.09,208.00 1255.09,208.00 " style="fill:#000000;fill-opacity:1.00" />
<polygon points="1255.09,208.00 1287.09,208.00 1287.09,240.00 1255.09,240.00 " style="fill:#000000;fill-opacity:1.00" />
<polygon points="1255.09,240.00 1287.09,240.00 1287.09,272.00 1255.09,272.00 " style="fill:#000000;fill-opacity:1.00" />
<polygon points="1286.87,48.00 1318.87,48.00 1318.87,80.00 1286.87,80.00 " style="fill:#000000;fill-opacity:1.00" />
<polygon points="1286.87,80.00 1318.87,80.00 1318.87,112.00 1286.87,112.00 " style="fill:#000000;fill-opacity:1.00" />
<polygon points="1286.87,112.00 1318.87,112.00 1318.87,144.00 1286.87,144.00 " style="fill:#000000;fill-opacity:1.00" />
<polygon points="1286.87,144.00 1318.87,144.00 1318.87,176.00 1286.87,176.00 " style="fill:#000000;fill-opacity:1.00" />
<polygon points="1286.87,208.00 1318.87,208.00 1318.87,240.00 1286.87,240.00 " style="fill:#000000;fill-opacity:1.00" />
<polygon points="1286.87,240.00 1318.87,240.00 1318.87,272.00 1286.87,272.00 " style="fill:#000000;fill-opacity:1.00" />
<polygon points="1318.65,80.00 1350.65,80.00 1350.65,112.00 1318.65,112.00 " style="fill:#000000;fill-opacity:1.00" />
<polygon points="1318.65,112.00 1350.65,112.00 1350.65,144.00 1318.65,144.00 " style="fill:#000000;fill-opacity:1.00" />
<polygon points="1318.65,144.00 1350.65,144.00 1350.65,176.00 1318.65,176.00 " style="fill:#000000;fill-opacity:1.00" />
<polygon points="1318.65,240.00 1350.65,240.00 1350.65,272.00 1318.65,272.00 " style="fill:#000000;fill-opacity:1.00" />
<polygon points="1382.20,48.00 1414.20,48.00 1414.20,80.00 1382.20,80.00 " style="fill:#000000;fill-opacity:1.00" />
<polygon points="1382.20,80.00 1414.20,80.00 1414.20,112.00 1382.20,112.00 " style="fill:#000000;fill-opacity:1.00" />
<polygon points="1382.20,112.00 1414.20,112.00 1414.20,144.00 1382.20,144.00 " style="fill:#000000;fill-opacity:1.00" />
<polygon points="1382.20,144.00 1414.20,144.00 1414.20,176.00 1382.20,176.00 " style="fill:#000000;fill-opacity:1.00" />
<polygon points="1382.20,176.00 1414.20,176.00 1414.20,208.00 1382.20,208.00 " style="fill:#000000;fill-opacity:1.00" />
<polygon points="1382.20,208.00 1414.20,208.00 1414.20,240.00 1382.20,240.00 " style="fill:#000000;fill-opacity:1.00" />
<polygon points="1382.20,240.00 1414.20,240.00 1414.20,272.00 1382.20,272.00 " style="fill:#000000;fill-opacity:1.00" />
<polygon points="1413.98,48.00 1445.98,48.00 1445.98,80.00 1413.98,80.00 " style="fill:#000000;fill-opacity:1.00" />
<polygon points="1413.98,80.00 1445.98,80.00 1445.98,112.00 1413.98,112.00 " style="fill:#000000;fill-opacity:1.00" />
<polygon points="1413.98,112.00 1445.98,112.00 1445.98,144.00 1413.98,144.00 " style="fill:#000000;fill-opacity:1.00" />
<polygon points="1413.98,144.00 1445.98,144.00 1445.98,176.00 1413.98,176.00 " style="fill:#000000;fill-opacity:1.00" />
<polygon points="1413.98,176.00 1445.98,176.00 1445.98,208.00 1413.98,208.00 " style="fill:#000000;fill-opacity:1.00" />
<polygon points="1413.98,208.00 1445.98,208.00 1445.98,240.00 1413.98,240.00 " style="fill:#000000;fill-opacity:1.00" />
<polygon points="1413.98,240.00 1445.98,240.00 1445.98,272.00 1413.98,272.00 " style="fill:#000000;fill-opacity:1.00" />
<polygon points="1445.76,48.00 1477.76,48.00 1477.76,80.00 1445.76,80.00 " style="fill:#000000;fill-opacity:1.00" />
<polygon points="1445.76,144.00 1477.76,144.00 1477.76,176.00 1445.76,176.00 " style="fill:#000000;fill-opacity:1.00" />
<polygon points="1445.76,240.00 1477.76,240.00 1477.76,272.00 1445.76,272.00 " style="fill:#000000;fill-opacity:1.00" />
<polygon points="1477.54,48.00 1509.54,48.00 1509.54,80.00 1477.54,80.00 " style="fill:#000000;fill-opacity:1.00" />
<polygon points="1477.54,144.00 1509.54,144.00 1509.54,176.00 1477.54,176.00 " style="fill:#000000;fill-opacity:1.00" />
<polygon points="1477.54,240.00 1509.54,240.00 1509.54,272.00 1477.54,272.00 " style="fill:#000000;fill-opacity:1.00" />
<polygon points="1509.31,48.00 1541.31,48.00 1541.31,80.00 1509.31,80.00 " style="fill:#000000;fill-opacity:1.00" />
<polygon points="1509.31,144.00 1541.31,144.00 1541.31,176.00 1509.31,176.00 " style="fill:#000000;fill-opacity:1.00" />
<polygon points="1509.31,240.00 1541.31,240.00 1541.31,272.00 1509.31,272.00 " style="fill:#000000;fill-opacity:1.00" />
<polygon points="1541.09,48.00 1573.09,48.00 1573.09,80.00 1541.09,80.00 " style="fill:#000000;fill-opacity:1.00" />
<polygon points="1541.09,80.00 1573.09,80.00 1573.09,112.00 1541.09,112.00 " style="fill:#000000;fill-opacity:1.00" />
<polygon points="1541.09,112.00 1573.09,112.00 1573.09,144.00 1541.09,144.00 " style="fill:#000000;fill-opacity:1.00" />
<polygon points="1541.09,144.00 1573.09,144.00 1573.09,176.00 1541.09,176.00 " style="fill:#000000;fill-opacity:1.00" />
<polygon points="1541.09,176.00 1573.09,176.00 1573.09,208.00 1541.09,208.00 " style="fill:#000000;fill-opacity:1.00" />
<polygon points="1541.09,208.00 1573.09,208.00 1573.09,240.00 1541.09,240.00 " style="fill:#000000;fill-opacity:1.00" />
<polygon points="1541.09,240.00 1573.09,240.00 1573.09,272.00 1541.09,272.00 " style="fill:#000000;fill-opacity:1.00" />
<polygon points="1572.87,80.00 1604.87,80.00 1604.87,112.00 1572.87,112.00 " style="fill:#000000;fill-opacity:1.00" />
<polygon points="1572.87,112.00 1604.87,112.00 1604.87,144.00 1572.87,144.00 " style="fill:#000000;fill-opacity:1.00" />
<polygon points="1572.87,176.00 1604.87,176.00 1604.87,208.00 1572.87,208.00 " style="fill:#000000;fill-opacity:1.00" />
<polygon points="1572.87,208.00 1604.87,208.00 1604.87,240.00 1572.87,240.00 " style="fill:#000000;fill-opacity:1.00" />
</svg>
