<svg xmlns="http://www.w3.org/2000/svg" version="1.1">
<polygon points="-16.00,1296.16 16.00,1296.16 16.00,1328.16 -16.00,1328.16 " style="fill:#ffffff;fill-opacity:1.00" />
<polygon points="-16.00,1328.16 16.00,1328.16 16.00,1360.16 -16.00,1360.16 " style="fill:#ffffff;fill-opacity:1.00" />
<polygon points="-16.00,1360.16 16.00,1360.16 16.00,1392.17 -16.00,1392.17 " style="fill:#ffffff;fill-opacity:1.00" />
<polygon points="-16.00,1392.17 16.00,1392.17 16.00,1424.17 -16.00,1424.17 " style="fill:#ffffff;fill-opacity:1.00" />
<polygon points="-16.00,1424.17 16.00,1424.17 16.00,1456.18 -16.00,1456.18 " style="fill:#ffffff;fill-opacity:1.00" />
<polygon points="15.78,1296.16 47.78,1296.16 47.78,1328.16 15.78,1328.16 " style="fill:#ffffff;fill-opacity:1.00" />
<polygon points="15.78,1328.16 47.78,1328.16 47.78,1360.16 15.78,1360.16 " style="fill:#d8d6b4;fill-opacity:1.00" />
<polygon points="15.78,1360.16 47.78,1360.16 47.78,1392.17 15.78,1392.17 " style="fill:#d8d6b4;fill-opacity:1.00" />
<polygon points="15.78,1392.17 47.78,1392.17 47.78,1424.17 15.78,1424.17 " style="fill:#a3a28b;fill-opacity:1.00" />
<polygon points="15.78,1424.17 47.78,1424.17 47.78,1456.18 15.78,1456.18 " style="fill:#ffffff;fill-opacity:1.00" />
<polygon points="15.78,1456.18 47.78,1456.18 47.78,1488.18 15.78,1488.18 " style="fill:#ffffff;fill-opacity:1.00" />
<polygon points="47.56,1296.16 79.56,1296.16 79.56,1328.16 47.56,1328.16 " style="fill:#ffffff;fill-opacity:1.00" />
<polygon points="47.56,1328.16 79.56,1328.16 79.56,1360.16 47.56,1360.16 " style="fill:#d8d6b4;fill-opacity:1.00" />
<polygon points="47.56,1360.16 79.56,1360.16 79.56,1392.17 47.56,1392.17 " style="fill:#d8d6b4;fill-opacity:1.00" />
<polygon points="47.56,1392.17 79.56,1392.17 79.56,1424.17 47.56,1424.17 " style="fill:#d8d6b4;fill-opacity:1.00" />
<polygon points="47.56,1424.17 79.56,1424.17 79.56,1456.18 47.56,1456.18 " style="fill:#a3a28b;fill-opacity:1.00" />
<polygon points="47.56,1456.18 79.56,1456.18 79.56,1488.18 47.56,1488.18 " style="fill:#ffffff;fill-opacity:1.00" />
<polygon points="47.56,1488.18 79.56,1488.18 79.56,1520.18 47.56,1520.18 " style="fill:#ffffff;fill-opacity:1.00" />
<polygon points="79.34,464.06 111.35,464.06 111.35,496.06 79.34,496.06 " style="fill:#ffffff;fill-opacity:1.00" />
<polygon points="79.34,496.06 111.35,496.06 111.35,528.06 79.34,528.06 " style="fill:#ffffff;fill-opacity:1.00" />
<polygon points="79.34,528.06 111.35,528.06 111.35,560.07 79.34,560.07 " style="fill:#ffffff;fill-opacity:1.00" />
<polygon points="79.34,560.07 111.35,560.07 111.35,592.07 79.34,592.07 " style="fill:#ffffff;fill-opacity:1.00" />
<polygon points="79.34,1296.16 111.35,1296.16 111.35,1328.16 79.34,1328.16 " style="fill:#ffffff;fill-opacity:1.00" />
<polygon points="79.34,1328.16 111.35,1328.16 111.35,1360.16 79.34,1360.16 " style="fill:#ffffff;fill-opacity:1.00" />
<polygon points="79.34,1360.16 111.35,1360.16 111.35,1392.17 79.34,1392.17 " style="fill:#d8d6b4;fill-opacity:1.00" />
<polygon points="79.34,1392.17 111.35,1392.17 111.35,1424.17 79.34,1424.17 " style="fill:#d8d6b4;fill-opacity:1.00" />
<polygon points="79.34,1424.17 111.35,1424.17 111.35,1456.18 79.34,1456.18 " style="fill:#d8d6b4;fill-opacity:1.00" />
<polygon points="79.34,1456.18 111.35,1456.18 111.35,1488.18 79.34,1488.18 " style="fill:#a3a28b;fill-opacity:1.00" />
<polygon points="79.34,1488.18 111.35,1488.18 111.35,1520.18 79.34,1520.18 " style="fill:#ffffff;fill-opacity:1.00" />
<polygon points="111.12,432.05 143.13,432.05 143.13,464.06 111.12,464.06 " style="fill:#ffffff;fill-opacity:1.00" />
<polygon points="111.12,464.06 143.13,464.06 143.13,496.06 111.12,496.06 " style="fill:#ffffff;fill-opacity:1.00" />
<polygon points="111.12,496.06 143.13,496.06 143.13,528.06 111.12,528.06 " style="fill:#b7312c;fill-opacity:1.00" />
<polygon points="111.12,528.06 143.13,528.06 143.13,560.07 111.12,560.07 " style="fill:#b7312c;fill-opacity:1.00" />
<polygon points="111.12,560.07 143.13,560.07 143.13,592.07 111.12,592.07 " style="fill:#ffffff;fill-opacity:1.00" />
<polygon points="111.12,592.07 143.13,592.07 143.13,624.08 111.12,624.08 " style="fill:#ffffff;fill-opacity:1.00" />
<polygon points="111.12,1328.16 143.13,1328.16 143.13,1360.16 111.12,1360.16 " style="fill:#ffffff;fill-opacity:1.00" />
<polygon points="111.12,1360.16 143.13,1360.16 143.13,1392.17 111.12,1392.17 " style="fill:#d8d6b4;fill-opacity:1.00" />
<polygon points="111.12,1392.17 143.13,1392.17 143.13,1424.17 111.12,1424.17 " style="fill:#d8d6b4;fill-opacity:1.00" />
<polygon points="111.12,1424.17 143.13,1424.17 143.13,1456.18 111.12,1456.18 " style="fill:#d8d6b4;fill-opacity:1.00" />
<polygon points="111.12,1456.18 143.13,1456.18 143.13,1488.18 111.12,1488.18 " style="fill:#a3a28b;fill-opacity:1.00" />
<polygon points="111.12,1488.18 143.13,1488.18 143.13,1520.18 111.12,1520.18 " style="fill:#ffffff;fill-opacity:1.00" />
<polygon points="142.90,368.04 174.91,368.04 174.91,400.05 142.90,400.05 " style="fill:#ffffff;fill-opacity:1.00" />
<polygon points="142.90,400.05 174.91,400.05 174.91,432.05 142.90,432.05 " style="fill:#ffffff;fill-opacity:1.00" />
<polygon points="142.90,432.05 174.91,432.05 174.91,464.06 142.90,464.06 " style="fill:#ffffff;fill-opacity:1.00" />
<polygon points="142.90,464.06 174.91,464.06 174.91,496.06 142.90,496.06 " style="fill:#d57759;fill-opacity:1.00" />
<polygon points="142.90,496.06 174.91,496.06 174.91,528.06 142.90,528.06 " style="fill:#b7312c;fill-opacity:1.00" />
<polygon points="142.90,528.06 174.91,528.06 174.91,560.07 142.90,560.07 " style="fill:#c7463a;fill-opacity:1.00" />
<polygon points="142.90,560.07 174.91,560.07 174.91,592.07 142.90,592.07 " style="fill:#c7463a;fill-opacity:1.00" />
<polygon points="142.90,592.07 174.91,592.07 174.91,624.08 142.90,624.08 " style="fill:#ffffff;fill-opacity:1.00" />
<polygon points="142.90,624.08 174.91,624.08 174.91,656.08 142.90,656.08 " style="fill:#ffffff;fill-opacity:1.00" />
<polygon points="142.90,1328.16 174.91,1328.16 174.91,1360.16 142.90,1360.16 " style="fill:#ffffff;fill-opacity:1.00" />
<polygon points="142.90,1360.16 174.91,1360.16 174.91,1392.17 142.90,1392.17 " style="fill:#d8d6b4;fill-opacity:1.00" />
<polygon points="142.90,1392.17 174.91,1392.17 174.91,1424.17 142.90,1424.17 " style="fill:#d8d6b4;fill-opacity:1.00" />
<polygon points="142.90,1424.17 174.91,1424.17 174.91,1456.18 142.90,1456.18 " style="fill:#a3a28b;fill-opacity:1.00" />
<polygon points="142.90,1456.18 174.91,1456.18 174.91,1488.18 142.90,1488.18 " style="fill:#ffffff;fill-opacity:1.00" />
<polygon points="142.90,1488.18 174.91,1488.18 174.91,1520.18 142.90,1520.18 " style="fill:#ffffff;fill-opacity:1.00" />
<polygon points="174.69,368.04 206.69,368.04 206.69,400.05 174.69,400.05 " style="fill:#ffffff;fill-opacity:1.00" />
<polygon points="174.69,400.05 206.69,400.05 206.69,432.05 174.69,432.05 " style="fill:#d57759;fill-opacity:1.00" />
<polygon points="174.69,432.05 206.69,432.05 206.69,464.06 174.69,464.06 " style="fill:#d57759;fill-opacity:1.00" />
<polygon points="174.69,464.06 206.69,464.06 206.69,496.06 174.69,496.06 " style="fill:#b7312c;fill-opacity:1.00" />
<polygon points="174.69,496.06 206.69,496.06 206.69,528.06 174.69,528.06 " style="fill:#c7463a;fill-opacity:1.00" />
<polygon points="174.69,528.06 206.69,528.06 206.69,560.07 174.69,560.07 " style="fill:#c7463a;fill-opacity:1.00" />
<polygon points="174.69,560.07 206.69,560.07 206.69,592.07 174.69,592.07 " style="fill:#c7463a;fill-opacity:1.00" />
<polygon points="174.69,592.07 206.69,592.07 206.69,624.08 174.69,624.08 " style="fill:#c7463a;fill-opacity:1.00" />
<polygon points="174.69,624.08 206.69,624.08 206.69,656.08 174.69,656.08 " style="fill:#ffffff;fill-opacity:1.00" />
<polygon points="174.69,656.08 206.69,656.08 206.69,688.08 174.69,688.08 " style="fill:#ffffff;fill-opacity:1.00" />
<polygon points="174.69,688.08 206.69,688.08 206.69,720.09 174.69,720.09 " style="fill:#ffffff;fill-opacity:1.00" />
<polygon points="174.69,1264.15 206.69,1264.15 206.69,1296.16 174.69,1296.16 " style="fill:#ffffff;fill-opacity:1.00" />
<polygon points="174.69,1296.16 206.69,1296.16 206.69,1328.16 174.69,1328.16 " style="fill:#ffffff;fill-opacity:1.00" />
<polygon points="174.69,1328.16 206.69,1328.16 206.69,1360.16 174.69,1360.16 " style="fill:#ffffff;fill-opacity:1.00" />
<polygon points="174.69,1360.16 206.69,1360.16 206.69,1392.17 174.69,1392.17 " style="fill:#a3a28b;fill-opacity:1.00" />
<polygon points="174.69,1392.17 206.69,1392.17 206.69,1424.17 174.69,1424.17 " style="fill:#a3a28b;fill-opacity:1.00" />
<polygon points="174.69,1424.17 206.69,1424.17 206.69,1456.18 174.69,1456.18 " style="fill:#ffffff;fill-opacity:1.00" />
<polygon points="174.69,1456.18 206.69,1456.18 206.69,1488.18 174.69,1488.18 " style="fill:#ffffff;fill-opacity:1.00" />
<polygon points="206.47,368.04 238.47,368.04 238.47,400.05 206.47,400.05 " style="fill:#ffffff;fill-opacity:1.00" />
<polygon points="206.47,400.05 238.47,400.05 238.47,432.05 206.47,432.05 " style="fill:#ffffff;fill-opacity:1.00" />
<polygon points="206.47,432.05 238.47,432.05 238.47,464.06 206.47,464.06 " style="fill:#d57759;fill-opacity:1.00" />
<polygon points="206.47,464.06 238.47,464.06 238.47,496.06 206.47,496.06 " style="fill:#c7463a;fill-opacity:1.00" />
<polygon points="206.47,496.06 238.47,496.06 238.47,528.06 206.47,528.06 " style="fill:#c7463a;fill-opacity:1.00" />
<polygon points="206.47,528.06 238.47,528.06 238.47,560.07 206.47,560.07 " style="fill:#c7463a;fill-opacity:1.00" />
<polygon points="206.47,560.07 238.47,560.07 238.47,592.07 206.47,592.07 " style="fill:#c7463a;fill-opacity:1.00" />
<polygon points="206.47,592.07 238.47,592.07 238.47,624.08 206.47,624.08 " style="fill:#c7463a;fill-opacity:1.00" />
<polygon points="206.47,624.08 238.47,624.08 238.47,656.08 206.47,656.08 " style="fill:#c7463a;fill-opacity:1.00" />
<polygon points="206.47,656.08 238.47,656.08 238.47,688.08 206.47,688.08 " style="fill:#c7463a;fill-opacity:1.00" />
<polygon points="206.47,688.08 238.47,688.08 238.47,720.09 206.47,720.09 " style="fill:#ffffff;fill-opacity:1.00" />
<polygon points="206.47,720.09 238.47,720.09 238.47,752.09 206.47,752.09 " style="fill:#ffffff;fill-opacity:1.00" />
<polygon points="206.47,1232.15 238.47,1232.15 238.47,1264.15 206.47,1264.15 " style="fill:#ffffff;fill-opacity:1.00" />
<polygon points="206.47,1264.15 238.47,1264.15 238.47,1296.16 206.47,1296.16 " style="fill:#ffffff;fill-opacity:1.00" />
<polygon points="206.47,1296.16 238.47,1296.16 238.47,1328.16 206.47,1328.16 " style="fill:#d8d6b4;fill-opacity:1.00" />
<polygon points="206.47,1328.16 238.47,1328.16 238.47,1360.16 206.47,1360.16 " style="fill:#d8d6b4;fill-opacity:1.00" />
<polygon points="206.47,1360.16 238.47,1360.16 238.47,1392.17 206.47,1392.17 " style="fill:#d8d6b4;fill-opacity:1.00" />
<polygon points="206.47,1392.17 238.47,1392.17 238.47,1424.17 206.47,1424.17 " style="fill:#a3a28b;fill-opacity:1.00" />
<polygon points="206.47,1424.17 238.47,1424.17 238.47,1456.18 206.47,1456.18 " style="fill:#a3a28b;fill-opacity:1.00" />
<polygon points="206.47,1456.18 238.47,1456.18 238.47,1488.18 206.47,1488.18 " style="fill:#ffffff;fill-opacity:1.00" />
<polygon points="206.47,1488.18 238.47,1488.18 238.47,1520.18 206.47,1520.18 " style="fill:#ffffff;fill-opacity:1.00" />
<polygon points="238.25,400.05 270.25,400.05 270.25,432.05 238.25,432.05 " style="fill:#ffffff;fill-opacity:1.00" />
<polygon points="238.25,432.05 270.25,432.05 270.25,464.06 238.25,464.06 " style="fill:#ffffff;fill-opacity:1.00" />
<polygon points="238.25,464.06 270.25,464.06 270.25,496.06 238.25,496.06 " style="fill:#b7312c;fill-opacity:1.00" />
<polygon points="238.25,496.06 270.25,496.06 270.25,528.06 238.25,528.06 " style="fill:#c7463a;fill-opacity:1.00" />
<polygon points="238.25,528.06 270.25,528.06 270.25,560.07 238.25,560.07 " style="fill:#c7463a;fill-opacity:1.00" />
<polygon points="238.25,560.07 270.25,560.07 270.25,592.07 238.25,592.07 " style="fill:#c7463a;fill-opacity:1.00" />
<polygon points="238.25,592.07 270.25,592.07 270.25,624.08 238.25,624.08 " style="fill:#c7463a;fill-opacity:1.00" />
<polygon points="238.25,624.08 270.25,624.08 270.25,656.08 238.25,656.08 " style="fill:#c7463a;fill-opacity:1.00" />
<polygon points="238.25,656.08 270.25,656.08 270.25,688.08 238.25,688.08 " style="fill:#c7463a;fill-opacity:1.00" />
<polygon points="238.25,688.08 270.25,688.08 270.25,720.09 238.25,720.09 " style="fill:#b7312c;fill-opacity:1.00" />
<polygon points="238.25,720.09 270.25,720.09 270.25,752.09 238.25,752.09 " style="fill:#ffffff;fill-opacity:1.00" />
<polygon points="238.25,1232.15 270.25,1232.15 270.25,1264.15 238.25,1264.15 " style="fill:#ffffff;fill-opacity:1.00" />
<polygon points="238.25,1264.15 270.25,1264.15 270.25,1296.16 238.25,1296.16 " style="fill:#d8d6b4;fill-opacity:1.00" />
<polygon points="238.25,1296.16 270.25,1296.16 270.25,1328.16 238.25,1328.16 " style="fill:#d8d6b4;fill-opacity:1.00" />
<polygon points="238.25,1328.16 270.25,1328.16 270.25,1360.16 238.25,1360.16 " style="fill:#d8d6b4;fill-opacity:1.00" />
<polygon points="238.25,1360.16 270.25,1360.16 270.25,1392.17 238.25,1392.17 " style="fill:#d8d6b4;fill-opacity:1.00" />
<polygon points="238.25,1392.17 270.25,1392.17 270.25,1424.17 238.25,1424.17 " style="fill:#a3a28b;fill-opacity:1.00" />
<polygon points="238.25,1424.17 270.25,1424.17 270.25,1456.18 238.25,1456.18 " style="fill:#a3a28b;fill-opacity:1.00" />
<polygon points="238.25,1456.18 270.25,1456.18 270.25,1488.18 238.25,1488.18 " style="fill:#d8d6b4;fill-opacity:1.00" />
<polygon points="238.25,1488.18 270.25,1488.18 270.25,1520.18 238.25,1520.18 " style="fill:#ffffff;fill-opacity:1.00" />
<polygon points="238.25,1520.18 270.25,1520.18 270.25,1552.19 238.25,1552.19 " style="fill:#ffffff;fill-opacity:1.00" />
<polygon points="270.03,432.05 302.03,432.05 302.03,464.06 270.03,464.06 " style="fill:#ffffff;fill-opacity:1.00" />
<polygon points="270.03,464.06 302.03,464.06 302.03,496.06 270.03,496.06 " style="fill:#ffffff;fill-opacity:1.00" />
<polygon points="270.03,496.06 302.03,496.06 302.03,528.06 270.03,528.06 " style="fill:#b7312c;fill-opacity:1.00" />
<polygon points="270.03,528.06 302.03,528.06 302.03,560.07 270.03,560.07 " style="fill:#c7463a;fill-opacity:1.00" />
<polygon points="270.03,560.07 302.03,560.07 302.03,592.07 270.03,592.07 " style="fill:#c7463a;fill-opacity:1.00" />
<polygon points="270.03,592.07 302.03,592.07 302.03,624.08 270.03,624.08 " style="fill:#c7463a;fill-opacity:1.00" />
<polygon points="270.03,624.08 302.03,624.08 302.03,656.08 270.03,656.08 " style="fill:#c7463a;fill-opacity:1.00" />
<polygon points="270.03,656.08 302.03,656.08 302.03,688.08 270.03,688.08 " style="fill:#b7312c;fill-opacity:1.00" />
<polygon points="270.03,688.08 302.03,688.08 302.03,720.09 270.03,720.09 " style="fill:#b7312c;fill-opacity:1.00" />
<polygon points="270.03,720.09 302.03,720.09 302.03,752.09 270.03,752.09 " style="fill:#ffffff;fill-opacity:1.00" />
<polygon points="270.03,752.09 302.03,752.09 302.03,784.09 270.03,784.09 " style="fill:#ffffff;fill-opacity:1.00" />
<polygon points="270.03,1232.15 302.03,1232.15 302.03,1264.15 270.03,1264.15 " style="fill:#ffffff;fill-opacity:1.00" />
<polygon points="270.03,1264.15 302.03,1264.15 302.03,1296.16 270.03,1296.16 " style="fill:#d8d6b4;fill-opacity:1.00" />
<polygon points="270.03,1296.16 302.03,1296.16 302.03,1328.16 270.03,1328.16 " style="fill:#d8d6b4;fill-opacity:1.00" />
<polygon points="270.03,1328.16 302.03,1328.16 302.03,1360.16 270.03,1360.16 " style="fill:#d8d6b4;fill-opacity:1.00" />
<polygon points="270.03,1360.16 302.03,1360.16 302.03,1392.17 270.03,1392.17 " style="fill:#a3a28b;fill-opacity:1.00" />
<polygon points="270.03,1392.17 302.03,1392.17 302.03,1424.17 270.03,1424.17 " style="fill:#ffffff;fill-opacity:1.00" />
<polygon points="270.03,1424.17 302.03,1424.17 302.03,1456.18 270.03,1456.18 " style="fill:#a3a28b;fill-opacity:1.00" />
<polygon points="270.03,1456.18 302.03,1456.18 302.03,1488.18 270.03,1488.18 " style="fill:#d8d6b4;fill-opacity:1.00" />
<polygon points="270.03,1488.18 302.03,1488.18 302.03,1520.18 270.03,1520.18 " style="fill:#d8d6b4;fill-opacity:1.00" />
<polygon points="270.03,1520.18 302.03,1520.18 302.03,1552.19 270.03,1552.19 " style="fill:#ffffff;fill-opacity:1.00" />
<polygon points="301.81,464.06 333.81,464.06 333.81,496.06 301.81,496.06 " style="fill:#ffffff;fill-opacity:1.00" />
<polygon points="301.81,496.06 333.81,496.06 333.81,528.06 301.81,528.06 " style="fill:#ffffff;fill-opacity:1.00" />
<polygon points="301.81,528.06 333.81,528.06 333.81,560.07 301.81,560.07 " style="fill:#b7312c;fill-opacity:1.00" />
<polygon points="301.81,560.07 333.81,560.07 333.81,592.07 301.81,592.07 " style="fill:#c7463a;fill-opacity:1.00" />
<polygon points="301.81,592.07 333.81,592.07 333.81,624.08 301.81,624.08 " style="fill:#c7463a;fill-opacity:1.00" />
<polygon points="301.81,624.08 333.81,624.08 333.81,656.08 301.81,656.08 " style="fill:#b7312c;fill-opacity:1.00" />
<polygon points="301.81,656.08 333.81,656.08 333.81,688.08 301.81,688.08 " style="fill:#b7312c;fill-opacity:1.00" />
<polygon points="301.81,688.08 333.81,688.08 333.81,720.09 301.81,720.09 " style="fill:#b7312c;fill-opacity:1.00" />
<polygon points="301.81,720.09 333.81,720.09 333.81,752.09 301.81,752.09 " style="fill:#b7312c;fill-opacity:1.00" />
<polygon points="301.81,752.09 333.81,752.09 333.81,784.09 301.81,784.09 " style="fill:#ffffff;fill-opacity:1.00" />
<polygon points="301.81,1232.15 333.81,1232.15 333.81,1264.15 301.81,1264.15 " style="fill:#ffffff;fill-opacity:1.00" />
<polygon points="301.81,1264.15 333.81,1264.15 333.81,1296.16 301.81,1296.16 " style="fill:#d8d6b4;fill-opacity:1.00" />
<polygon points="301.81,1296.16 333.81,1296.16 333.81,1328.16 301.81,1328.16 " style="fill:#d8d6b4;fill-opacity:1.00" />
<polygon points="301.81,1328.16 333.81,1328.16 333.81,1360.16 301.81,1360.16 " style="fill:#a3a28b;fill-opacity:1.00" />
<polygon points="301.81,1360.16 333.81,1360.16 333.81,1392.17 301.81,1392.17 " style="fill:#ffffff;fill-opacity:1.00" />
<polygon points="301.81,1392.17 333.81,1392.17 333.81,1424.17 301.81,1424.17 " style="fill:#ffffff;fill-opacity:1.00" />
<polygon points="301.81,1424.17 333.81,1424.17 333.81,1456.18 301.81,1456.18 " style="fill:#ffffff;fill-opacity:1.00" />
<polygon points="301.81,1456.18 333.81,1456.18 333.81,1488.18 301.81,1488.18 " style="fill:#a3a28b;fill-opacity:1.00" />
<polygon points="301.81,1488.18 333.81,1488.18 333.81,1520.18 301.81,1520.18 " style="fill:#d8d6b4;fill-opacity:1.00" />
<polygon points="301.81,1520.18 333.81,1520.18 333.81,1552.19 301.81,1552.19 " style="fill:#ffffff;fill-opacity:1.00" />
<polygon points="333.59,304.04 365.59,304.04 365.59,336.04 333.59,336.04 " style="fill:#ffffff;fill-opacity:1.00" />
<polygon points="333.59,336.04 365.59,336.04 365.59,368.04 333.59,368.04 " style="fill:#ffffff;fill-opacity:1.00" />
<polygon points="333.59,368.04 365.59,368.04 365.59,400.05 333.59,400.05 " style="fill:#ffffff;fill-opacity:1.00" />
<polygon points="333.59,400.05 365.59,400.05 365.59,432.05 333.59,432.05 " style="fill:#ffffff;fill-opacity:1.00" />
<polygon points="333.59,464.06 365.59,464.06 365.59,496.06 333.59,496.06 " style="fill:#ffffff;fill-opacity:1.00" />
<polygon points="333.59,496.06 365.59,496.06 365.59,528.06 333.59,528.06 " style="fill:#ffffff;fill-opacity:1.00" />
<polygon points="333.59,528.06 365.59,528.06 365.59,560.07 333.59,560.07 " style="fill:#b7312c;fill-opacity:1.00" />
<polygon points="333.59,560.07 365.59,560.07 365.59,592.07 333.59,592.07 " style="fill:#b7312c;fill-opacity:1.00" />
<polygon points="333.59,592.07 365.59,592.07 365.59,624.08 333.59,624.08 " style="fill:#b7312c;fill-opacity:1.00" />
<polygon points="333.59,624.08 365.59,624.08 365.59,656.08 333.59,656.08 " style="fill:#b7312c;fill-opacity:1.00" />
<polygon points="333.59,656.08 365.59,656.08 365.59,688.08 333.59,688.08 " style="fill:#b7312c;fill-opacity:1.00" />
<polygon points="333.59,688.08 365.59,688.08 365.59,720.09 333.59,720.09 " style="fill:#b7312c;fill-opacity:1.00" />
<polygon points="333.59,720.09 365.59,720.09 365.59,752.09 333.59,752.09 " style="fill:#b7312c;fill-opacity:1.00" />
<polygon points="333.59,752.09 365.59,752.09 365.59,784.09 333.59,784.09 " style="fill:#ffffff;fill-opacity:1.00" />
<polygon points="333.59,1232.15 365.59,1232.15 365.59,1264.15 333.59,1264.15 " style="fill:#ffffff;fill-opacity:1.00" />
<polygon points="333.59,1264.15 365.59,1264.15 365.59,1296.16 333.59,1296.16 " style="fill:#ffffff;fill-opacity:1.00" />
<polygon points="333.59,1296.16 365.59,1296.16 365.59,1328.16 333.59,1328.16 " style="fill:#ffffff;fill-opacity:1.00" />
<polygon points="333.59,1328.16 365.59,1328.16 365.59,1360.16 333.59,1360.16 " style="fill:#ffffff;fill-opacity:1.00" />
<polygon points="333.59,1360.16 365.59,1360.16 365.59,1392.17 333.59,1392.17 " style="fill:#ffffff;fill-opacity:1.00" />
<polygon points="333.59,1392.17 365.59,1392.17 365.59,1424.17 333.59,1424.17 " style="fill:#ffffff;fill-opacity:1.00" />
<polygon points="333.59,1424.17 365.59,1424.17 365.59,1456.18 333.59,1456.18 " style="fill:#a3a28b;fill-opacity:1.00" />
<polygon points="333.59,1456.18 365.59,1456.18 365.59,1488.18 333.59,1488.18 " style="fill:#a3a28b;fill-opacity:1.00" />
<polygon points="333.59,1488.18 365.59,1488.18 365.59,1520.18 333.59,1520.18 " style="fill:#d8d6b4;fill-opacity:1.00" />
<polygon points="333.59,1520.18 365.59,1520.18 365.59,1552.19 333.59,1552.19 " style="fill:#ffffff;fill-opacity:1.00" />
<polygon points="365.37,48.01 397.38,48.01 397.38,80.01 365.37,80.01 " style="fill:#ffffff;fill-opacity:1.00" />
<polygon points="365.37,80.01 397.38,80.01 397.38,112.01 365.37,112.01 " style="fill:#ffffff;fill-opacity:1.00" />
<polygon points="365.37,112.01 397.38,112.01 397.38,144.02 365.37,144.02 " style="fill:#ffffff;fill-opacity:1.00" />
<polygon points="365.37,304.04 397.38,304.04 397.38,336.04 365.37,336.04 " style="fill:#ffffff;fill-opacity:1.00" />
<polygon points="365.37,336.04 397.38,336.04 397.38,368.04 365.37,368.04 " style="fill:#f5be99;fill-opacity:1.00" />
<polygon points="365.37,368.04 397.38,368.04 397.38,400.05 365.37,400.05 " style="fill:#f5be99;fill-opacity:1.00" />
<polygon points="365.37,400.05 397.38,400.05 397.38,432.05 365.37,432.05 " style="fill:#ffffff;fill-opacity:1.00" />
<polygon points="365.37,432.05 397.38,432.05 397.38,464.06 365.37,464.06 " style="fill:#ffffff;fill-opacity:1.00" />
<polygon points="365.37,464.06 397.38,464.06 397.38,496.06 365.37,496.06 " style="fill:#ffffff;fill-opacity:1.00" />
<polygon points="365.37,496.06 397.38,496.06 397.38,528.06 365.37,528.06 " style="fill:#f5be99;fill-opacity:1.00" />
<polygon points="365.37,528.06 397.38,528.06 397.38,560.07 365.37,560.07 " style="fill:#f5be99;fill-opacity:1.00" />
<polygon points="365.37,560.07 397.38,560.07 397.38,592.07 365.37,592.07 " style="fill:#f5be99;fill-opacity:1.00" />
<polygon points="365.37,592.07 397.38,592.07 397.38,624.08 365.37,624.08 " style="fill:#f5be99;fill-opacity:1.00" />
<polygon points="365.37,624.08 397.38,624.08 397.38,656.08 365.37,656.08 " style="fill:#f5be99;fill-opacity:1.00" />
<polygon points="365.37,656.08 397.38,656.08 397.38,688.08 365.37,688.08 " style="fill:#b7312c;fill-opacity:1.00" />
<polygon points="365.37,688.08 397.38,688.08 397.38,720.09 365.37,720.09 " style="fill:#b7312c;fill-opacity:1.00" />
<polygon points="365.37,720.09 397.38,720.09 397.38,752.09 365.37,752.09 " style="fill:#b7312c;fill-opacity:1.00" />
<polygon points="365.37,752.09 397.38,752.09 397.38,784.09 365.37,784.09 " style="fill:#ffffff;fill-opacity:1.00" />
<polygon points="365.37,1328.16 397.38,1328.16 397.38,1360.16 365.37,1360.16 " style="fill:#ffffff;fill-opacity:1.00" />
<polygon points="365.37,1360.16 397.38,1360.16 397.38,1392.17 365.37,1392.17 " style="fill:#ffffff;fill-opacity:1.00" />
<polygon points="365.37,1392.17 397.38,1392.17 397.38,1424.17 365.37,1424.17 " style="fill:#a3a28b;fill-opacity:1.00" />
<polygon points="365.37,1424.17 397.38,1424.17 397.38,1456.18 365.37,1456.18 " style="fill:#d8d6b4;fill-opacity:1.00" />
<polygon points="365.37,1456.18 397.38,1456.18 397.38,1488.18 365.37,1488.18 " style="fill:#d8d6b4;fill-opacity:1.00" />
<polygon points="365.37,1488.18 397.38,1488.18 397.38,1520.18 365.37,1520.18 " style="fill:#d8d6b4;fill-opacity:1.00" />
<polygon points="365.37,1520.18 397.38,1520.18 397.38,1552.19 365.37,1552.19 " style="fill:#ffffff;fill-opacity:1.00" />
<polygon points="397.15,16.00 429.16,16.00 429.16,48.01 397.15,48.01 " style="fill:#ffffff;fill-opacity:1.00" />
<polygon points="397.15,48.01 429.16,48.01 429.16,80.01 397.15,80.01 " style="fill:#ffffff;fill-opacity:1.00" />
<polygon points="397.15,80.01 429.16,80.01 429.16,112.01 397.15,112.01 " style="fill:#cd2127;fill-opacity:1.00" />
<polygon points="397.15,112.01 429.16,112.01 429.16,144.02 397.15,144.02 " style="fill:#ffffff;fill-opacity:1.00" />
<polygon points="397.15,144.02 429.16,144.02 429.16,176.02 397.15,176.02 " style="fill:#ffffff;fill-opacity:1.00" />
<polygon points="397.15,304.04 429.16,304.04 429.16,336.04 397.15,336.04 " style="fill:#ffffff;fill-opacity:1.00" />
<polygon points="397.15,336.04 429.16,336.04 429.16,368.04 397.15,368.04 " style="fill:#ffffff;fill-opacity:1.00" />
<polygon points="397.15,368.04 429.16,368.04 429.16,400.05 397.15,400.05 " style="fill:#ffffff;fill-opacity:1.00" />
<polygon points="397.15,400.05 429.16,400.05 429.16,432.05 397.15,432.05 " style="fill:#f5be99;fill-opacity:1.00" />
<polygon points="397.15,432.05 429.16,432.05 429.16,464.06 397.15,464.06 " style="fill:#ffffff;fill-opacity:1.00" />
<polygon points="397.15,464.06 429.16,464.06 429.16,496.06 397.15,496.06 " style="fill:#f5be99;fill-opacity:1.00" />
<polygon points="397.15,496.06 429.16,496.06 429.16,528.06 397.15,528.06 " style="fill:#b7312c;fill-opacity:1.00" />
<polygon points="397.15,528.06 429.16,528.06 429.16,560.07 397.15,560.07 " style="fill:#b7312c;fill-opacity:1.00" />
<polygon points="397.15,560.07 429.16,560.07 429.16,592.07 397.15,592.07 " style="fill:#b7312c;fill-opacity:1.00" />
<polygon points="397.15,592.07 429.16,592.07 429.16,624.08 397.15,624.08 " style="fill:#b7312c;fill-opacity:1.00" />
<polygon points="397.15,624.08 429.16,624.08 429.16,656.08 397.15,656.08 " style="fill:#b7312c;fill-opacity:1.00" />
<polygon points="397.15,656.08 429.16,656.08 429.16,688.08 397.15,688.08 " style="fill:#f5be99;fill-opacity:1.00" />
<polygon points="397.15,688.08 429.16,688.08 429.16,720.09 397.15,720.09 " style="fill:#b7312c;fill-opacity:1.00" />
<polygon points="397.15,720.09 429.16,720.09 429.16,752.09 397.15,752.09 " style="fill:#b7312c;fill-opacity:1.00" />
<polygon points="397.15,752.09 429.16,752.09 429.16,784.09 397.15,784.09 " style="fill:#ffffff;fill-opacity:1.00" />
<polygon points="397.15,1296.16 429.16,1296.16 429.16,1328.16 397.15,1328.16 " style="fill:#ffffff;fill-opacity:1.00" />
<polygon points="397.15,1328.16 429.16,1328.16 429.16,1360.16 397.15,1360.16 " style="fill:#ffffff;fill-opacity:1.00" />
<polygon points="397.15,1360.16 429.16,1360.16 429.16,1392.17 397.15,1392.17 " style="fill:#a3a28b;fill-opacity:1.00" />
<polygon points="397.15,1392.17 429.16,1392.17 429.16,1424.17 397.15,1424.17 " style="fill:#d8d6b4;fill-opacity:1.00" />
<polygon points="397.15,1424.17 429.16,1424.17 429.16,1456.18 397.15,1456.18 " style="fill:#d8d6b4;fill-opacity:1.00" />
<polygon points="397.15,1456.18 429.16,1456.18 429.16,1488.18 397.15,1488.18 " style="fill:#d8d6b4;fill-opacity:1.00" />
<polygon points="397.15,1488.18 429.16,1488.18 429.16,1520.18 397.15,1520.18 " style="fill:#d8d6b4;fill-opacity:1.00" />
<polygon points="397.15,1520.18 429.16,1520.18 429.16,1552.19 397.15,1552.19 " style="fill:#ffffff;fill-opacity:1.00" />
<polygon points="428.93,-16.00 460.94,-16.00 460.94,16.00 428.93,16.00 " style="fill:#ffffff;fill-opacity:1.00" />
<polygon points="428.93,16.00 460.94,16.00 460.94,48.01 428.93,48.01 " style="fill:#ffffff;fill-opacity:1.00" />
<polygon points="428.93,48.01 460.94,48.01 460.94,80.01 428.93,80.01 " style="fill:#cd2127;fill-opacity:1.00" />
<polygon points="428.93,80.01 460.94,80.01 460.94,112.01 428.93,112.01 " style="fill:#cd2127;fill-opacity:1.00" />
<polygon points="428.93,112.01 460.94,112.01 460.94,144.02 428.93,144.02 " style="fill:#cd2127;fill-opacity:1.00" />
<polygon points="428.93,144.02 460.94,144.02 460.94,176.02 428.93,176.02 " style="fill:#ffffff;fill-opacity:1.00" />
<polygon points="428.93,176.02 460.94,176.02 460.94,208.03 428.93,208.03 " style="fill:#ffffff;fill-opacity:1.00" />
<polygon points="428.93,368.04 460.94,368.04 460.94,400.05 428.93,400.05 " style="fill:#ffffff;fill-opacity:1.00" />
<polygon points="428.93,400.05 460.94,400.05 460.94,432.05 428.93,432.05 " style="fill:#f5be99;fill-opacity:1.00" />
<polygon points="428.93,432.05 460.94,432.05 460.94,464.06 428.93,464.06 " style="fill:#f5be99;fill-opacity:1.00" />
<polygon points="428.93,464.06 460.94,464.06 460.94,496.06 428.93,496.06 " style="fill:#b7312c;fill-opacity:1.00" />
<polygon points="428.93,496.06 460.94,496.06 460.94,528.06 428.93,528.06 " style="fill:#b7312c;fill-opacity:1.00" />
<polygon points="428.93,528.06 460.94,528.06 460.94,560.07 428.93,560.07 " style="fill:#c7463a;fill-opacity:1.00" />
<polygon points="428.93,560.07 460.94,560.07 460.94,592.07 428.93,592.07 " style="fill:#c7463a;fill-opacity:1.00" />
<polygon points="428.93,592.07 460.94,592.07 460.94,624.08 428.93,624.08 " style="fill:#b7312c;fill-opacity:1.00" />
<polygon points="428.93,624.08 460.94,624.08 460.94,656.08 428.93,656.08 " style="fill:#b7312c;fill-opacity:1.00" />
<polygon points="428.93,656.08 460.94,656.08 460.94,688.08 428.93,688.08 " style="fill:#b7312c;fill-opacity:1.00" />
<polygon points="428.93,688.08 460.94,688.08 460.94,720.09 428.93,720.09 " style="fill:#f5be99;fill-opacity:1.00" />
<polygon points="428.93,720.09 460.94,720.09 460.94,752.09 428.93,752.09 " style="fill:#b7312c;fill-opacity:1.00" />
<polygon points="428.93,752.09 460.94,752.09 460.94,784.09 428.93,784.09 " style="fill:#ffffff;fill-opacity:1.00" />
<polygon points="428.93,1264.15 460.94,1264.15 460.94,1296.16 428.93,1296.16 " style="fill:#ffffff;fill-opacity:1.00" />
<polygon points="428.93,1296.16 460.94,1296.16 460.94,1328.16 428.93,1328.16 " style="fill:#ffffff;fill-opacity:1.00" />
<polygon points="428.93,1328.16 460.94,1328.16 460.94,1360.16 428.93,1360.16 " style="fill:#a3a28b;fill-opacity:1.00" />
<polygon points="428.93,1360.16 460.94,1360.16 460.94,1392.17 428.93,1392.17 " style="fill:#d8d6b4;fill-opacity:1.00" />
<polygon points="428.93,1392.17 460.94,1392.17 460.94,1424.17 428.93,1424.17 " style="fill:#d8d6b4;fill-opacity:1.00" />
<polygon points="428.93,1424.17 460.94,1424.17 460.94,1456.18 428.93,1456.18 " style="fill:#d8d6b4;fill-opacity:1.00" />
<polygon points="428.93,1456.18 460.94,1456.18 460.94,1488.18 428.93,1488.18 " style="fill:#d8d6b4;fill-opacity:1.00" />
<polygon points="428.93,1488.18 460.94,1488.18 460.94,1520.18 428.93,1520.18 " style="fill:#d8d6b4;fill-opacity:1.00" />
<polygon points="428.93,1520.18 460.94,1520.18 460.94,1552.19 428.93,1552.19 " style="fill:#ffffff;fill-opacity:1.00" />
<polygon points="460.72,-16.00 492.72,-16.00 492.72,16.00 460.72,16.00 " style="fill:#ffffff;fill-opacity:1.00" />
<polygon points="460.72,16.00 492.72,16.00 492.72,48.01 460.72,48.01 " style="fill:#cd2127;fill-opacity:1.00" />
<polygon points="460.72,48.01 492.72,48.01 492.72,80.01 460.72,80.01 " style="fill:#cd2127;fill-opacity:1.00" />
<polygon points="460.72,80.01 492.72,80.01 492.72,112.01 460.72,112.01 " style="fill:#cd2127;fill-opacity:1.00" />
<polygon points="460.72,112.01 492.72,112.01 492.72,144.02 460.72,144.02 " style="fill:#cd2127;fill-opacity:1.00" />
<polygon points="460.72,144.02 492.72,144.02 492.72,176.02 460.72,176.02 " style="fill:#cd2127;fill-opacity:1.00" />
<polygon points="460.72,176.02 492.72,176.02 492.72,208.03 460.72,208.03 " style="fill:#ffffff;fill-opacity:1.00" />
<polygon points="460.72,208.03 492.72,208.03 492.72,240.03 460.72,240.03 " style="fill:#ffffff;fill-opacity:1.00" />
<polygon points="460.72,336.04 492.72,336.04 492.72,368.04 460.72,368.04 " style="fill:#ffffff;fill-opacity:1.00" />
<polygon points="460.72,368.04 492.72,368.04 492.72,400.05 460.72,400.05 " style="fill:#ffffff;fill-opacity:1.00" />
<polygon points="460.72,400.05 492.72,400.05 492.72,432.05 460.72,432.05 " style="fill:#b7312c;fill-opacity:1.00" />
<polygon points="460.72,432.05 492.72,432.05 492.72,464.06 460.72,464.06 " style="fill:#b7312c;fill-opacity:1.00" />
<polygon points="460.72,464.06 492.72,464.06 492.72,496.06 460.72,496.06 " style="fill:#c7463a;fill-opacity:1.00" />
<polygon points="460.72,496.06 492.72,496.06 492.72,528.06 460.72,528.06 " style="fill:#c7463a;fill-opacity:1.00" />
<polygon points="460.72,528.06 492.72,528.06 492.72,560.07 460.72,560.07 " style="fill:#c7463a;fill-opacity:1.00" />
<polygon points="460.72,560.07 492.72,560.07 492.72,592.07 460.72,592.07 " style="fill:#c7463a;fill-opacity:1.00" />
<polygon points="460.72,592.07 492.72,592.07 492.72,624.08 460.72,624.08 " style="fill:#c7463a;fill-opacity:1.00" />
<polygon points="460.72,624.08 492.72,624.08 492.72,656.08 460.72,656.08 " style="fill:#b7312c;fill-opacity:1.00" />
<polygon points="460.72,656.08 492.72,656.08 492.72,688.08 460.72,688.08 " style="fill:#b7312c;fill-opacity:1.00" />
<polygon points="460.72,688.08 492.72,688.08 492.72,720.09 460.72,720.09 " style="fill:#f5be99;fill-opacity:1.00" />
<polygon points="460.72,720.09 492.72,720.09 492.72,752.09 460.72,752.09 " style="fill:#b7312c;fill-opacity:1.00" />
<polygon points="460.72,752.09 492.72,752.09 492.72,784.09 460.72,784.09 " style="fill:#ffffff;fill-opacity:1.00" />
<polygon points="460.72,1008.12 492.72,1008.12 492.72,1040.13 460.72,1040.13 " style="fill:#ffffff;fill-opacity:1.00" />
<polygon points="460.72,1040.13 492.72,1040.13 492.72,1072.13 460.72,1072.13 " style="fill:#ffffff;fill-opacity:1.00" />
<polygon points="460.72,1072.13 492.72,1072.13 492.72,1104.13 460.72,1104.13 " style="fill:#ffffff;fill-opacity:1.00" />
<polygon points="460.72,1104.13 492.72,1104.13 492.72,1136.14 460.72,1136.14 " style="fill:#ffffff;fill-opacity:1.00" />
<polygon points="460.72,1136.14 492.72,1136.14 492.72,1168.14 460.72,1168.14 " style="fill:#ffffff;fill-opacity:1.00" />
<polygon points="460.72,1168.14 492.72,1168.14 492.72,1200.14 460.72,1200.14 " style="fill:#ffffff;fill-opacity:1.00" />
<polygon points="460.72,1200.14 492.72,1200.14 492.72,1232.15 460.72,1232.15 " style="fill:#ffffff;fill-opacity:1.00" />
<polygon points="460.72,1232.15 492.72,1232.15 492.72,1264.15 460.72,1264.15 " style="fill:#ffffff;fill-opacity:1.00" />
<polygon points="460.72,1264.15 492.72,1264.15 492.72,1296.16 460.72,1296.16 " style="fill:#ffffff;fill-opacity:1.00" />
<polygon points="460.72,1296.16 492.72,1296.16 492.72,1328.16 460.72,1328.16 " style="fill:#a3a28b;fill-opacity:1.00" />
<polygon points="460.72,1328.16 492.72,1328.16 492.72,1360.16 460.72,1360.16 " style="fill:#d8d6b4;fill-opacity:1.00" />
<polygon points="460.72,1360.16 492.72,1360.16 492.72,1392.17 460.72,1392.17 " style="fill:#d8d6b4;fill-opacity:1.00" />
<polygon points="460.72,1392.17 492.72,1392.17 492.72,1424.17 460.72,1424.17 " style="fill:#d8d6b4;fill-opacity:1.00" />
<polygon points="460.72,1424.17 492.72,1424.17 492.72,1456.18 460.72,1456.18 " style="fill:#d8d6b4;fill-opacity:1.00" />
<polygon points="460.72,1456.18 492.72,1456.18 492.72,1488.18 460.72,1488.18 " style="fill:#d8d6b4;fill-opacity:1.00" />
<polygon points="460.72,1488.18 492.72,1488.18 492.72,1520.18 460.72,1520.18 " style="fill:#a3a28b;fill-opacity:1.00" />
<polygon points="460.72,1520.18 492.72,1520.18 492.72,1552.19 460.72,1552.19 " style="fill:#ffffff;fill-opacity:1.00" />
<polygon points="492.50,-16.00 524.50,-16.00 524.50,16.00 492.50,16.00 " style="fill:#ffffff;fill-opacity:1.00" />
<polygon points="492.50,16.00 524.50,16.00 524.50,48.01 492.50,48.01 " style="fill:#ed1c24;fill-opacity:1.00" />
<polygon points="492.50,48.01 524.50,48.01 524.50,80.01 492.50,80.01 " style="fill:#ed1c24;fill-opacity:1.00" />
<polygon points="492.50,80.01 524.50,80.01 524.50,112.01 492.50,112.01 " style="fill:#ed1c24;fill-opacity:1.00" />
<polygon points="492.50,112.01 524.50,112.01 524.50,144.02 492.50,144.02 " style="fill:#cd2127;fill-opacity:1.00" />
<polygon points="492.50,144.02 524.50,144.02 524.50,176.02 492.50,176.02 " style="fill:#cd2127;fill-opacity:1.00" />
<polygon points="492.50,176.02 524.50,176.02 524.50,208.03 492.50,208.03 " style="fill:#cd2127;fill-opacity:1.00" />
<polygon points="492.50,208.03 524.50,208.03 524.50,240.03 492.50,240.03 " style="fill:#ffffff;fill-opacity:1.00" />
<polygon points="492.50,240.03 524.50,240.03 524.50,272.03 492.50,272.03 " style="fill:#ffffff;fill-opacity:1.00" />
<polygon points="492.50,304.04 524.50,304.04 524.50,336.04 492.50,336.04 " style="fill:#ffffff;fill-opacity:1.00" />
<polygon points="492.50,336.04 524.50,336.04 524.50,368.04 492.50,368.04 " style="fill:#ffffff;fill-opacity:1.00" />
<polygon points="492.50,368.04 524.50,368.04 524.50,400.05 492.50,400.05 " style="fill:#c7463a;fill-opacity:1.00" />
<polygon points="492.50,400.05 524.50,400.05 524.50,432.05 492.50,432.05 " style="fill:#c7463a;fill-opacity:1.00" />
<polygon points="492.50,432.05 524.50,432.05 524.50,464.06 492.50,464.06 " style="fill:#c7463a;fill-opacity:1.00" />
<polygon points="492.50,464.06 524.50,464.06 524.50,496.06 492.50,496.06 " style="fill:#c7463a;fill-opacity:1.00" />
<polygon points="492.50,496.06 524.50,496.06 524.50,528.06 492.50,528.06 " style="fill:#c7463a;fill-opacity:1.00" />
<polygon points="492.50,528.06 524.50,528.06 524.50,560.07 492.50,560.07 " style="fill:#c7463a;fill-opacity:1.00" />
<polygon points="492.50,560.07 524.50,560.07 524.50,592.07 492.50,592.07 " style="fill:#b7312c;fill-opacity:1.00" />
<polygon points="492.50,592.07 524.50,592.07 524.50,624.08 492.50,624.08 " style="fill:#b7312c;fill-opacity:1.00" />
<polygon points="492.50,624.08 524.50,624.08 524.50,656.08 492.50,656.08 " style="fill:#b7312c;fill-opacity:1.00" />
<polygon points="492.50,656.08 524.50,656.08 524.50,688.08 492.50,688.08 " style="fill:#b7312c;fill-opacity:1.00" />
<polygon points="492.50,688.08 524.50,688.08 524.50,720.09 492.50,720.09 " style="fill:#f5be99;fill-opacity:1.00" />
<polygon points="492.50,720.09 524.50,720.09 524.50,752.09 492.50,752.09 " style="fill:#b7312c;fill-opacity:1.00" />
<polygon points="492.50,752.09 524.50,752.09 524.50,784.09 492.50,784.09 " style="fill:#ffffff;fill-opacity:1.00" />
<polygon points="492.50,784.09 524.50,784.09 524.50,816.10 492.50,816.10 " style="fill:#ffffff;fill-opacity:1.00" />
<polygon points="492.50,816.10 524.50,816.10 524.50,848.10 492.50,848.10 " style="fill:#ffffff;fill-opacity:1.00" />
<polygon points="492.50,848.10 524.50,848.10 524.50,880.11 492.50,880.11 " style="fill:#ffffff;fill-opacity:1.00" />
<polygon points="492.50,880.11 524.50,880.11 524.50,912.11 492.50,912.11 " style="fill:#ffffff;fill-opacity:1.00" />
<polygon points="492.50,912.11 524.50,912.11 524.50,944.11 492.50,944.11 " style="fill:#ffffff;fill-opacity:1.00" />
<polygon points="492.50,944.11 524.50,944.11 524.50,976.12 492.50,976.12 " style="fill:#ffffff;fill-opacity:1.00" />
<polygon points="492.50,976.12 524.50,976.12 524.50,1008.12 492.50,1008.12 " style="fill:#ffffff;fill-opacity:1.00" />
<polygon points="492.50,1008.12 524.50,1008.12 524.50,1040.13 492.50,1040.13 " style="fill:#ffffff;fill-opacity:1.00" />
<polygon points="492.50,1040.13 524.50,1040.13 524.50,1072.13 492.50,1072.13 " style="fill:#a3a28b;fill-opacity:1.00" />
<polygon points="492.50,1072.13 524.50,1072.13 524.50,1104.13 492.50,1104.13 " style="fill:#a3a28b;fill-opacity:1.00" />
<polygon points="492.50,1104.13 524.50,1104.13 524.50,1136.14 492.50,1136.14 " style="fill:#a3a28b;fill-opacity:1.00" />
<polygon points="492.50,1136.14 524.50,1136.14 524.50,1168.14 492.50,1168.14 " style="fill:#a3a28b;fill-opacity:1.00" />
<polygon points="492.50,1168.14 524.50,1168.14 524.50,1200.14 492.50,1200.14 " style="fill:#a3a28b;fill-opacity:1.00" />
<polygon points="492.50,1200.14 524.50,1200.14 524.50,1232.15 492.50,1232.15 " style="fill:#a3a28b;fill-opacity:1.00" />
<polygon points="492.50,1232.15 524.50,1232.15 524.50,1264.15 492.50,1264.15 " style="fill:#a3a28b;fill-opacity:1.00" />
<polygon points="492.50,1264.15 524.50,1264.15 524.50,1296.16 492.50,1296.16 " style="fill:#a3a28b;fill-opacity:1.00" />
<polygon points="492.50,1296.16 524.50,1296.16 524.50,1328.16 492.50,1328.16 " style="fill:#d8d6b4;fill-opacity:1.00" />
<polygon points="492.50,1328.16 524.50,1328.16 524.50,1360.16 492.50,1360.16 " style="fill:#d8d6b4;fill-opacity:1.00" />
<polygon points="492.50,1360.16 524.50,1360.16 524.50,1392.17 492.50,1392.17 " style="fill:#d8d6b4;fill-opacity:1.00" />
<polygon points="492.50,1392.17 524.50,1392.17 524.50,1424.17 492.50,1424.17 " style="fill:#d8d6b4;fill-opacity:1.00" />
<polygon points="492.50,1424.17 524.50,1424.17 524.50,1456.18 492.50,1456.18 " style="fill:#d8d6b4;fill-opacity:1.00" />
<polygon points="492.50,1456.18 524.50,1456.18 524.50,1488.18 492.50,1488.18 " style="fill:#d8d6b4;fill-opacity:1.00" />
<polygon points="492.50,1488.18 524.50,1488.18 524.50,1520.18 492.50,1520.18 " style="fill:#ffffff;fill-opacity:1.00" />
<polygon points="492.50,1520.18 524.50,1520.18 524.50,1552.19 492.50,1552.19 " style="fill:#ffffff;fill-opacity:1.00" />
<polygon points="524.28,-16.00 556.28,-16.00 556.28,16.00 524.28,16.00 " style="fill:#ffffff;fill-opacity:1.00" />
<polygon points="524.28,16.00 556.28,16.00 556.28,48.01 524.28,48.01 " style="fill:#ed1c24;fill-opacity:1.00" />
<polygon points="524.28,48.01 556.28,48.01 556.28,80.01 524.28,80.01 " style="fill:#ed1c24;fill-opacity:1.00" />
<polygon points="524.28,80.01 556.28,80.01 556.28,112.01 524.28,112.01 " style="fill:#ed1c24;fill-opacity:1.00" />
<polygon points="524.28,112.01 556.28,112.01 556.28,144.02 524.28,144.02 " style="fill:#cd2127;fill-opacity:1.00" />
<polygon points="524.28,144.02 556.28,144.02 556.28,176.02 524.28,176.02 " style="fill:#ed1c24;fill-opacity:1.00" />
<polygon points="524.28,176.02 556.28,176.02 556.28,208.03 524.28,208.03 " style="fill:#ed1c24;fill-opacity:1.00" />
<polygon points="524.28,208.03 556.28,208.03 556.28,240.03 524.28,240.03 " style="fill:#cd2127;fill-opacity:1.00" />
<polygon points="524.28,240.03 556.28,240.03 556.28,272.03 524.28,272.03 " style="fill:#ffffff;fill-opacity:1.00" />
<polygon points="524.28,272.03 556.28,272.03 556.28,304.04 524.28,304.04 " style="fill:#ffffff;fill-opacity:1.00" />
<polygon points="524.28,304.04 556.28,304.04 556.28,336.04 524.28,336.04 " style="fill:#ffffff;fill-opacity:1.00" />
<polygon points="524.28,336.04 556.28,336.04 556.28,368.04 524.28,368.04 " style="fill:#b7312c;fill-opacity:1.00" />
<polygon points="524.28,368.04 556.28,368.04 556.28,400.05 524.28,400.05 " style="fill:#c7463a;fill-opacity:1.00" />
<polygon points="524.28,400.05 556.28,400.05 556.28,432.05 524.28,432.05 " style="fill:#c7463a;fill-opacity:1.00" />
<polygon points="524.28,432.05 556.28,432.05 556.28,464.06 524.28,464.06 " style="fill:#c7463a;fill-opacity:1.00" />
<polygon points="524.28,464.06 556.28,464.06 556.28,496.06 524.28,496.06 " style="fill:#c7463a;fill-opacity:1.00" />
<polygon points="524.28,496.06 556.28,496.06 556.28,528.06 524.28,528.06 " style="fill:#b7312c;fill-opacity:1.00" />
<polygon points="524.28,528.06 556.28,528.06 556.28,560.07 524.28,560.07 " style="fill:#b7312c;fill-opacity:1.00" />
<polygon points="524.28,560.07 556.28,560.07 556.28,592.07 524.28,592.07 " style="fill:#b7312c;fill-opacity:1.00" />
<polygon points="524.28,592.07 556.28,592.07 556.28,624.08 524.28,624.08 " style="fill:#b7312c;fill-opacity:1.00" />
<polygon points="524.28,624.08 556.28,624.08 556.28,656.08 524.28,656.08 " style="fill:#b7312c;fill-opacity:1.00" />
<polygon points="524.28,656.08 556.28,656.08 556.28,688.08 524.28,688.08 " style="fill:#b7312c;fill-opacity:1.00" />
<polygon points="524.28,688.08 556.28,688.08 556.28,720.09 524.28,720.09 " style="fill:#f5be99;fill-opacity:1.00" />
<polygon points="524.28,720.09 556.28,720.09 556.28,752.09 524.28,752.09 " style="fill:#f5be99;fill-opacity:1.00" />
<polygon points="524.28,752.09 556.28,752.09 556.28,784.09 524.28,784.09 " style="fill:#7f5221;fill-opacity:1.00" />
<polygon points="524.28,784.09 556.28,784.09 556.28,816.10 524.28,816.10 " style="fill:#e3a87f;fill-opacity:1.00" />
<polygon points="524.28,816.10 556.28,816.10 556.28,848.10 524.28,848.10 " style="fill:#f5be99;fill-opacity:1.00" />
<polygon points="524.28,848.10 556.28,848.10 556.28,880.11 524.28,880.11 " style="fill:#f5be99;fill-opacity:1.00" />
<polygon points="524.28,880.11 556.28,880.11 556.28,912.11 524.28,912.11 " style="fill:#f5be99;fill-opacity:1.00" />
<polygon points="524.28,912.11 556.28,912.11 556.28,944.11 524.28,944.11 " style="fill:#f5be99;fill-opacity:1.00" />
<polygon points="524.28,944.11 556.28,944.11 556.28,976.12 524.28,976.12 " style="fill:#f5be99;fill-opacity:1.00" />
<polygon points="524.28,976.12 556.28,976.12 556.28,1008.12 524.28,1008.12 " style="fill:#f5be99;fill-opacity:1.00" />
<polygon points="524.28,1008.12 556.28,1008.12 556.28,1040.13 524.28,1040.13 " style="fill:#a3a28b;fill-opacity:1.00" />
<polygon points="524.28,1040.13 556.28,1040.13 556.28,1072.13 524.28,1072.13 " style="fill:#a3a28b;fill-opacity:1.00" />
<polygon points="524.28,1072.13 556.28,1072.13 556.28,1104.13 524.28,1104.13 " style="fill:#a3a28b;fill-opacity:1.00" />
<polygon points="524.28,1104.13 556.28,1104.13 556.28,1136.14 524.28,1136.14 " style="fill:#a3a28b;fill-opacity:1.00" />
<polygon points="524.28,1136.14 556.28,1136.14 556.28,1168.14 524.28,1168.14 " style="fill:#d8d6b4;fill-opacity:1.00" />
<polygon points="524.28,1168.14 556.28,1168.14 556.28,1200.14 524.28,1200.14 " style="fill:#d8d6b4;fill-opacity:1.00" />
<polygon points="524.28,1200.14 556.28,1200.14 556.28,1232.15 524.28,1232.15 " style="fill:#d8d6b4;fill-opacity:1.00" />
<polygon points="524.28,1232.15 556.28,1232.15 556.28,1264.15 524.28,1264.15 " style="fill:#d8d6b4;fill-opacity:1.00" />
<polygon points="524.28,1264.15 556.28,1264.15 556.28,1296.16 524.28,1296.16 " style="fill:#d8d6b4;fill-opacity:1.00" />
<polygon points="524.28,1296.16 556.28,1296.16 556.28,1328.16 524.28,1328.16 " style="fill:#d8d6b4;fill-opacity:1.00" />
<polygon points="524.28,1328.16 556.28,1328.16 556.28,1360.16 524.28,1360.16 " style="fill:#d8d6b4;fill-opacity:1.00" />
<polygon points="524.28,1360.16 556.28,1360.16 556.28,1392.17 524.28,1392.17 " style="fill:#d8d6b4;fill-opacity:1.00" />
<polygon points="524.28,1392.17 556.28,1392.17 556.28,1424.17 524.28,1424.17 " style="fill:#d8d6b4;fill-opacity:1.00" />
<polygon points="524.28,1424.17 556.28,1424.17 556.28,1456.18 524.28,1456.18 " style="fill:#d8d6b4;fill-opacity:1.00" />
<polygon points="524.28,1456.18 556.28,1456.18 556.28,1488.18 524.28,1488.18 " style="fill:#a3a28b;fill-opacity:1.00" />
<polygon points="524.28,1488.18 556.28,1488.18 556.28,1520.18 524.28,1520.18 " style="fill:#ffffff;fill-opacity:1.00" />
<polygon points="556.06,-16.00 588.06,-16.00 588.06,16.00 556.06,16.00 " style="fill:#ffffff;fill-opacity:1.00" />
<polygon points="556.06,16.00 588.06,16.00 588.06,48.01 556.06,48.01 " style="fill:#ed1c24;fill-opacity:1.00" />
<polygon points="556.06,48.01 588.06,48.01 588.06,80.01 556.06,80.01 " style="fill:#ed1c24;fill-opacity:1.00" />
<polygon points="556.06,80.01 588.06,80.01 588.06,112.01 556.06,112.01 " style="fill:#ed1c24;fill-opacity:1.00" />
<polygon points="556.06,112.01 588.06,112.01 588.06,144.02 556.06,144.02 " style="fill:#cd2127;fill-opacity:1.00" />
<polygon points="556.06,144.02 588.06,144.02 588.06,176.02 556.06,176.02 " style="fill:#ed1c24;fill-opacity:1.00" />
<polygon points="556.06,176.02 588.06,176.02 588.06,208.03 556.06,208.03 " style="fill:#ed1c24;fill-opacity:1.00" />
<polygon points="556.06,208.03 588.06,208.03 588.06,240.03 556.06,240.03 " style="fill:#ed1c24;fill-opacity:1.00" />
<polygon points="556.06,240.03 588.06,240.03 588.06,272.03 556.06,272.03 " style="fill:#cd2127;fill-opacity:1.00" />
<polygon points="556.06,272.03 588.06,272.03 588.06,304.04 556.06,304.04 " style="fill:#ffffff;fill-opacity:1.00" />
<polygon points="556.06,304.04 588.06,304.04 588.06,336.04 556.06,336.04 " style="fill:#ffffff;fill-opacity:1.00" />
<polygon points="556.06,336.04 588.06,336.04 588.06,368.04 556.06,368.04 " style="fill:#c7463a;fill-opacity:1.00" />
<polygon points="556.06,368.04 588.06,368.04 588.06,400.05 556.06,400.05 " style="fill:#c7463a;fill-opacity:1.00" />
<polygon points="556.06,400.05 588.06,400.05 588.06,432.05 556.06,432.05 " style="fill:#c7463a;fill-opacity:1.00" />
<polygon points="556.06,432.05 588.06,432.05 588.06,464.06 556.06,464.06 " style="fill:#c7463a;fill-opacity:1.00" />
<polygon points="556.06,464.06 588.06,464.06 588.06,496.06 556.06,496.06 " style="fill:#b7312c;fill-opacity:1.00" />
<polygon points="556.06,496.06 588.06,496.06 588.06,528.06 556.06,528.06 " style="fill:#e3a87f;fill-opacity:1.00" />
<polygon points="556.06,528.06 588.06,528.06 588.06,560.07 556.06,560.07 " style="fill:#f5be99;fill-opacity:1.00" />
<polygon points="556.06,560.07 588.06,560.07 588.06,592.07 556.06,592.07 " style="fill:#f5be99;fill-opacity:1.00" />
<polygon points="556.06,592.07 588.06,592.07 588.06,624.08 556.06,624.08 " style="fill:#f5be99;fill-opacity:1.00" />
<polygon points="556.06,624.08 588.06,624.08 588.06,656.08 556.06,656.08 " style="fill:#e3a87f;fill-opacity:1.00" />
<polygon points="556.06,656.08 588.06,656.08 588.06,688.08 556.06,688.08 " style="fill:#e3a87f;fill-opacity:1.00" />
<polygon points="556.06,688.08 588.06,688.08 588.06,720.09 556.06,720.09 " style="fill:#f5be99;fill-opacity:1.00" />
<polygon points="556.06,720.09 588.06,720.09 588.06,752.09 556.06,752.09 " style="fill:#f5be99;fill-opacity:1.00" />
<polygon points="556.06,752.09 588.06,752.09 588.06,784.09 556.06,784.09 " style="fill:#9f6a28;fill-opacity:1.00" />
<polygon points="556.06,784.09 588.06,784.09 588.06,816.10 556.06,816.10 " style="fill:#7f5221;fill-opacity:1.00" />
<polygon points="556.06,816.10 588.06,816.10 588.06,848.10 556.06,848.10 " style="fill:#f5be99;fill-opacity:1.00" />
<polygon points="556.06,848.10 588.06,848.10 588.06,880.11 556.06,880.11 " style="fill:#f5be99;fill-opacity:1.00" />
<polygon points="556.06,880.11 588.06,880.11 588.06,912.11 556.06,912.11 " style="fill:#f5be99;fill-opacity:1.00" />
<polygon points="556.06,912.11 588.06,912.11 588.06,944.11 556.06,944.11 " style="fill:#f5be99;fill-opacity:1.00" />
<polygon points="556.06,944.11 588.06,944.11 588.06,976.12 556.06,976.12 " style="fill:#f5be99;fill-opacity:1.00" />
<polygon points="556.06,976.12 588.06,976.12 588.06,1008.12 556.06,1008.12 " style="fill:#f5be99;fill-opacity:1.00" />
<polygon points="556.06,1008.12 588.06,1008.12 588.06,1040.13 556.06,1040.13 " style="fill:#a3a28b;fill-opacity:1.00" />
<polygon points="556.06,1040.13 588.06,1040.13 588.06,1072.13 556.06,1072.13 " style="fill:#d8d6b4;fill-opacity:1.00" />
<polygon points="556.06,1072.13 588.06,1072.13 588.06,1104.13 556.06,1104.13 " style="fill:#d8d6b4;fill-opacity:1.00" />
<polygon points="556.06,1104.13 588.06,1104.13 588.06,1136.14 556.06,1136.14 " style="fill:#d8d6b4;fill-opacity:1.00" />
<polygon points="556.06,1136.14 588.06,1136.14 588.06,1168.14 556.06,1168.14 " style="fill:#d8d6b4;fill-opacity:1.00" />
<polygon points="556.06,1168.14 588.06,1168.14 588.06,1200.14 556.06,1200.14 " style="fill:#d8d6b4;fill-opacity:1.00" />
<polygon points="556.06,1200.14 588.06,1200.14 588.06,1232.15 556.06,1232.15 " style="fill:#d8d6b4;fill-opacity:1.00" />
<polygon points="556.06,1232.15 588.06,1232.15 588.06,1264.15 556.06,1264.15 " style="fill:#d8d6b4;fill-opacity:1.00" />
<polygon points="556.06,1264.15 588.06,1264.15 588.06,1296.16 556.06,1296.16 " style="fill:#d8d6b4;fill-opacity:1.00" />
<polygon points="556.06,1296.16 588.06,1296.16 588.06,1328.16 556.06,1328.16 " style="fill:#d8d6b4;fill-opacity:1.00" />
<polygon points="556.06,1328.16 588.06,1328.16 588.06,1360.16 556.06,1360.16 " style="fill:#d8d6b4;fill-opacity:1.00" />
<polygon points="556.06,1360.16 588.06,1360.16 588.06,1392.17 556.06,1392.17 " style="fill:#d8d6b4;fill-opacity:1.00" />
<polygon points="556.06,1392.17 588.06,1392.17 588.06,1424.17 556.06,1424.17 " style="fill:#d8d6b4;fill-opacity:1.00" />
<polygon points="556.06,1424.17 588.06,1424.17 588.06,1456.18 556.06,1456.18 " style="fill:#a3a28b;fill-opacity:1.00" />
<polygon points="556.06,1456.18 588.06,1456.18 588.06,1488.18 556.06,1488.18 " style="fill:#ffffff;fill-opacity:1.00" />
<polygon points="556.06,1488.18 588.06,1488.18 588.06,1520.18 556.06,1520.18 " style="fill:#ffffff;fill-opacity:1.00" />
<polygon points="587.84,-16.00 619.84,-16.00 619.84,16.00 587.84,16.00 " style="fill:#ffffff;fill-opacity:1.00" />
<polygon points="587.84,16.00 619.84,16.00 619.84,48.01 587.84,48.01 " style="fill:#ed1c24;fill-opacity:1.00" />
<polygon points="587.84,48.01 619.84,48.01 619.84,80.01 587.84,80.01 " style="fill:#ed1c24;fill-opacity:1.00" />
<polygon points="587.84,80.01 619.84,80.01 619.84,112.01 587.84,112.01 " style="fill:#ed1c24;fill-opacity:1.00" />
<polygon points="587.84,112.01 619.84,112.01 619.84,144.02 587.84,144.02 " style="fill:#cd2127;fill-opacity:1.00" />
<polygon points="587.84,144.02 619.84,144.02 619.84,176.02 587.84,176.02 " style="fill:#ed1c24;fill-opacity:1.00" />
<polygon points="587.84,176.02 619.84,176.02 619.84,208.03 587.84,208.03 " style="fill:#ed1c24;fill-opacity:1.00" />
<polygon points="587.84,208.03 619.84,208.03 619.84,240.03 587.84,240.03 " style="fill:#ed1c24;fill-opacity:1.00" />
<polygon points="587.84,240.03 619.84,240.03 619.84,272.03 587.84,272.03 " style="fill:#ed1c24;fill-opacity:1.00" />
<polygon points="587.84,272.03 619.84,272.03 619.84,304.04 587.84,304.04 " style="fill:#cd2127;fill-opacity:1.00" />
<polygon points="587.84,304.04 619.84,304.04 619.84,336.04 587.84,336.04 " style="fill:#ffffff;fill-opacity:1.00" />
<polygon points="587.84,336.04 619.84,336.04 619.84,368.04 587.84,368.04 " style="fill:#d57759;fill-opacity:1.00" />
<polygon points="587.84,368.04 619.84,368.04 619.84,400.05 587.84,400.05 " style="fill:#c7463a;fill-opacity:1.00" />
<polygon points="587.84,400.05 619.84,400.05 619.84,432.05 587.84,432.05 " style="fill:#c7463a;fill-opacity:1.00" />
<polygon points="587.84,432.05 619.84,432.05 619.84,464.06 587.84,464.06 " style="fill:#b7312c;fill-opacity:1.00" />
<polygon points="587.84,464.06 619.84,464.06 619.84,496.06 587.84,496.06 " style="fill:#e3a87f;fill-opacity:1.00" />
<polygon points="587.84,496.06 619.84,496.06 619.84,528.06 587.84,528.06 " style="fill:#f5be99;fill-opacity:1.00" />
<polygon points="587.84,528.06 619.84,528.06 619.84,560.07 587.84,560.07 " style="fill:#47463a;fill-opacity:1.00" />
<polygon points="587.84,560.07 619.84,560.07 619.84,592.07 587.84,592.07 " style="fill:#f5be99;fill-opacity:1.00" />
<polygon points="587.84,592.07 619.84,592.07 619.84,624.08 587.84,624.08 " style="fill:#f5be99;fill-opacity:1.00" />
<polygon points="587.84,624.08 619.84,624.08 619.84,656.08 587.84,656.08 " style="fill:#f5be99;fill-opacity:1.00" />
<polygon points="587.84,656.08 619.84,656.08 619.84,688.08 587.84,688.08 " style="fill:#f5be99;fill-opacity:1.00" />
<polygon points="587.84,688.08 619.84,688.08 619.84,720.09 587.84,720.09 " style="fill:#f5be99;fill-opacity:1.00" />
<polygon points="587.84,720.09 619.84,720.09 619.84,752.09 587.84,752.09 " style="fill:#9f6a28;fill-opacity:1.00" />
<polygon points="587.84,752.09 619.84,752.09 619.84,784.09 587.84,784.09 " style="fill:#9f6a28;fill-opacity:1.00" />
<polygon points="587.84,784.09 619.84,784.09 619.84,816.10 587.84,816.10 " style="fill:#9f6a28;fill-opacity:1.00" />
<polygon points="587.84,816.10 619.84,816.10 619.84,848.10 587.84,848.10 " style="fill:#f5be99;fill-opacity:1.00" />
<polygon points="587.84,848.10 619.84,848.10 619.84,880.11 587.84,880.11 " style="fill:#f5be99;fill-opacity:1.00" />
<polygon points="587.84,880.11 619.84,880.11 619.84,912.11 587.84,912.11 " style="fill:#f5be99;fill-opacity:1.00" />
<polygon points="587.84,912.11 619.84,912.11 619.84,944.11 587.84,944.11 " style="fill:#f5be99;fill-opacity:1.00" />
<polygon points="587.84,944.11 619.84,944.11 619.84,976.12 587.84,976.12 " style="fill:#e3a87f;fill-opacity:1.00" />
<polygon points="587.84,976.12 619.84,976.12 619.84,1008.12 587.84,1008.12 " style="fill:#f5be99;fill-opacity:1.00" />
<polygon points="587.84,1008.12 619.84,1008.12 619.84,1040.13 587.84,1040.13 " style="fill:#a3a28b;fill-opacity:1.00" />
<polygon points="587.84,1040.13 619.84,1040.13 619.84,1072.13 587.84,1072.13 " style="fill:#d8d6b4;fill-opacity:1.00" />
<polygon points="587.84,1072.13 619.84,1072.13 619.84,1104.13 587.84,1104.13 " style="fill:#d8d6b4;fill-opacity:1.00" />
<polygon points="587.84,1104.13 619.84,1104.13 619.84,1136.14 587.84,1136.14 " style="fill:#d8d6b4;fill-opacity:1.00" />
<polygon points="587.84,1136.14 619.84,1136.14 619.84,1168.14 587.84,1168.14 " style="fill:#d8d6b4;fill-opacity:1.00" />
<polygon points="587.84,1168.14 619.84,1168.14 619.84,1200.14 587.84,1200.14 " style="fill:#d8d6b4;fill-opacity:1.00" />
<polygon points="587.84,1200.14 619.84,1200.14 619.84,1232.15 587.84,1232.15 " style="fill:#d8d6b4;fill-opacity:1.00" />
<polygon points="587.84,1232.15 619.84,1232.15 619.84,1264.15 587.84,1264.15 " style="fill:#d8d6b4;fill-opacity:1.00" />
<polygon points="587.84,1264.15 619.84,1264.15 619.84,1296.16 587.84,1296.16 " style="fill:#d8d6b4;fill-opacity:1.00" />
<polygon points="587.84,1296.16 619.84,1296.16 619.84,1328.16 587.84,1328.16 " style="fill:#d8d6b4;fill-opacity:1.00" />
<polygon points="587.84,1328.16 619.84,1328.16 619.84,1360.16 587.84,1360.16 " style="fill:#d8d6b4;fill-opacity:1.00" />
<polygon points="587.84,1360.16 619.84,1360.16 619.84,1392.17 587.84,1392.17 " style="fill:#d8d6b4;fill-opacity:1.00" />
<polygon points="587.84,1392.17 619.84,1392.17 619.84,1424.17 587.84,1424.17 " style="fill:#a3a28b;fill-opacity:1.00" />
<polygon points="587.84,1424.17 619.84,1424.17 619.84,1456.18 587.84,1456.18 " style="fill:#ffffff;fill-opacity:1.00" />
<polygon points="587.84,1456.18 619.84,1456.18 619.84,1488.18 587.84,1488.18 " style="fill:#ffffff;fill-opacity:1.00" />
<polygon points="619.62,-16.00 651.63,-16.00 651.63,16.00 619.62,16.00 " style="fill:#ffffff;fill-opacity:1.00" />
<polygon points="619.62,16.00 651.63,16.00 651.63,48.01 619.62,48.01 " style="fill:#ed1c24;fill-opacity:1.00" />
<polygon points="619.62,48.01 651.63,48.01 651.63,80.01 619.62,80.01 " style="fill:#ed1c24;fill-opacity:1.00" />
<polygon points="619.62,80.01 651.63,80.01 651.63,112.01 619.62,112.01 " style="fill:#ed1c24;fill-opacity:1.00" />
<polygon points="619.62,112.01 651.63,112.01 651.63,144.02 619.62,144.02 " style="fill:#cd2127;fill-opacity:1.00" />
<polygon points="619.62,144.02 651.63,144.02 651.63,176.02 619.62,176.02 " style="fill:#ed1c24;fill-opacity:1.00" />
<polygon points="619.62,176.02 651.63,176.02 651.63,208.03 619.62,208.03 " style="fill:#ed1c24;fill-opacity:1.00" />
<polygon points="619.62,208.03 651.63,208.03 651.63,240.03 619.62,240.03 " style="fill:#ed1c24;fill-opacity:1.00" />
<polygon points="619.62,240.03 651.63,240.03 651.63,272.03 619.62,272.03 " style="fill:#ed1c24;fill-opacity:1.00" />
<polygon points="619.62,272.03 651.63,272.03 651.63,304.04 619.62,304.04 " style="fill:#ffffff;fill-opacity:1.00" />
<polygon points="619.62,304.04 651.63,304.04 651.63,336.04 619.62,336.04 " style="fill:#ffffff;fill-opacity:1.00" />
<polygon points="619.62,336.04 651.63,336.04 651.63,368.04 619.62,368.04 " style="fill:#d57759;fill-opacity:1.00" />
<polygon points="619.62,368.04 651.63,368.04 651.63,400.05 619.62,400.05 " style="fill:#c7463a;fill-opacity:1.00" />
<polygon points="619.62,400.05 651.63,400.05 651.63,432.05 619.62,432.05 " style="fill:#c7463a;fill-opacity:1.00" />
<polygon points="619.62,432.05 651.63,432.05 651.63,464.06 619.62,464.06 " style="fill:#c7463a;fill-opacity:1.00" />
<polygon points="619.62,464.06 651.63,464.06 651.63,496.06 619.62,496.06 " style="fill:#e3a87f;fill-opacity:1.00" />
<polygon points="619.62,496.06 651.63,496.06 651.63,528.06 619.62,528.06 " style="fill:#f5be99;fill-opacity:1.00" />
<polygon points="619.62,528.06 651.63,528.06 651.63,560.07 619.62,560.07 " style="fill:#f5be99;fill-opacity:1.00" />
<polygon points="619.62,560.07 651.63,560.07 651.63,592.07 619.62,592.07 " style="fill:#f5be99;fill-opacity:1.00" />
<polygon points="619.62,592.07 651.63,592.07 651.63,624.08 619.62,624.08 " style="fill:#f5be99;fill-opacity:1.00" />
<polygon points="619.62,624.08 651.63,624.08 651.63,656.08 619.62,656.08 " style="fill:#b7312c;fill-opacity:1.00" />
<polygon points="619.62,656.08 651.63,656.08 651.63,688.08 619.62,688.08 " style="fill:#b7312c;fill-opacity:1.00" />
<polygon points="619.62,688.08 651.63,688.08 651.63,720.09 619.62,720.09 " style="fill:#f5be99;fill-opacity:1.00" />
<polygon points="619.62,720.09 651.63,720.09 651.63,752.09 619.62,752.09 " style="fill:#e3a87f;fill-opacity:1.00" />
<polygon points="619.62,752.09 651.63,752.09 651.63,784.09 619.62,784.09 " style="fill:#7f5221;fill-opacity:1.00" />
<polygon points="619.62,784.09 651.63,784.09 651.63,816.10 619.62,816.10 " style="fill:#e3a87f;fill-opacity:1.00" />
<polygon points="619.62,816.10 651.63,816.10 651.63,848.10 619.62,848.10 " style="fill:#f5be99;fill-opacity:1.00" />
<polygon points="619.62,848.10 651.63,848.10 651.63,880.11 619.62,880.11 " style="fill:#f5be99;fill-opacity:1.00" />
<polygon points="619.62,880.11 651.63,880.11 651.63,912.11 619.62,912.11 " style="fill:#f5be99;fill-opacity:1.00" />
<polygon points="619.62,912.11 651.63,912.11 651.63,944.11 619.62,944.11 " style="fill:#f5be99;fill-opacity:1.00" />
<polygon points="619.62,944.11 651.63,944.11 651.63,976.12 619.62,976.12 " style="fill:#f5be99;fill-opacity:1.00" />
<polygon points="619.62,976.12 651.63,976.12 651.63,1008.12 619.62,1008.12 " style="fill:#f5be99;fill-opacity:1.00" />
<polygon points="619.62,1008.12 651.63,1008.12 651.63,1040.13 619.62,1040.13 " style="fill:#a3a28b;fill-opacity:1.00" />
<polygon points="619.62,1040.13 651.63,1040.13 651.63,1072.13 619.62,1072.13 " style="fill:#d8d6b4;fill-opacity:1.00" />
<polygon points="619.62,1072.13 651.63,1072.13 651.63,1104.13 619.62,1104.13 " style="fill:#d8d6b4;fill-opacity:1.00" />
<polygon points="619.62,1104.13 651.63,1104.13 651.63,1136.14 619.62,1136.14 " style="fill:#d8d6b4;fill-opacity:1.00" />
<polygon points="619.62,1136.14 651.63,1136.14 651.63,1168.14 619.62,1168.14 " style="fill:#d8d6b4;fill-opacity:1.00" />
<polygon points="619.62,1168.14 651.63,1168.14 651.63,1200.14 619.62,1200.14 " style="fill:#d8d6b4;fill-opacity:1.00" />
<polygon points="619.62,1200.14 651.63,1200.14 651.63,1232.15 619.62,1232.15 " style="fill:#d8d6b4;fill-opacity:1.00" />
<polygon points="619.62,1232.15 651.63,1232.15 651.63,1264.15 619.62,1264.15 " style="fill:#d8d6b4;fill-opacity:1.00" />
<polygon points="619.62,1264.15 651.63,1264.15 651.63,1296.16 619.62,1296.16 " style="fill:#d8d6b4;fill-opacity:1.00" />
<polygon points="619.62,1296.16 651.63,1296.16 651.63,1328.16 619.62,1328.16 " style="fill:#d8d6b4;fill-opacity:1.00" />
<polygon points="619.62,1328.16 651.63,1328.16 651.63,1360.16 619.62,1360.16 " style="fill:#d8d6b4;fill-opacity:1.00" />
<polygon points="619.62,1360.16 651.63,1360.16 651.63,1392.17 619.62,1392.17 " style="fill:#a3a28b;fill-opacity:1.00" />
<polygon points="619.62,1392.17 651.63,1392.17 651.63,1424.17 619.62,1424.17 " style="fill:#ffffff;fill-opacity:1.00" />
<polygon points="619.62,1424.17 651.63,1424.17 651.63,1456.18 619.62,1456.18 " style="fill:#ffffff;fill-opacity:1.00" />
<polygon points="651.40,-16.00 683.41,-16.00 683.41,16.00 651.40,16.00 " style="fill:#ffffff;fill-opacity:1.00" />
<polygon points="651.40,16.00 683.41,16.00 683.41,48.01 651.40,48.01 " style="fill:#ed1c24;fill-opacity:1.00" />
<polygon points="651.40,48.01 683.41,48.01 683.41,80.01 651.40,80.01 " style="fill:#ed1c24;fill-opacity:1.00" />
<polygon points="651.40,80.01 683.41,80.01 683.41,112.01 651.40,112.01 " style="fill:#ed1c24;fill-opacity:1.00" />
<polygon points="651.40,112.01 683.41,112.01 683.41,144.02 651.40,144.02 " style="fill:#cd2127;fill-opacity:1.00" />
<polygon points="651.40,144.02 683.41,144.02 683.41,176.02 651.40,176.02 " style="fill:#ed1c24;fill-opacity:1.00" />
<polygon points="651.40,176.02 683.41,176.02 683.41,208.03 651.40,208.03 " style="fill:#ed1c24;fill-opacity:1.00" />
<polygon points="651.40,208.03 683.41,208.03 683.41,240.03 651.40,240.03 " style="fill:#ed1c24;fill-opacity:1.00" />
<polygon points="651.40,240.03 683.41,240.03 683.41,272.03 651.40,272.03 " style="fill:#ffffff;fill-opacity:1.00" />
<polygon points="651.40,272.03 683.41,272.03 683.41,304.04 651.40,304.04 " style="fill:#ffffff;fill-opacity:1.00" />
<polygon points="651.40,304.04 683.41,304.04 683.41,336.04 651.40,336.04 " style="fill:#ffffff;fill-opacity:1.00" />
<polygon points="651.40,336.04 683.41,336.04 683.41,368.04 651.40,368.04 " style="fill:#ffffff;fill-opacity:1.00" />
<polygon points="651.40,368.04 683.41,368.04 683.41,400.05 651.40,400.05 " style="fill:#d57759;fill-opacity:1.00" />
<polygon points="651.40,400.05 683.41,400.05 683.41,432.05 651.40,432.05 " style="fill:#c7463a;fill-opacity:1.00" />
<polygon points="651.40,432.05 683.41,432.05 683.41,464.06 651.40,464.06 " style="fill:#b7312c;fill-opacity:1.00" />
<polygon points="651.40,464.06 683.41,464.06 683.41,496.06 651.40,496.06 " style="fill:#e3a87f;fill-opacity:1.00" />
<polygon points="651.40,496.06 683.41,496.06 683.41,528.06 651.40,528.06 " style="fill:#f5be99;fill-opacity:1.00" />
<polygon points="651.40,528.06 683.41,528.06 683.41,560.07 651.40,560.07 " style="fill:#47463a;fill-opacity:1.00" />
<polygon points="651.40,560.07 683.41,560.07 683.41,592.07 651.40,592.07 " style="fill:#f5be99;fill-opacity:1.00" />
<polygon points="651.40,592.07 683.41,592.07 683.41,624.08 651.40,624.08 " style="fill:#f5be99;fill-opacity:1.00" />
<polygon points="651.40,624.08 683.41,624.08 683.41,656.08 651.40,656.08 " style="fill:#b7312c;fill-opacity:1.00" />
<polygon points="651.40,656.08 683.41,656.08 683.41,688.08 651.40,688.08 " style="fill:#ffffff;fill-opacity:1.00" />
<polygon points="651.40,688.08 683.41,688.08 683.41,720.09 651.40,720.09 " style="fill:#f5be99;fill-opacity:1.00" />
<polygon points="651.40,720.09 683.41,720.09 683.41,752.09 651.40,752.09 " style="fill:#9f6a28;fill-opacity:1.00" />
<polygon points="651.40,752.09 683.41,752.09 683.41,784.09 651.40,784.09 " style="fill:#9f6a28;fill-opacity:1.00" />
<polygon points="651.40,784.09 683.41,784.09 683.41,816.10 651.40,816.10 " style="fill:#7f5221;fill-opacity:1.00" />
<polygon points="651.40,816.10 683.41,816.10 683.41,848.10 651.40,848.10 " style="fill:#f5be99;fill-opacity:1.00" />
<polygon points="651.40,848.10 683.41,848.10 683.41,880.11 651.40,880.11 " style="fill:#f5be99;fill-opacity:1.00" />
<polygon points="651.40,880.11 683.41,880.11 683.41,912.11 651.40,912.11 " style="fill:#f5be99;fill-opacity:1.00" />
<polygon points="651.40,912.11 683.41,912.11 683.41,944.11 651.40,944.11 " style="fill:#f5be99;fill-opacity:1.00" />
<polygon points="651.40,944.11 683.41,944.11 683.41,976.12 651.40,976.12 " style="fill:#f5be99;fill-opacity:1.00" />
<polygon points="651.40,976.12 683.41,976.12 683.41,1008.12 651.40,1008.12 " style="fill:#f5be99;fill-opacity:1.00" />
<polygon points="651.40,1008.12 683.41,1008.12 683.41,1040.13 651.40,1040.13 " style="fill:#a3a28b;fill-opacity:1.00" />
<polygon points="651.40,1040.13 683.41,1040.13 683.41,1072.13 651.40,1072.13 " style="fill:#d8d6b4;fill-opacity:1.00" />
<polygon points="651.40,1072.13 683.41,1072.13 683.41,1104.13 651.40,1104.13 " style="fill:#d8d6b4;fill-opacity:1.00" />
<polygon points="651.40,1104.13 683.41,1104.13 683.41,1136.14 651.40,1136.14 " style="fill:#d8d6b4;fill-opacity:1.00" />
<polygon points="651.40,1136.14 683.41,1136.14 683.41,1168.14 651.40,1168.14 " style="fill:#d8d6b4;fill-opacity:1.00" />
<polygon points="651.40,1168.14 683.41,1168.14 683.41,1200.14 651.40,1200.14 " style="fill:#d8d6b4;fill-opacity:1.00" />
<polygon points="651.40,1200.14 683.41,1200.14 683.41,1232.15 651.40,1232.15 " style="fill:#d8d6b4;fill-opacity:1.00" />
<polygon points="651.40,1232.15 683.41,1232.15 683.41,1264.15 651.40,1264.15 " style="fill:#d8d6b4;fill-opacity:1.00" />
<polygon points="651.40,1264.15 683.41,1264.15 683.41,1296.16 651.40,1296.16 " style="fill:#d8d6b4;fill-opacity:1.00" />
<polygon points="651.40,1296.16 683.41,1296.16 683.41,1328.16 651.40,1328.16 " style="fill:#d8d6b4;fill-opacity:1.00" />
<polygon points="651.40,1328.16 683.41,1328.16 683.41,1360.16 651.40,1360.16 " style="fill:#a3a28b;fill-opacity:1.00" />
<polygon points="651.40,1360.16 683.41,1360.16 683.41,1392.17 651.40,1392.17 " style="fill:#ffffff;fill-opacity:1.00" />
<polygon points="651.40,1392.17 683.41,1392.17 683.41,1424.17 651.40,1424.17 " style="fill:#ffffff;fill-opacity:1.00" />
<polygon points="683.18,-16.00 715.19,-16.00 715.19,16.00 683.18,16.00 " style="fill:#ffffff;fill-opacity:1.00" />
<polygon points="683.18,16.00 715.19,16.00 715.19,48.01 683.18,48.01 " style="fill:#ed1c24;fill-opacity:1.00" />
<polygon points="683.18,48.01 715.19,48.01 715.19,80.01 683.18,80.01 " style="fill:#ed1c24;fill-opacity:1.00" />
<polygon points="683.18,80.01 715.19,80.01 715.19,112.01 683.18,112.01 " style="fill:#ed1c24;fill-opacity:1.00" />
<polygon points="683.18,112.01 715.19,112.01 715.19,144.02 683.18,144.02 " style="fill:#cd2127;fill-opacity:1.00" />
<polygon points="683.18,144.02 715.19,144.02 715.19,176.02 683.18,176.02 " style="fill:#ed1c24;fill-opacity:1.00" />
<polygon points="683.18,176.02 715.19,176.02 715.19,208.03 683.18,208.03 " style="fill:#ed1c24;fill-opacity:1.00" />
<polygon points="683.18,208.03 715.19,208.03 715.19,240.03 683.18,240.03 " style="fill:#ffffff;fill-opacity:1.00" />
<polygon points="683.18,240.03 715.19,240.03 715.19,272.03 683.18,272.03 " style="fill:#ffffff;fill-opacity:1.00" />
<polygon points="683.18,336.04 715.19,336.04 715.19,368.04 683.18,368.04 " style="fill:#ffffff;fill-opacity:1.00" />
<polygon points="683.18,368.04 715.19,368.04 715.19,400.05 683.18,400.05 " style="fill:#ffffff;fill-opacity:1.00" />
<polygon points="683.18,400.05 715.19,400.05 715.19,432.05 683.18,432.05 " style="fill:#d57759;fill-opacity:1.00" />
<polygon points="683.18,432.05 715.19,432.05 715.19,464.06 683.18,464.06 " style="fill:#c7463a;fill-opacity:1.00" />
<polygon points="683.18,464.06 715.19,464.06 715.19,496.06 683.18,496.06 " style="fill:#c7463a;fill-opacity:1.00" />
<polygon points="683.18,496.06 715.19,496.06 715.19,528.06 683.18,528.06 " style="fill:#c7463a;fill-opacity:1.00" />
<polygon points="683.18,528.06 715.19,528.06 715.19,560.07 683.18,560.07 " style="fill:#c7463a;fill-opacity:1.00" />
<polygon points="683.18,560.07 715.19,560.07 715.19,592.07 683.18,592.07 " style="fill:#c7463a;fill-opacity:1.00" />
<polygon points="683.18,592.07 715.19,592.07 715.19,624.08 683.18,624.08 " style="fill:#c7463a;fill-opacity:1.00" />
<polygon points="683.18,624.08 715.19,624.08 715.19,656.08 683.18,656.08 " style="fill:#c7463a;fill-opacity:1.00" />
<polygon points="683.18,656.08 715.19,656.08 715.19,688.08 683.18,688.08 " style="fill:#ffffff;fill-opacity:1.00" />
<polygon points="683.18,688.08 715.19,688.08 715.19,720.09 683.18,720.09 " style="fill:#f5be99;fill-opacity:1.00" />
<polygon points="683.18,720.09 715.19,720.09 715.19,752.09 683.18,752.09 " style="fill:#ffffff;fill-opacity:1.00" />
<polygon points="683.18,752.09 715.19,752.09 715.19,784.09 683.18,784.09 " style="fill:#9f6a28;fill-opacity:1.00" />
<polygon points="683.18,784.09 715.19,784.09 715.19,816.10 683.18,816.10 " style="fill:#9f6a28;fill-opacity:1.00" />
<polygon points="683.18,816.10 715.19,816.10 715.19,848.10 683.18,848.10 " style="fill:#ffffff;fill-opacity:1.00" />
<polygon points="683.18,848.10 715.19,848.10 715.19,880.11 683.18,880.11 " style="fill:#ffffff;fill-opacity:1.00" />
<polygon points="683.18,880.11 715.19,880.11 715.19,912.11 683.18,912.11 " style="fill:#ffffff;fill-opacity:1.00" />
<polygon points="683.18,912.11 715.19,912.11 715.19,944.11 683.18,944.11 " style="fill:#ffffff;fill-opacity:1.00" />
<polygon points="683.18,944.11 715.19,944.11 715.19,976.12 683.18,976.12 " style="fill:#ffffff;fill-opacity:1.00" />
<polygon points="683.18,976.12 715.19,976.12 715.19,1008.12 683.18,1008.12 " style="fill:#ffffff;fill-opacity:1.00" />
<polygon points="683.18,1008.12 715.19,1008.12 715.19,1040.13 683.18,1040.13 " style="fill:#ffffff;fill-opacity:1.00" />
<polygon points="683.18,1040.13 715.19,1040.13 715.19,1072.13 683.18,1072.13 " style="fill:#ffffff;fill-opacity:1.00" />
<polygon points="683.18,1072.13 715.19,1072.13 715.19,1104.13 683.18,1104.13 " style="fill:#ffffff;fill-opacity:1.00" />
<polygon points="683.18,1104.13 715.19,1104.13 715.19,1136.14 683.18,1136.14 " style="fill:#ffffff;fill-opacity:1.00" />
<polygon points="683.18,1136.14 715.19,1136.14 715.19,1168.14 683.18,1168.14 " style="fill:#ffffff;fill-opacity:1.00" />
<polygon points="683.18,1168.14 715.19,1168.14 715.19,1200.14 683.18,1200.14 " style="fill:#ffffff;fill-opacity:1.00" />
<polygon points="683.18,1200.14 715.19,1200.14 715.19,1232.15 683.18,1232.15 " style="fill:#ffffff;fill-opacity:1.00" />
<polygon points="683.18,1232.15 715.19,1232.15 715.19,1264.15 683.18,1264.15 " style="fill:#ffffff;fill-opacity:1.00" />
<polygon points="683.18,1264.15 715.19,1264.15 715.19,1296.16 683.18,1296.16 " style="fill:#ffffff;fill-opacity:1.00" />
<polygon points="683.18,1296.16 715.19,1296.16 715.19,1328.16 683.18,1328.16 " style="fill:#ffffff;fill-opacity:1.00" />
<polygon points="683.18,1328.16 715.19,1328.16 715.19,1360.16 683.18,1360.16 " style="fill:#ffffff;fill-opacity:1.00" />
<polygon points="683.18,1360.16 715.19,1360.16 715.19,1392.17 683.18,1392.17 " style="fill:#ffffff;fill-opacity:1.00" />
<polygon points="714.97,-16.00 746.97,-16.00 746.97,16.00 714.97,16.00 " style="fill:#ffffff;fill-opacity:1.00" />
<polygon points="714.97,16.00 746.97,16.00 746.97,48.01 714.97,48.01 " style="fill:#ff666d;fill-opacity:1.00" />
<polygon points="714.97,48.01 746.97,48.01 746.97,80.01 714.97,80.01 " style="fill:#ed1c24;fill-opacity:1.00" />
<polygon points="714.97,80.01 746.97,80.01 746.97,112.01 714.97,112.01 " style="fill:#ed1c24;fill-opacity:1.00" />
<polygon points="714.97,112.01 746.97,112.01 746.97,144.02 714.97,144.02 " style="fill:#cd2127;fill-opacity:1.00" />
<polygon points="714.97,144.02 746.97,144.02 746.97,176.02 714.97,176.02 " style="fill:#ed1c24;fill-opacity:1.00" />
<polygon points="714.97,176.02 746.97,176.02 746.97,208.03 714.97,208.03 " style="fill:#ffffff;fill-opacity:1.00" />
<polygon points="714.97,208.03 746.97,208.03 746.97,240.03 714.97,240.03 " style="fill:#ffffff;fill-opacity:1.00" />
<polygon points="714.97,368.04 746.97,368.04 746.97,400.05 714.97,400.05 " style="fill:#ffffff;fill-opacity:1.00" />
<polygon points="714.97,400.05 746.97,400.05 746.97,432.05 714.97,432.05 " style="fill:#f5be99;fill-opacity:1.00" />
<polygon points="714.97,432.05 746.97,432.05 746.97,464.06 714.97,464.06 " style="fill:#f5be99;fill-opacity:1.00" />
<polygon points="714.97,464.06 746.97,464.06 746.97,496.06 714.97,496.06 " style="fill:#ffffff;fill-opacity:1.00" />
<polygon points="714.97,496.06 746.97,496.06 746.97,528.06 714.97,528.06 " style="fill:#ffffff;fill-opacity:1.00" />
<polygon points="714.97,528.06 746.97,528.06 746.97,560.07 714.97,560.07 " style="fill:#ffffff;fill-opacity:1.00" />
<polygon points="714.97,560.07 746.97,560.07 746.97,592.07 714.97,592.07 " style="fill:#ffffff;fill-opacity:1.00" />
<polygon points="714.97,592.07 746.97,592.07 746.97,624.08 714.97,624.08 " style="fill:#ffffff;fill-opacity:1.00" />
<polygon points="714.97,624.08 746.97,624.08 746.97,656.08 714.97,656.08 " style="fill:#ffffff;fill-opacity:1.00" />
<polygon points="714.97,656.08 746.97,656.08 746.97,688.08 714.97,688.08 " style="fill:#ffffff;fill-opacity:1.00" />
<polygon points="714.97,688.08 746.97,688.08 746.97,720.09 714.97,720.09 " style="fill:#f5be99;fill-opacity:1.00" />
<polygon points="714.97,720.09 746.97,720.09 746.97,752.09 714.97,752.09 " style="fill:#ffffff;fill-opacity:1.00" />
<polygon points="714.97,752.09 746.97,752.09 746.97,784.09 714.97,784.09 " style="fill:#ffffff;fill-opacity:1.00" />
<polygon points="714.97,784.09 746.97,784.09 746.97,816.10 714.97,816.10 " style="fill:#ffffff;fill-opacity:1.00" />
<polygon points="714.97,816.10 746.97,816.10 746.97,848.10 714.97,848.10 " style="fill:#ffffff;fill-opacity:1.00" />
<polygon points="746.75,-16.00 778.75,-16.00 778.75,16.00 746.75,16.00 " style="fill:#ffffff;fill-opacity:1.00" />
<polygon points="746.75,16.00 778.75,16.00 778.75,48.01 746.75,48.01 " style="fill:#ffffff;fill-opacity:1.00" />
<polygon points="746.75,48.01 778.75,48.01 778.75,80.01 746.75,80.01 " style="fill:#ff666d;fill-opacity:1.00" />
<polygon points="746.75,80.01 778.75,80.01 778.75,112.01 746.75,112.01 " style="fill:#ed1c24;fill-opacity:1.00" />
<polygon points="746.75,112.01 778.75,112.01 778.75,144.02 746.75,144.02 " style="fill:#cd2127;fill-opacity:1.00" />
<polygon points="746.75,144.02 778.75,144.02 778.75,176.02 746.75,176.02 " style="fill:#ffffff;fill-opacity:1.00" />
<polygon points="746.75,176.02 778.75,176.02 778.75,208.03 746.75,208.03 " style="fill:#ffffff;fill-opacity:1.00" />
<polygon points="746.75,304.04 778.75,304.04 778.75,336.04 746.75,336.04 " style="fill:#ffffff;fill-opacity:1.00" />
<polygon points="746.75,336.04 778.75,336.04 778.75,368.04 746.75,368.04 " style="fill:#ffffff;fill-opacity:1.00" />
<polygon points="746.75,368.04 778.75,368.04 778.75,400.05 746.75,400.05 " style="fill:#ffffff;fill-opacity:1.00" />
<polygon points="746.75,400.05 778.75,400.05 778.75,432.05 746.75,432.05 " style="fill:#f5be99;fill-opacity:1.00" />
<polygon points="746.75,432.05 778.75,432.05 778.75,464.06 746.75,464.06 " style="fill:#ffffff;fill-opacity:1.00" />
<polygon points="746.75,464.06 778.75,464.06 778.75,496.06 746.75,496.06 " style="fill:#f5be99;fill-opacity:1.00" />
<polygon points="746.75,496.06 778.75,496.06 778.75,528.06 746.75,528.06 " style="fill:#ffffff;fill-opacity:1.00" />
<polygon points="746.75,528.06 778.75,528.06 778.75,560.07 746.75,560.07 " style="fill:#ffffff;fill-opacity:1.00" />
<polygon points="746.75,560.07 778.75,560.07 778.75,592.07 746.75,592.07 " style="fill:#ffffff;fill-opacity:1.00" />
<polygon points="746.75,592.07 778.75,592.07 778.75,624.08 746.75,624.08 " style="fill:#ffffff;fill-opacity:1.00" />
<polygon points="746.75,624.08 778.75,624.08 778.75,656.08 746.75,656.08 " style="fill:#ffffff;fill-opacity:1.00" />
<polygon points="746.75,656.08 778.75,656.08 778.75,688.08 746.75,688.08 " style="fill:#f5be99;fill-opacity:1.00" />
<polygon points="746.75,688.08 778.75,688.08 778.75,720.09 746.75,720.09 " style="fill:#ffffff;fill-opacity:1.00" />
<polygon points="746.75,720.09 778.75,720.09 778.75,752.09 746.75,752.09 " style="fill:#ffffff;fill-opacity:1.00" />
<polygon points="778.53,16.00 810.53,16.00 810.53,48.01 778.53,48.01 " style="fill:#ffffff;fill-opacity:1.00" />
<polygon points="778.53,48.01 810.53,48.01 810.53,80.01 778.53,80.01 " style="fill:#ffffff;fill-opacity:1.00" />
<polygon points="778.53,80.01 810.53,80.01 810.53,112.01 778.53,112.01 " style="fill:#ff666d;fill-opacity:1.00" />
<polygon points="778.53,112.01 810.53,112.01 810.53,144.02 778.53,144.02 " style="fill:#ffffff;fill-opacity:1.00" />
<polygon points="778.53,144.02 810.53,144.02 810.53,176.02 778.53,176.02 " style="fill:#ffffff;fill-opacity:1.00" />
<polygon points="778.53,304.04 810.53,304.04 810.53,336.04 778.53,336.04 " style="fill:#ffffff;fill-opacity:1.00" />
<polygon points="778.53,336.04 810.53,336.04 810.53,368.04 778.53,368.04 " style="fill:#f5be99;fill-opacity:1.00" />
<polygon points="778.53,368.04 810.53,368.04 810.53,400.05 778.53,400.05 " style="fill:#f5be99;fill-opacity:1.00" />
<polygon points="778.53,400.05 810.53,400.05 810.53,432.05 778.53,432.05 " style="fill:#ffffff;fill-opacity:1.00" />
<polygon points="778.53,432.05 810.53,432.05 810.53,464.06 778.53,464.06 " style="fill:#ffffff;fill-opacity:1.00" />
<polygon points="778.53,464.06 810.53,464.06 810.53,496.06 778.53,496.06 " style="fill:#ffffff;fill-opacity:1.00" />
<polygon points="778.53,496.06 810.53,496.06 810.53,528.06 778.53,528.06 " style="fill:#f5be99;fill-opacity:1.00" />
<polygon points="778.53,528.06 810.53,528.06 810.53,560.07 778.53,560.07 " style="fill:#f5be99;fill-opacity:1.00" />
<polygon points="778.53,560.07 810.53,560.07 810.53,592.07 778.53,592.07 " style="fill:#f5be99;fill-opacity:1.00" />
<polygon points="778.53,592.07 810.53,592.07 810.53,624.08 778.53,624.08 " style="fill:#f5be99;fill-opacity:1.00" />
<polygon points="778.53,624.08 810.53,624.08 810.53,656.08 778.53,656.08 " style="fill:#f5be99;fill-opacity:1.00" />
<polygon points="778.53,656.08 810.53,656.08 810.53,688.08 778.53,688.08 " style="fill:#ffffff;fill-opacity:1.00" />
<polygon points="778.53,688.08 810.53,688.08 810.53,720.09 778.53,720.09 " style="fill:#ffffff;fill-opacity:1.00" />
<polygon points="810.31,48.01 842.31,48.01 842.31,80.01 810.31,80.01 " style="fill:#ffffff;fill-opacity:1.00" />
<polygon points="810.31,80.01 842.31,80.01 842.31,112.01 810.31,112.01 " style="fill:#ffffff;fill-opacity:1.00" />
<polygon points="810.31,112.01 842.31,112.01 842.31,144.02 810.31,144.02 " style="fill:#ffffff;fill-opacity:1.00" />
<polygon points="810.31,304.04 842.31,304.04 842.31,336.04 810.31,336.04 " style="fill:#ffffff;fill-opacity:1.00" />
<polygon points="810.31,336.04 842.31,336.04 842.31,368.04 810.31,368.04 " style="fill:#ffffff;fill-opacity:1.00" />
<polygon points="810.31,368.04 842.31,368.04 842.31,400.05 810.31,400.05 " style="fill:#ffffff;fill-opacity:1.00" />
<polygon points="810.31,400.05 842.31,400.05 842.31,432.05 810.31,432.05 " style="fill:#ffffff;fill-opacity:1.00" />
<polygon points="810.31,464.06 842.31,464.06 842.31,496.06 810.31,496.06 " style="fill:#ffffff;fill-opacity:1.00" />
<polygon points="810.31,496.06 842.31,496.06 842.31,528.06 810.31,528.06 " style="fill:#ffffff;fill-opacity:1.00" />
<polygon points="810.31,528.06 842.31,528.06 842.31,560.07 810.31,560.07 " style="fill:#ffffff;fill-opacity:1.00" />
<polygon points="810.31,560.07 842.31,560.07 842.31,592.07 810.31,592.07 " style="fill:#ffffff;fill-opacity:1.00" />
<polygon points="810.31,592.07 842.31,592.07 842.31,624.08 810.31,624.08 " style="fill:#ffffff;fill-opacity:1.00" />
<polygon points="810.31,624.08 842.31,624.08 842.31,656.08 810.31,656.08 " style="fill:#ffffff;fill-opacity:1.00" />
<polygon points="810.31,656.08 842.31,656.08 842.31,688.08 810.31,688.08 " style="fill:#ffffff;fill-opacity:1.00" />
</svg>
