<svg xmlns="http://www.w3.org/2000/svg" version="1.1">
<polygon points="15.78,1264.00 47.78,1264.00 47.78,1296.00 15.78,1296.00 " style="fill:#d8d6b4;fill-opacity:1.00" />
<polygon points="15.78,1360.00 47.78,1360.00 47.78,1392.00 15.78,1392.00 " style="fill:#d8d6b4;fill-opacity:1.00" />
<polygon points="15.78,1456.00 47.78,1456.00 47.78,1488.00 15.78,1488.00 " style="fill:#d8d6b4;fill-opacity:1.00" />
<polygon points="79.33,1328.00 111.33,1328.00 111.33,1360.00 79.33,1360.00 " style="fill:#d8d6b4;fill-opacity:1.00" />
<polygon points="79.33,1360.00 111.33,1360.00 111.33,1392.00 79.33,1392.00 " style="fill:#d8d6b4;fill-opacity:1.00" />
<polygon points="79.33,1392.00 111.33,1392.00 111.33,1424.00 79.33,1424.00 " style="fill:#a3a28b;fill-opacity:1.00" />
<polygon points="79.33,1520.00 111.33,1520.00 111.33,1552.00 79.33,1552.00 " style="fill:#d8d6b4;fill-opacity:1.00" />
<polygon points="111.11,1264.00 143.11,1264.00 143.11,1296.00 111.11,1296.00 " style="fill:#d8d6b4;fill-opacity:1.00" />
<polygon points="111.11,1328.00 143.11,1328.00 143.11,1360.00 111.11,1360.00 " style="fill:#d8d6b4;fill-opacity:1.00" />
<polygon points="111.11,1360.00 143.11,1360.00 143.11,1392.00 111.11,1392.00 " style="fill:#d8d6b4;fill-opacity:1.00" />
<polygon points="111.11,1392.00 143.11,1392.00 143.11,1424.00 111.11,1424.00 " style="fill:#d8d6b4;fill-opacity:1.00" />
<polygon points="111.11,1424.00 143.11,1424.00 143.11,1456.00 111.11,1456.00 " style="fill:#a3a28b;fill-opacity:1.00" />
<polygon points="142.89,1360.00 174.89,1360.00 174.89,1392.00 142.89,1392.00 " style="fill:#d8d6b4;fill-opacity:1.00" />
<polygon points="142.89,1392.00 174.89,1392.00 174.89,1424.00 142.89,1424.00 " style="fill:#d8d6b4;fill-opacity:1.00" />
<polygon points="142.89,1424.00 174.89,1424.00 174.89,1456.00 142.89,1456.00 " style="fill:#d8d6b4;fill-opacity:1.00" />
<polygon points="142.89,1456.00 174.89,1456.00 174.89,1488.00 142.89,1488.00 " style="fill:#a3a28b;fill-opacity:1.00" />
<polygon points="174.66,496.00 206.66,496.00 206.66,528.00 174.66,528.00 " style="fill:#b7312c;fill-opacity:1.00" />
<polygon points="174.66,528.00 206.66,528.00 206.66,560.00 174.66,560.00 " style="fill:#b7312c;fill-opacity:1.00" />
<polygon points="174.66,1296.00 206.66,1296.00 206.66,1328.00 174.66,1328.00 " style="fill:#d8d6b4;fill-opacity:1.00" />
<polygon points="174.66,1360.00 206.66,1360.00 206.66,1392.00 174.66,1392.00 " style="fill:#d8d6b4;fill-opacity:1.00" />
<polygon points="174.66,1392.00 206.66,1392.00 206.66,1424.00 174.66,1424.00 " style="fill:#d8d6b4;fill-opacity:1.00" />
<polygon points="174.66,1424.00 206.66,1424.00 206.66,1456.00 174.66,1456.00 " style="fill:#d8d6b4;fill-opacity:1.00" />
<polygon points="174.66,1456.00 206.66,1456.00 206.66,1488.00 174.66,1488.00 " style="fill:#a3a28b;fill-opacity:1.00" />
<polygon points="174.66,1552.00 206.66,1552.00 206.66,1584.00 174.66,1584.00 " style="fill:#d8d6b4;fill-opacity:1.00" />
<polygon points="206.44,464.00 238.44,464.00 238.44,496.00 206.44,496.00 " style="fill:#d57759;fill-opacity:1.00" />
<polygon points="206.44,496.00 238.44,496.00 238.44,528.00 206.44,528.00 " style="fill:#b7312c;fill-opacity:1.00" />
<polygon points="206.44,528.00 238.44,528.00 238.44,560.00 206.44,560.00 " style="fill:#c7463a;fill-opacity:1.00" />
<polygon points="206.44,560.00 238.44,560.00 238.44,592.00 206.44,592.00 " style="fill:#c7463a;fill-opacity:1.00" />
<polygon points="206.44,1232.00 238.44,1232.00 238.44,1264.00 206.44,1264.00 " style="fill:#d8d6b4;fill-opacity:1.00" />
<polygon points="206.44,1360.00 238.44,1360.00 238.44,1392.00 206.44,1392.00 " style="fill:#d8d6b4;fill-opacity:1.00" />
<polygon points="206.44,1392.00 238.44,1392.00 238.44,1424.00 206.44,1424.00 " style="fill:#d8d6b4;fill-opacity:1.00" />
<polygon points="206.44,1424.00 238.44,1424.00 238.44,1456.00 206.44,1456.00 " style="fill:#a3a28b;fill-opacity:1.00" />
<polygon points="238.22,400.00 270.22,400.00 270.22,432.00 238.22,432.00 " style="fill:#d57759;fill-opacity:1.00" />
<polygon points="238.22,432.00 270.22,432.00 270.22,464.00 238.22,464.00 " style="fill:#d57759;fill-opacity:1.00" />
<polygon points="238.22,464.00 270.22,464.00 270.22,496.00 238.22,496.00 " style="fill:#b7312c;fill-opacity:1.00" />
<polygon points="238.22,496.00 270.22,496.00 270.22,528.00 238.22,528.00 " style="fill:#c7463a;fill-opacity:1.00" />
<polygon points="238.22,528.00 270.22,528.00 270.22,560.00 238.22,560.00 " style="fill:#c7463a;fill-opacity:1.00" />
<polygon points="238.22,560.00 270.22,560.00 270.22,592.00 238.22,592.00 " style="fill:#c7463a;fill-opacity:1.00" />
<polygon points="238.22,592.00 270.22,592.00 270.22,624.00 238.22,624.00 " style="fill:#c7463a;fill-opacity:1.00" />
<polygon points="238.22,1360.00 270.22,1360.00 270.22,1392.00 238.22,1392.00 " style="fill:#a3a28b;fill-opacity:1.00" />
<polygon points="238.22,1392.00 270.22,1392.00 270.22,1424.00 238.22,1424.00 " style="fill:#a3a28b;fill-opacity:1.00" />
<polygon points="270.00,432.00 302.00,432.00 302.00,464.00 270.00,464.00 " style="fill:#d57759;fill-opacity:1.00" />
<polygon points="270.00,464.00 302.00,464.00 302.00,496.00 270.00,496.00 " style="fill:#c7463a;fill-opacity:1.00" />
<polygon points="270.00,496.00 302.00,496.00 302.00,528.00 270.00,528.00 " style="fill:#c7463a;fill-opacity:1.00" />
<polygon points="270.00,528.00 302.00,528.00 302.00,560.00 270.00,560.00 " style="fill:#c7463a;fill-opacity:1.00" />
<polygon points="270.00,560.00 302.00,560.00 302.00,592.00 270.00,592.00 " style="fill:#c7463a;fill-opacity:1.00" />
<polygon points="270.00,592.00 302.00,592.00 302.00,624.00 270.00,624.00 " style="fill:#c7463a;fill-opacity:1.00" />
<polygon points="270.00,624.00 302.00,624.00 302.00,656.00 270.00,656.00 " style="fill:#c7463a;fill-opacity:1.00" />
<polygon points="270.00,656.00 302.00,656.00 302.00,688.00 270.00,688.00 " style="fill:#c7463a;fill-opacity:1.00" />
<polygon points="270.00,1296.00 302.00,1296.00 302.00,1328.00 270.00,1328.00 " style="fill:#d8d6b4;fill-opacity:1.00" />
<polygon points="270.00,1328.00 302.00,1328.00 302.00,1360.00 270.00,1360.00 " style="fill:#d8d6b4;fill-opacity:1.00" />
<polygon points="270.00,1360.00 302.00,1360.00 302.00,1392.00 270.00,1392.00 " style="fill:#d8d6b4;fill-opacity:1.00" />
<polygon points="270.00,1392.00 302.00,1392.00 302.00,1424.00 270.00,1424.00 " style="fill:#a3a28b;fill-opacity:1.00" />
<polygon points="270.00,1424.00 302.00,1424.00 302.00,1456.00 270.00,1456.00 " style="fill:#a3a28b;fill-opacity:1.00" />
<polygon points="270.00,1520.00 302.00,1520.00 302.00,1552.00 270.00,1552.00 " style="fill:#d8d6b4;fill-opacity:1.00" />
<polygon points="301.77,464.00 333.77,464.00 333.77,496.00 301.77,496.00 " style="fill:#b7312c;fill-opacity:1.00" />
<polygon points="301.77,496.00 333.77,496.00 333.77,528.00 301.77,528.00 " style="fill:#c7463a;fill-opacity:1.00" />
<polygon points="301.77,528.00 333.77,528.00 333.77,560.00 301.77,560.00 " style="fill:#c7463a;fill-opacity:1.00" />
<polygon points="301.77,560.00 333.77,560.00 333.77,592.00 301.77,592.00 " style="fill:#c7463a;fill-opacity:1.00" />
<polygon points="301.77,592.00 333.77,592.00 333.77,624.00 301.77,624.00 " style="fill:#c7463a;fill-opacity:1.00" />
<polygon points="301.77,624.00 333.77,624.00 333.77,656.00 301.77,656.00 " style="fill:#c7463a;fill-opacity:1.00" />
<polygon points="301.77,656.00 333.77,656.00 333.77,688.00 301.77,688.00 " style="fill:#c7463a;fill-opacity:1.00" />
<polygon points="301.77,688.00 333.77,688.00 333.77,720.00 301.77,720.00 " style="fill:#b7312c;fill-opacity:1.00" />
<polygon points="301.77,1200.00 333.77,1200.00 333.77,1232.00 301.77,1232.00 " style="fill:#d8d6b4;fill-opacity:1.00" />
<polygon points="301.77,1264.00 333.77,1264.00 333.77,1296.00 301.77,1296.00 " style="fill:#d8d6b4;fill-opacity:1.00" />
<polygon points="301.77,1296.00 333.77,1296.00 333.77,1328.00 301.77,1328.00 " style="fill:#d8d6b4;fill-opacity:1.00" />
<polygon points="301.77,1328.00 333.77,1328.00 333.77,1360.00 301.77,1360.00 " style="fill:#d8d6b4;fill-opacity:1.00" />
<polygon points="301.77,1360.00 333.77,1360.00 333.77,1392.00 301.77,1392.00 " style="fill:#d8d6b4;fill-opacity:1.00" />
<polygon points="301.77,1392.00 333.77,1392.00 333.77,1424.00 301.77,1424.00 " style="fill:#a3a28b;fill-opacity:1.00" />
<polygon points="301.77,1424.00 333.77,1424.00 333.77,1456.00 301.77,1456.00 " style="fill:#a3a28b;fill-opacity:1.00" />
<polygon points="301.77,1456.00 333.77,1456.00 333.77,1488.00 301.77,1488.00 " style="fill:#d8d6b4;fill-opacity:1.00" />
<polygon points="333.55,496.00 365.55,496.00 365.55,528.00 333.55,528.00 " style="fill:#b7312c;fill-opacity:1.00" />
<polygon points="333.55,528.00 365.55,528.00 365.55,560.00 333.55,560.00 " style="fill:#c7463a;fill-opacity:1.00" />
<polygon points="333.55,560.00 365.55,560.00 365.55,592.00 333.55,592.00 " style="fill:#c7463a;fill-opacity:1.00" />
<polygon points="333.55,592.00 365.55,592.00 365.55,624.00 333.55,624.00 " style="fill:#c7463a;fill-opacity:1.00" />
<polygon points="333.55,624.00 365.55,624.00 365.55,656.00 333.55,656.00 " style="fill:#c7463a;fill-opacity:1.00" />
<polygon points="333.55,656.00 365.55,656.00 365.55,688.00 333.55,688.00 " style="fill:#b7312c;fill-opacity:1.00" />
<polygon points="333.55,688.00 365.55,688.00 365.55,720.00 333.55,720.00 " style="fill:#b7312c;fill-opacity:1.00" />
<polygon points="333.55,1264.00 365.55,1264.00 365.55,1296.00 333.55,1296.00 " style="fill:#d8d6b4;fill-opacity:1.00" />
<polygon points="333.55,1296.00 365.55,1296.00 365.55,1328.00 333.55,1328.00 " style="fill:#d8d6b4;fill-opacity:1.00" />
<polygon points="333.55,1328.00 365.55,1328.00 365.55,1360.00 333.55,1360.00 " style="fill:#d8d6b4;fill-opacity:1.00" />
<polygon points="333.55,1360.00 365.55,1360.00 365.55,1392.00 333.55,1392.00 " style="fill:#a3a28b;fill-opacity:1.00" />
<polygon points="333.55,1424.00 365.55,1424.00 365.55,1456.00 333.55,1456.00 " style="fill:#a3a28b;fill-opacity:1.00" />
<polygon points="333.55,1456.00 365.55,1456.00 365.55,1488.00 333.55,1488.00 " style="fill:#d8d6b4;fill-opacity:1.00" />
<polygon points="333.55,1488.00 365.55,1488.00 365.55,1520.00 333.55,1520.00 " style="fill:#d8d6b4;fill-opacity:1.00" />
<polygon points="365.33,528.00 397.33,528.00 397.33,560.00 365.33,560.00 " style="fill:#b7312c;fill-opacity:1.00" />
<polygon points="365.33,560.00 397.33,560.00 397.33,592.00 365.33,592.00 " style="fill:#c7463a;fill-opacity:1.00" />
<polygon points="365.33,592.00 397.33,592.00 397.33,624.00 365.33,624.00 " style="fill:#c7463a;fill-opacity:1.00" />
<polygon points="365.33,624.00 397.33,624.00 397.33,656.00 365.33,656.00 " style="fill:#b7312c;fill-opacity:1.00" />
<polygon points="365.33,656.00 397.33,656.00 397.33,688.00 365.33,688.00 " style="fill:#b7312c;fill-opacity:1.00" />
<polygon points="365.33,688.00 397.33,688.00 397.33,720.00 365.33,720.00 " style="fill:#b7312c;fill-opacity:1.00" />
<polygon points="365.33,720.00 397.33,720.00 397.33,752.00 365.33,752.00 " style="fill:#b7312c;fill-opacity:1.00" />
<polygon points="365.33,1264.00 397.33,1264.00 397.33,1296.00 365.33,1296.00 " style="fill:#d8d6b4;fill-opacity:1.00" />
<polygon points="365.33,1296.00 397.33,1296.00 397.33,1328.00 365.33,1328.00 " style="fill:#d8d6b4;fill-opacity:1.00" />
<polygon points="365.33,1328.00 397.33,1328.00 397.33,1360.00 365.33,1360.00 " style="fill:#a3a28b;fill-opacity:1.00" />
<polygon points="365.33,1456.00 397.33,1456.00 397.33,1488.00 365.33,1488.00 " style="fill:#a3a28b;fill-opacity:1.00" />
<polygon points="365.33,1488.00 397.33,1488.00 397.33,1520.00 365.33,1520.00 " style="fill:#d8d6b4;fill-opacity:1.00" />
<polygon points="365.33,1552.00 397.33,1552.00 397.33,1584.00 365.33,1584.00 " style="fill:#d8d6b4;fill-opacity:1.00" />
<polygon points="397.11,528.00 429.11,528.00 429.11,560.00 397.11,560.00 " style="fill:#b7312c;fill-opacity:1.00" />
<polygon points="397.11,560.00 429.11,560.00 429.11,592.00 397.11,592.00 " style="fill:#b7312c;fill-opacity:1.00" />
<polygon points="397.11,592.00 429.11,592.00 429.11,624.00 397.11,624.00 " style="fill:#b7312c;fill-opacity:1.00" />
<polygon points="397.11,624.00 429.11,624.00 429.11,656.00 397.11,656.00 " style="fill:#b7312c;fill-opacity:1.00" />
<polygon points="397.11,656.00 429.11,656.00 429.11,688.00 397.11,688.00 " style="fill:#b7312c;fill-opacity:1.00" />
<polygon points="397.11,688.00 429.11,688.00 429.11,720.00 397.11,720.00 " style="fill:#b7312c;fill-opacity:1.00" />
<polygon points="397.11,720.00 429.11,720.00 429.11,752.00 397.11,752.00 " style="fill:#b7312c;fill-opacity:1.00" />
<polygon points="397.11,1200.00 429.11,1200.00 429.11,1232.00 397.11,1232.00 " style="fill:#d8d6b4;fill-opacity:1.00" />
<polygon points="397.11,1424.00 429.11,1424.00 429.11,1456.00 397.11,1456.00 " style="fill:#a3a28b;fill-opacity:1.00" />
<polygon points="397.11,1456.00 429.11,1456.00 429.11,1488.00 397.11,1488.00 " style="fill:#a3a28b;fill-opacity:1.00" />
<polygon points="397.11,1488.00 429.11,1488.00 429.11,1520.00 397.11,1520.00 " style="fill:#d8d6b4;fill-opacity:1.00" />
<polygon points="428.88,336.00 460.88,336.00 460.88,368.00 428.88,368.00 " style="fill:#f5be99;fill-opacity:1.00" />
<polygon points="428.88,368.00 460.88,368.00 460.88,400.00 428.88,400.00 " style="fill:#f5be99;fill-opacity:1.00" />
<polygon points="428.88,496.00 460.88,496.00 460.88,528.00 428.88,528.00 " style="fill:#f5be99;fill-opacity:1.00" />
<polygon points="428.88,528.00 460.88,528.00 460.88,560.00 428.88,560.00 " style="fill:#f5be99;fill-opacity:1.00" />
<polygon points="428.88,560.00 460.88,560.00 460.88,592.00 428.88,592.00 " style="fill:#f5be99;fill-opacity:1.00" />
<polygon points="428.88,592.00 460.88,592.00 460.88,624.00 428.88,624.00 " style="fill:#f5be99;fill-opacity:1.00" />
<polygon points="428.88,624.00 460.88,624.00 460.88,656.00 428.88,656.00 " style="fill:#f5be99;fill-opacity:1.00" />
<polygon points="428.88,656.00 460.88,656.00 460.88,688.00 428.88,688.00 " style="fill:#b7312c;fill-opacity:1.00" />
<polygon points="428.88,688.00 460.88,688.00 460.88,720.00 428.88,720.00 " style="fill:#b7312c;fill-opacity:1.00" />
<polygon points="428.88,720.00 460.88,720.00 460.88,752.00 428.88,752.00 " style="fill:#b7312c;fill-opacity:1.00" />
<polygon points="428.88,1296.00 460.88,1296.00 460.88,1328.00 428.88,1328.00 " style="fill:#d8d6b4;fill-opacity:1.00" />
<polygon points="428.88,1392.00 460.88,1392.00 460.88,1424.00 428.88,1424.00 " style="fill:#a3a28b;fill-opacity:1.00" />
<polygon points="428.88,1424.00 460.88,1424.00 460.88,1456.00 428.88,1456.00 " style="fill:#d8d6b4;fill-opacity:1.00" />
<polygon points="428.88,1456.00 460.88,1456.00 460.88,1488.00 428.88,1488.00 " style="fill:#d8d6b4;fill-opacity:1.00" />
<polygon points="428.88,1488.00 460.88,1488.00 460.88,1520.00 428.88,1520.00 " style="fill:#d8d6b4;fill-opacity:1.00" />
<polygon points="460.66,80.00 492.66,80.00 492.66,112.00 460.66,112.00 " style="fill:#cd2127;fill-opacity:1.00" />
<polygon points="460.66,400.00 492.66,400.00 492.66,432.00 460.66,432.00 " style="fill:#f5be99;fill-opacity:1.00" />
<polygon points="460.66,464.00 492.66,464.00 492.66,496.00 460.66,496.00 " style="fill:#f5be99;fill-opacity:1.00" />
<polygon points="460.66,496.00 492.66,496.00 492.66,528.00 460.66,528.00 " style="fill:#b7312c;fill-opacity:1.00" />
<polygon points="460.66,528.00 492.66,528.00 492.66,560.00 460.66,560.00 " style="fill:#b7312c;fill-opacity:1.00" />
<polygon points="460.66,560.00 492.66,560.00 492.66,592.00 460.66,592.00 " style="fill:#b7312c;fill-opacity:1.00" />
<polygon points="460.66,592.00 492.66,592.00 492.66,624.00 460.66,624.00 " style="fill:#b7312c;fill-opacity:1.00" />
<polygon points="460.66,624.00 492.66,624.00 492.66,656.00 460.66,656.00 " style="fill:#b7312c;fill-opacity:1.00" />
<polygon points="460.66,656.00 492.66,656.00 492.66,688.00 460.66,688.00 " style="fill:#f5be99;fill-opacity:1.00" />
<polygon points="460.66,688.00 492.66,688.00 492.66,720.00 460.66,720.00 " style="fill:#b7312c;fill-opacity:1.00" />
<polygon points="460.66,720.00 492.66,720.00 492.66,752.00 460.66,752.00 " style="fill:#b7312c;fill-opacity:1.00" />
<polygon points="460.66,1360.00 492.66,1360.00 492.66,1392.00 460.66,1392.00 " style="fill:#a3a28b;fill-opacity:1.00" />
<polygon points="460.66,1392.00 492.66,1392.00 492.66,1424.00 460.66,1424.00 " style="fill:#d8d6b4;fill-opacity:1.00" />
<polygon points="460.66,1424.00 492.66,1424.00 492.66,1456.00 460.66,1456.00 " style="fill:#d8d6b4;fill-opacity:1.00" />
<polygon points="460.66,1456.00 492.66,1456.00 492.66,1488.00 460.66,1488.00 " style="fill:#d8d6b4;fill-opacity:1.00" />
<polygon points="460.66,1488.00 492.66,1488.00 492.66,1520.00 460.66,1520.00 " style="fill:#d8d6b4;fill-opacity:1.00" />
<polygon points="460.66,1552.00 492.66,1552.00 492.66,1584.00 460.66,1584.00 " style="fill:#d8d6b4;fill-opacity:1.00" />
<polygon points="492.44,48.00 524.44,48.00 524.44,80.00 492.44,80.00 " style="fill:#cd2127;fill-opacity:1.00" />
<polygon points="492.44,80.00 524.44,80.00 524.44,112.00 492.44,112.00 " style="fill:#cd2127;fill-opacity:1.00" />
<polygon points="492.44,112.00 524.44,112.00 524.44,144.00 492.44,144.00 " style="fill:#cd2127;fill-opacity:1.00" />
<polygon points="492.44,400.00 524.44,400.00 524.44,432.00 492.44,432.00 " style="fill:#f5be99;fill-opacity:1.00" />
<polygon points="492.44,432.00 524.44,432.00 524.44,464.00 492.44,464.00 " style="fill:#f5be99;fill-opacity:1.00" />
<polygon points="492.44,464.00 524.44,464.00 524.44,496.00 492.44,496.00 " style="fill:#b7312c;fill-opacity:1.00" />
<polygon points="492.44,496.00 524.44,496.00 524.44,528.00 492.44,528.00 " style="fill:#b7312c;fill-opacity:1.00" />
<polygon points="492.44,528.00 524.44,528.00 524.44,560.00 492.44,560.00 " style="fill:#c7463a;fill-opacity:1.00" />
<polygon points="492.44,560.00 524.44,560.00 524.44,592.00 492.44,592.00 " style="fill:#c7463a;fill-opacity:1.00" />
<polygon points="492.44,592.00 524.44,592.00 524.44,624.00 492.44,624.00 " style="fill:#b7312c;fill-opacity:1.00" />
<polygon points="492.44,624.00 524.44,624.00 524.44,656.00 492.44,656.00 " style="fill:#b7312c;fill-opacity:1.00" />
<polygon points="492.44,656.00 524.44,656.00 524.44,688.00 492.44,688.00 " style="fill:#b7312c;fill-opacity:1.00" />
<polygon points="492.44,688.00 524.44,688.00 524.44,720.00 492.44,720.00 " style="fill:#f5be99;fill-opacity:1.00" />
<polygon points="492.44,720.00 524.44,720.00 524.44,752.00 492.44,752.00 " style="fill:#b7312c;fill-opacity:1.00" />
<polygon points="492.44,1040.00 524.44,1040.00 524.44,1072.00 492.44,1072.00 " style="fill:#d8d6b4;fill-opacity:1.00" />
<polygon points="492.44,1136.00 524.44,1136.00 524.44,1168.00 492.44,1168.00 " style="fill:#d8d6b4;fill-opacity:1.00" />
<polygon points="492.44,1232.00 524.44,1232.00 524.44,1264.00 492.44,1264.00 " style="fill:#d8d6b4;fill-opacity:1.00" />
<polygon points="492.44,1328.00 524.44,1328.00 524.44,1360.00 492.44,1360.00 " style="fill:#a3a28b;fill-opacity:1.00" />
<polygon points="492.44,1360.00 524.44,1360.00 524.44,1392.00 492.44,1392.00 " style="fill:#d8d6b4;fill-opacity:1.00" />
<polygon points="492.44,1392.00 524.44,1392.00 524.44,1424.00 492.44,1424.00 " style="fill:#d8d6b4;fill-opacity:1.00" />
<polygon points="492.44,1424.00 524.44,1424.00 524.44,1456.00 492.44,1456.00 " style="fill:#d8d6b4;fill-opacity:1.00" />
<polygon points="492.44,1456.00 524.44,1456.00 524.44,1488.00 492.44,1488.00 " style="fill:#d8d6b4;fill-opacity:1.00" />
<polygon points="492.44,1488.00 524.44,1488.00 524.44,1520.00 492.44,1520.00 " style="fill:#d8d6b4;fill-opacity:1.00" />
<polygon points="524.22,16.00 556.22,16.00 556.22,48.00 524.22,48.00 " style="fill:#cd2127;fill-opacity:1.00" />
<polygon points="524.22,48.00 556.22,48.00 556.22,80.00 524.22,80.00 " style="fill:#cd2127;fill-opacity:1.00" />
<polygon points="524.22,80.00 556.22,80.00 556.22,112.00 524.22,112.00 " style="fill:#cd2127;fill-opacity:1.00" />
<polygon points="524.22,112.00 556.22,112.00 556.22,144.00 524.22,144.00 " style="fill:#cd2127;fill-opacity:1.00" />
<polygon points="524.22,144.00 556.22,144.00 556.22,176.00 524.22,176.00 " style="fill:#cd2127;fill-opacity:1.00" />
<polygon points="524.22,400.00 556.22,400.00 556.22,432.00 524.22,432.00 " style="fill:#b7312c;fill-opacity:1.00" />
<polygon points="524.22,432.00 556.22,432.00 556.22,464.00 524.22,464.00 " style="fill:#b7312c;fill-opacity:1.00" />
<polygon points="524.22,464.00 556.22,464.00 556.22,496.00 524.22,496.00 " style="fill:#c7463a;fill-opacity:1.00" />
<polygon points="524.22,496.00 556.22,496.00 556.22,528.00 524.22,528.00 " style="fill:#c7463a;fill-opacity:1.00" />
<polygon points="524.22,528.00 556.22,528.00 556.22,560.00 524.22,560.00 " style="fill:#c7463a;fill-opacity:1.00" />
<polygon points="524.22,560.00 556.22,560.00 556.22,592.00 524.22,592.00 " style="fill:#c7463a;fill-opacity:1.00" />
<polygon points="524.22,592.00 556.22,592.00 556.22,624.00 524.22,624.00 " style="fill:#c7463a;fill-opacity:1.00" />
<polygon points="524.22,624.00 556.22,624.00 556.22,656.00 524.22,656.00 " style="fill:#b7312c;fill-opacity:1.00" />
<polygon points="524.22,656.00 556.22,656.00 556.22,688.00 524.22,688.00 " style="fill:#b7312c;fill-opacity:1.00" />
<polygon points="524.22,688.00 556.22,688.00 556.22,720.00 524.22,720.00 " style="fill:#f5be99;fill-opacity:1.00" />
<polygon points="524.22,720.00 556.22,720.00 556.22,752.00 524.22,752.00 " style="fill:#b7312c;fill-opacity:1.00" />
<polygon points="524.22,1296.00 556.22,1296.00 556.22,1328.00 524.22,1328.00 " style="fill:#a3a28b;fill-opacity:1.00" />
<polygon points="524.22,1328.00 556.22,1328.00 556.22,1360.00 524.22,1360.00 " style="fill:#d8d6b4;fill-opacity:1.00" />
<polygon points="524.22,1360.00 556.22,1360.00 556.22,1392.00 524.22,1392.00 " style="fill:#d8d6b4;fill-opacity:1.00" />
<polygon points="524.22,1392.00 556.22,1392.00 556.22,1424.00 524.22,1424.00 " style="fill:#d8d6b4;fill-opacity:1.00" />
<polygon points="524.22,1424.00 556.22,1424.00 556.22,1456.00 524.22,1456.00 " style="fill:#d8d6b4;fill-opacity:1.00" />
<polygon points="524.22,1456.00 556.22,1456.00 556.22,1488.00 524.22,1488.00 " style="fill:#d8d6b4;fill-opacity:1.00" />
<polygon points="524.22,1488.00 556.22,1488.00 556.22,1520.00 524.22,1520.00 " style="fill:#a3a28b;fill-opacity:1.00" />
<polygon points="555.99,16.00 587.99,16.00 587.99,48.00 555.99,48.00 " style="fill:#ed1c24;fill-opacity:1.00" />
<polygon points="555.99,48.00 587.99,48.00 587.99,80.00 555.99,80.00 " style="fill:#ed1c24;fill-opacity:1.00" />
<polygon points="555.99,80.00 587.99,80.00 587.99,112.00 555.99,112.00 " style="fill:#ed1c24;fill-opacity:1.00" />
<polygon points="555.99,112.00 587.99,112.00 587.99,144.00 555.99,144.00 " style="fill:#cd2127;fill-opacity:1.00" />
<polygon points="555.99,144.00 587.99,144.00 587.99,176.00 555.99,176.00 " style="fill:#cd2127;fill-opacity:1.00" />
<polygon points="555.99,176.00 587.99,176.00 587.99,208.00 555.99,208.00 " style="fill:#cd2127;fill-opacity:1.00" />
<polygon points="555.99,368.00 587.99,368.00 587.99,400.00 555.99,400.00 " style="fill:#c7463a;fill-opacity:1.00" />
<polygon points="555.99,400.00 587.99,400.00 587.99,432.00 555.99,432.00 " style="fill:#c7463a;fill-opacity:1.00" />
<polygon points="555.99,432.00 587.99,432.00 587.99,464.00 555.99,464.00 " style="fill:#c7463a;fill-opacity:1.00" />
<polygon points="555.99,464.00 587.99,464.00 587.99,496.00 555.99,496.00 " style="fill:#c7463a;fill-opacity:1.00" />
<polygon points="555.99,496.00 587.99,496.00 587.99,528.00 555.99,528.00 " style="fill:#c7463a;fill-opacity:1.00" />
<polygon points="555.99,528.00 587.99,528.00 587.99,560.00 555.99,560.00 " style="fill:#c7463a;fill-opacity:1.00" />
<polygon points="555.99,560.00 587.99,560.00 587.99,592.00 555.99,592.00 " style="fill:#b7312c;fill-opacity:1.00" />
<polygon points="555.99,592.00 587.99,592.00 587.99,624.00 555.99,624.00 " style="fill:#b7312c;fill-opacity:1.00" />
<polygon points="555.99,624.00 587.99,624.00 587.99,656.00 555.99,656.00 " style="fill:#b7312c;fill-opacity:1.00" />
<polygon points="555.99,656.00 587.99,656.00 587.99,688.00 555.99,688.00 " style="fill:#b7312c;fill-opacity:1.00" />
<polygon points="555.99,688.00 587.99,688.00 587.99,720.00 555.99,720.00 " style="fill:#f5be99;fill-opacity:1.00" />
<polygon points="555.99,720.00 587.99,720.00 587.99,752.00 555.99,752.00 " style="fill:#b7312c;fill-opacity:1.00" />
<polygon points="555.99,1040.00 587.99,1040.00 587.99,1072.00 555.99,1072.00 " style="fill:#a3a28b;fill-opacity:1.00" />
<polygon points="555.99,1072.00 587.99,1072.00 587.99,1104.00 555.99,1104.00 " style="fill:#a3a28b;fill-opacity:1.00" />
<polygon points="555.99,1104.00 587.99,1104.00 587.99,1136.00 555.99,1136.00 " style="fill:#a3a28b;fill-opacity:1.00" />
<polygon points="555.99,1136.00 587.99,1136.00 587.99,1168.00 555.99,1168.00 " style="fill:#a3a28b;fill-opacity:1.00" />
<polygon points="555.99,1168.00 587.99,1168.00 587.99,1200.00 555.99,1200.00 " style="fill:#a3a28b;fill-opacity:1.00" />
<polygon points="555.99,1200.00 587.99,1200.00 587.99,1232.00 555.99,1232.00 " style="fill:#a3a28b;fill-opacity:1.00" />
<polygon points="555.99,1232.00 587.99,1232.00 587.99,1264.00 555.99,1264.00 " style="fill:#a3a28b;fill-opacity:1.00" />
<polygon points="555.99,1264.00 587.99,1264.00 587.99,1296.00 555.99,1296.00 " style="fill:#a3a28b;fill-opacity:1.00" />
<polygon points="555.99,1296.00 587.99,1296.00 587.99,1328.00 555.99,1328.00 " style="fill:#d8d6b4;fill-opacity:1.00" />
<polygon points="555.99,1328.00 587.99,1328.00 587.99,1360.00 555.99,1360.00 " style="fill:#d8d6b4;fill-opacity:1.00" />
<polygon points="555.99,1360.00 587.99,1360.00 587.99,1392.00 555.99,1392.00 " style="fill:#d8d6b4;fill-opacity:1.00" />
<polygon points="555.99,1392.00 587.99,1392.00 587.99,1424.00 555.99,1424.00 " style="fill:#d8d6b4;fill-opacity:1.00" />
<polygon points="555.99,1424.00 587.99,1424.00 587.99,1456.00 555.99,1456.00 " style="fill:#d8d6b4;fill-opacity:1.00" />
<polygon points="555.99,1456.00 587.99,1456.00 587.99,1488.00 555.99,1488.00 " style="fill:#d8d6b4;fill-opacity:1.00" />
<polygon points="587.77,16.00 619.77,16.00 619.77,48.00 587.77,48.00 " style="fill:#ed1c24;fill-opacity:1.00" />
<polygon points="587.77,48.00 619.77,48.00 619.77,80.00 587.77,80.00 " style="fill:#ed1c24;fill-opacity:1.00" />
<polygon points="587.77,80.00 619.77,80.00 619.77,112.00 587.77,112.00 " style="fill:#ed1c24;fill-opacity:1.00" />
<polygon points="587.77,112.00 619.77,112.00 619.77,144.00 587.77,144.00 " style="fill:#cd2127;fill-opacity:1.00" />
<polygon points="587.77,144.00 619.77,144.00 619.77,176.00 587.77,176.00 " style="fill:#ed1c24;fill-opacity:1.00" />
<polygon points="587.77,176.00 619.77,176.00 619.77,208.00 587.77,208.00 " style="fill:#ed1c24;fill-opacity:1.00" />
<polygon points="587.77,208.00 619.77,208.00 619.77,240.00 587.77,240.00 " style="fill:#cd2127;fill-opacity:1.00" />
<polygon points="587.77,336.00 619.77,336.00 619.77,368.00 587.77,368.00 " style="fill:#b7312c;fill-opacity:1.00" />
<polygon points="587.77,368.00 619.77,368.00 619.77,400.00 587.77,400.00 " style="fill:#c7463a;fill-opacity:1.00" />
<polygon points="587.77,400.00 619.77,400.00 619.77,432.00 587.77,432.00 " style="fill:#c7463a;fill-opacity:1.00" />
<polygon points="587.77,432.00 619.77,432.00 619.77,464.00 587.77,464.00 " style="fill:#c7463a;fill-opacity:1.00" />
<polygon points="587.77,464.00 619.77,464.00 619.77,496.00 587.77,496.00 " style="fill:#c7463a;fill-opacity:1.00" />
<polygon points="587.77,496.00 619.77,496.00 619.77,528.00 587.77,528.00 " style="fill:#b7312c;fill-opacity:1.00" />
<polygon points="587.77,528.00 619.77,528.00 619.77,560.00 587.77,560.00 " style="fill:#b7312c;fill-opacity:1.00" />
<polygon points="587.77,560.00 619.77,560.00 619.77,592.00 587.77,592.00 " style="fill:#b7312c;fill-opacity:1.00" />
<polygon points="587.77,592.00 619.77,592.00 619.77,624.00 587.77,624.00 " style="fill:#b7312c;fill-opacity:1.00" />
<polygon points="587.77,624.00 619.77,624.00 619.77,656.00 587.77,656.00 " style="fill:#b7312c;fill-opacity:1.00" />
<polygon points="587.77,656.00 619.77,656.00 619.77,688.00 587.77,688.00 " style="fill:#b7312c;fill-opacity:1.00" />
<polygon points="587.77,688.00 619.77,688.00 619.77,720.00 587.77,720.00 " style="fill:#f5be99;fill-opacity:1.00" />
<polygon points="587.77,720.00 619.77,720.00 619.77,752.00 587.77,752.00 " style="fill:#f5be99;fill-opacity:1.00" />
<polygon points="587.77,752.00 619.77,752.00 619.77,784.00 587.77,784.00 " style="fill:#7f5221;fill-opacity:1.00" />
<polygon points="587.77,784.00 619.77,784.00 619.77,816.00 587.77,816.00 " style="fill:#e3a87f;fill-opacity:1.00" />
<polygon points="587.77,816.00 619.77,816.00 619.77,848.00 587.77,848.00 " style="fill:#f5be99;fill-opacity:1.00" />
<polygon points="587.77,848.00 619.77,848.00 619.77,880.00 587.77,880.00 " style="fill:#f5be99;fill-opacity:1.00" />
<polygon points="587.77,880.00 619.77,880.00 619.77,912.00 587.77,912.00 " style="fill:#f5be99;fill-opacity:1.00" />
<polygon points="587.77,912.00 619.77,912.00 619.77,944.00 587.77,944.00 " style="fill:#f5be99;fill-opacity:1.00" />
<polygon points="587.77,944.00 619.77,944.00 619.77,976.00 587.77,976.00 " style="fill:#f5be99;fill-opacity:1.00" />
<polygon points="587.77,976.00 619.77,976.00 619.77,1008.00 587.77,1008.00 " style="fill:#f5be99;fill-opacity:1.00" />
<polygon points="587.77,1008.00 619.77,1008.00 619.77,1040.00 587.77,1040.00 " style="fill:#a3a28b;fill-opacity:1.00" />
<polygon points="587.77,1040.00 619.77,1040.00 619.77,1072.00 587.77,1072.00 " style="fill:#a3a28b;fill-opacity:1.00" />
<polygon points="587.77,1072.00 619.77,1072.00 619.77,1104.00 587.77,1104.00 " style="fill:#a3a28b;fill-opacity:1.00" />
<polygon points="587.77,1104.00 619.77,1104.00 619.77,1136.00 587.77,1136.00 " style="fill:#a3a28b;fill-opacity:1.00" />
<polygon points="587.77,1136.00 619.77,1136.00 619.77,1168.00 587.77,1168.00 " style="fill:#d8d6b4;fill-opacity:1.00" />
<polygon points="587.77,1168.00 619.77,1168.00 619.77,1200.00 587.77,1200.00 " style="fill:#d8d6b4;fill-opacity:1.00" />
<polygon points="587.77,1200.00 619.77,1200.00 619.77,1232.00 587.77,1232.00 " style="fill:#d8d6b4;fill-opacity:1.00" />
<polygon points="587.77,1232.00 619.77,1232.00 619.77,1264.00 587.77,1264.00 " style="fill:#d8d6b4;fill-opacity:1.00" />
<polygon points="587.77,1264.00 619.77,1264.00 619.77,1296.00 587.77,1296.00 " style="fill:#d8d6b4;fill-opacity:1.00" />
<polygon points="587.77,1296.00 619.77,1296.00 619.77,1328.00 587.77,1328.00 " style="fill:#d8d6b4;fill-opacity:1.00" />
<polygon points="587.77,1328.00 619.77,1328.00 619.77,1360.00 587.77,1360.00 " style="fill:#d8d6b4;fill-opacity:1.00" />
<polygon points="587.77,1360.00 619.77,1360.00 619.77,1392.00 587.77,1392.00 " style="fill:#d8d6b4;fill-opacity:1.00" />
<polygon points="587.77,1392.00 619.77,1392.00 619.77,1424.00 587.77,1424.00 " style="fill:#d8d6b4;fill-opacity:1.00" />
<polygon points="587.77,1424.00 619.77,1424.00 619.77,1456.00 587.77,1456.00 " style="fill:#d8d6b4;fill-opacity:1.00" />
<polygon points="587.77,1456.00 619.77,1456.00 619.77,1488.00 587.77,1488.00 " style="fill:#a3a28b;fill-opacity:1.00" />
<polygon points="587.77,1552.00 619.77,1552.00 619.77,1584.00 587.77,1584.00 " style="fill:#d8d6b4;fill-opacity:1.00" />
<polygon points="619.55,16.00 651.55,16.00 651.55,48.00 619.55,48.00 " style="fill:#ed1c24;fill-opacity:1.00" />
<polygon points="619.55,48.00 651.55,48.00 651.55,80.00 619.55,80.00 " style="fill:#ed1c24;fill-opacity:1.00" />
<polygon points="619.55,80.00 651.55,80.00 651.55,112.00 619.55,112.00 " style="fill:#ed1c24;fill-opacity:1.00" />
<polygon points="619.55,112.00 651.55,112.00 651.55,144.00 619.55,144.00 " style="fill:#cd2127;fill-opacity:1.00" />
<polygon points="619.55,144.00 651.55,144.00 651.55,176.00 619.55,176.00 " style="fill:#ed1c24;fill-opacity:1.00" />
<polygon points="619.55,176.00 651.55,176.00 651.55,208.00 619.55,208.00 " style="fill:#ed1c24;fill-opacity:1.00" />
<polygon points="619.55,208.00 651.55,208.00 651.55,240.00 619.55,240.00 " style="fill:#ed1c24;fill-opacity:1.00" />
<polygon points="619.55,240.00 651.55,240.00 651.55,272.00 619.55,272.00 " style="fill:#cd2127;fill-opacity:1.00" />
<polygon points="619.55,336.00 651.55,336.00 651.55,368.00 619.55,368.00 " style="fill:#c7463a;fill-opacity:1.00" />
<polygon points="619.55,368.00 651.55,368.00 651.55,400.00 619.55,400.00 " style="fill:#c7463a;fill-opacity:1.00" />
<polygon points="619.55,400.00 651.55,400.00 651.55,432.00 619.55,432.00 " style="fill:#c7463a;fill-opacity:1.00" />
<polygon points="619.55,432.00 651.55,432.00 651.55,464.00 619.55,464.00 " style="fill:#c7463a;fill-opacity:1.00" />
<polygon points="619.55,464.00 651.55,464.00 651.55,496.00 619.55,496.00 " style="fill:#b7312c;fill-opacity:1.00" />
<polygon points="619.55,496.00 651.55,496.00 651.55,528.00 619.55,528.00 " style="fill:#e3a87f;fill-opacity:1.00" />
<polygon points="619.55,528.00 651.55,528.00 651.55,560.00 619.55,560.00 " style="fill:#f5be99;fill-opacity:1.00" />
<polygon points="619.55,560.00 651.55,560.00 651.55,592.00 619.55,592.00 " style="fill:#f5be99;fill-opacity:1.00" />
<polygon points="619.55,592.00 651.55,592.00 651.55,624.00 619.55,624.00 " style="fill:#f5be99;fill-opacity:1.00" />
<polygon points="619.55,624.00 651.55,624.00 651.55,656.00 619.55,656.00 " style="fill:#e3a87f;fill-opacity:1.00" />
<polygon points="619.55,656.00 651.55,656.00 651.55,688.00 619.55,688.00 " style="fill:#e3a87f;fill-opacity:1.00" />
<polygon points="619.55,688.00 651.55,688.00 651.55,720.00 619.55,720.00 " style="fill:#f5be99;fill-opacity:1.00" />
<polygon points="619.55,720.00 651.55,720.00 651.55,752.00 619.55,752.00 " style="fill:#f5be99;fill-opacity:1.00" />
<polygon points="619.55,752.00 651.55,752.00 651.55,784.00 619.55,784.00 " style="fill:#9f6a28;fill-opacity:1.00" />
<polygon points="619.55,784.00 651.55,784.00 651.55,816.00 619.55,816.00 " style="fill:#7f5221;fill-opacity:1.00" />
<polygon points="619.55,816.00 651.55,816.00 651.55,848.00 619.55,848.00 " style="fill:#f5be99;fill-opacity:1.00" />
<polygon points="619.55,848.00 651.55,848.00 651.55,880.00 619.55,880.00 " style="fill:#f5be99;fill-opacity:1.00" />
<polygon points="619.55,880.00 651.55,880.00 651.55,912.00 619.55,912.00 " style="fill:#f5be99;fill-opacity:1.00" />
<polygon points="619.55,912.00 651.55,912.00 651.55,944.00 619.55,944.00 " style="fill:#f5be99;fill-opacity:1.00" />
<polygon points="619.55,944.00 651.55,944.00 651.55,976.00 619.55,976.00 " style="fill:#f5be99;fill-opacity:1.00" />
<polygon points="619.55,976.00 651.55,976.00 651.55,1008.00 619.55,1008.00 " style="fill:#f5be99;fill-opacity:1.00" />
<polygon points="619.55,1008.00 651.55,1008.00 651.55,1040.00 619.55,1040.00 " style="fill:#a3a28b;fill-opacity:1.00" />
<polygon points="619.55,1040.00 651.55,1040.00 651.55,1072.00 619.55,1072.00 " style="fill:#d8d6b4;fill-opacity:1.00" />
<polygon points="619.55,1072.00 651.55,1072.00 651.55,1104.00 619.55,1104.00 " style="fill:#d8d6b4;fill-opacity:1.00" />
<polygon points="619.55,1104.00 651.55,1104.00 651.55,1136.00 619.55,1136.00 " style="fill:#d8d6b4;fill-opacity:1.00" />
<polygon points="619.55,1136.00 651.55,1136.00 651.55,1168.00 619.55,1168.00 " style="fill:#d8d6b4;fill-opacity:1.00" />
<polygon points="619.55,1168.00 651.55,1168.00 651.55,1200.00 619.55,1200.00 " style="fill:#d8d6b4;fill-opacity:1.00" />
<polygon points="619.55,1200.00 651.55,1200.00 651.55,1232.00 619.55,1232.00 " style="fill:#d8d6b4;fill-opacity:1.00" />
<polygon points="619.55,1232.00 651.55,1232.00 651.55,1264.00 619.55,1264.00 " style="fill:#d8d6b4;fill-opacity:1.00" />
<polygon points="619.55,1264.00 651.55,1264.00 651.55,1296.00 619.55,1296.00 " style="fill:#d8d6b4;fill-opacity:1.00" />
<polygon points="619.55,1296.00 651.55,1296.00 651.55,1328.00 619.55,1328.00 " style="fill:#d8d6b4;fill-opacity:1.00" />
<polygon points="619.55,1328.00 651.55,1328.00 651.55,1360.00 619.55,1360.00 " style="fill:#d8d6b4;fill-opacity:1.00" />
<polygon points="619.55,1360.00 651.55,1360.00 651.55,1392.00 619.55,1392.00 " style="fill:#d8d6b4;fill-opacity:1.00" />
<polygon points="619.55,1392.00 651.55,1392.00 651.55,1424.00 619.55,1424.00 " style="fill:#d8d6b4;fill-opacity:1.00" />
<polygon points="619.55,1424.00 651.55,1424.00 651.55,1456.00 619.55,1456.00 " style="fill:#a3a28b;fill-opacity:1.00" />
<polygon points="651.32,16.00 683.32,16.00 683.32,48.00 651.32,48.00 " style="fill:#ed1c24;fill-opacity:1.00" />
<polygon points="651.32,48.00 683.32,48.00 683.32,80.00 651.32,80.00 " style="fill:#ed1c24;fill-opacity:1.00" />
<polygon points="651.32,80.00 683.32,80.00 683.32,112.00 651.32,112.00 " style="fill:#ed1c24;fill-opacity:1.00" />
<polygon points="651.32,112.00 683.32,112.00 683.32,144.00 651.32,144.00 " style="fill:#cd2127;fill-opacity:1.00" />
<polygon points="651.32,144.00 683.32,144.00 683.32,176.00 651.32,176.00 " style="fill:#ed1c24;fill-opacity:1.00" />
<polygon points="651.32,176.00 683.32,176.00 683.32,208.00 651.32,208.00 " style="fill:#ed1c24;fill-opacity:1.00" />
<polygon points="651.32,208.00 683.32,208.00 683.32,240.00 651.32,240.00 " style="fill:#ed1c24;fill-opacity:1.00" />
<polygon points="651.32,240.00 683.32,240.00 683.32,272.00 651.32,272.00 " style="fill:#ed1c24;fill-opacity:1.00" />
<polygon points="651.32,272.00 683.32,272.00 683.32,304.00 651.32,304.00 " style="fill:#cd2127;fill-opacity:1.00" />
<polygon points="651.32,336.00 683.32,336.00 683.32,368.00 651.32,368.00 " style="fill:#d57759;fill-opacity:1.00" />
<polygon points="651.32,368.00 683.32,368.00 683.32,400.00 651.32,400.00 " style="fill:#c7463a;fill-opacity:1.00" />
<polygon points="651.32,400.00 683.32,400.00 683.32,432.00 651.32,432.00 " style="fill:#c7463a;fill-opacity:1.00" />
<polygon points="651.32,432.00 683.32,432.00 683.32,464.00 651.32,464.00 " style="fill:#b7312c;fill-opacity:1.00" />
<polygon points="651.32,464.00 683.32,464.00 683.32,496.00 651.32,496.00 " style="fill:#e3a87f;fill-opacity:1.00" />
<polygon points="651.32,496.00 683.32,496.00 683.32,528.00 651.32,528.00 " style="fill:#f5be99;fill-opacity:1.00" />
<polygon points="651.32,528.00 683.32,528.00 683.32,560.00 651.32,560.00 " style="fill:#47463a;fill-opacity:1.00" />
<polygon points="651.32,560.00 683.32,560.00 683.32,592.00 651.32,592.00 " style="fill:#f5be99;fill-opacity:1.00" />
<polygon points="651.32,592.00 683.32,592.00 683.32,624.00 651.32,624.00 " style="fill:#f5be99;fill-opacity:1.00" />
<polygon points="651.32,624.00 683.32,624.00 683.32,656.00 651.32,656.00 " style="fill:#f5be99;fill-opacity:1.00" />
<polygon points="651.32,656.00 683.32,656.00 683.32,688.00 651.32,688.00 " style="fill:#f5be99;fill-opacity:1.00" />
<polygon points="651.32,688.00 683.32,688.00 683.32,720.00 651.32,720.00 " style="fill:#f5be99;fill-opacity:1.00" />
<polygon points="651.32,720.00 683.32,720.00 683.32,752.00 651.32,752.00 " style="fill:#9f6a28;fill-opacity:1.00" />
<polygon points="651.32,752.00 683.32,752.00 683.32,784.00 651.32,784.00 " style="fill:#9f6a28;fill-opacity:1.00" />
<polygon points="651.32,784.00 683.32,784.00 683.32,816.00 651.32,816.00 " style="fill:#9f6a28;fill-opacity:1.00" />
<polygon points="651.32,816.00 683.32,816.00 683.32,848.00 651.32,848.00 " style="fill:#f5be99;fill-opacity:1.00" />
<polygon points="651.32,848.00 683.32,848.00 683.32,880.00 651.32,880.00 " style="fill:#f5be99;fill-opacity:1.00" />
<polygon points="651.32,880.00 683.32,880.00 683.32,912.00 651.32,912.00 " style="fill:#f5be99;fill-opacity:1.00" />
<polygon points="651.32,912.00 683.32,912.00 683.32,944.00 651.32,944.00 " style="fill:#f5be99;fill-opacity:1.00" />
<polygon points="651.32,944.00 683.32,944.00 683.32,976.00 651.32,976.00 " style="fill:#e3a87f;fill-opacity:1.00" />
<polygon points="651.32,976.00 683.32,976.00 683.32,1008.00 651.32,1008.00 " style="fill:#f5be99;fill-opacity:1.00" />
<polygon points="651.32,1008.00 683.32,1008.00 683.32,1040.00 651.32,1040.00 " style="fill:#a3a28b;fill-opacity:1.00" />
<polygon points="651.32,1040.00 683.32,1040.00 683.32,1072.00 651.32,1072.00 " style="fill:#d8d6b4;fill-opacity:1.00" />
<polygon points="651.32,1072.00 683.32,1072.00 683.32,1104.00 651.32,1104.00 " style="fill:#d8d6b4;fill-opacity:1.00" />
<polygon points="651.32,1104.00 683.32,1104.00 683.32,1136.00 651.32,1136.00 " style="fill:#d8d6b4;fill-opacity:1.00" />
<polygon points="651.32,1136.00 683.32,1136.00 683.32,1168.00 651.32,1168.00 " style="fill:#d8d6b4;fill-opacity:1.00" />
<polygon points="651.32,1168.00 683.32,1168.00 683.32,1200.00 651.32,1200.00 " style="fill:#d8d6b4;fill-opacity:1.00" />
<polygon points="651.32,1200.00 683.32,1200.00 683.32,1232.00 651.32,1232.00 " style="fill:#d8d6b4;fill-opacity:1.00" />
<polygon points="651.32,1232.00 683.32,1232.00 683.32,1264.00 651.32,1264.00 " style="fill:#d8d6b4;fill-opacity:1.00" />
<polygon points="651.32,1264.00 683.32,1264.00 683.32,1296.00 651.32,1296.00 " style="fill:#d8d6b4;fill-opacity:1.00" />
<polygon points="651.32,1296.00 683.32,1296.00 683.32,1328.00 651.32,1328.00 " style="fill:#d8d6b4;fill-opacity:1.00" />
<polygon points="651.32,1328.00 683.32,1328.00 683.32,1360.00 651.32,1360.00 " style="fill:#d8d6b4;fill-opacity:1.00" />
<polygon points="651.32,1360.00 683.32,1360.00 683.32,1392.00 651.32,1392.00 " style="fill:#d8d6b4;fill-opacity:1.00" />
<polygon points="651.32,1392.00 683.32,1392.00 683.32,1424.00 651.32,1424.00 " style="fill:#a3a28b;fill-opacity:1.00" />
<polygon points="683.10,16.00 715.10,16.00 715.10,48.00 683.10,48.00 " style="fill:#ed1c24;fill-opacity:1.00" />
<polygon points="683.10,48.00 715.10,48.00 715.10,80.00 683.10,80.00 " style="fill:#ed1c24;fill-opacity:1.00" />
<polygon points="683.10,80.00 715.10,80.00 715.10,112.00 683.10,112.00 " style="fill:#ed1c24;fill-opacity:1.00" />
<polygon points="683.10,112.00 715.10,112.00 715.10,144.00 683.10,144.00 " style="fill:#cd2127;fill-opacity:1.00" />
<polygon points="683.10,144.00 715.10,144.00 715.10,176.00 683.10,176.00 " style="fill:#ed1c24;fill-opacity:1.00" />
<polygon points="683.10,176.00 715.10,176.00 715.10,208.00 683.10,208.00 " style="fill:#ed1c24;fill-opacity:1.00" />
<polygon points="683.10,208.00 715.10,208.00 715.10,240.00 683.10,240.00 " style="fill:#ed1c24;fill-opacity:1.00" />
<polygon points="683.10,240.00 715.10,240.00 715.10,272.00 683.10,272.00 " style="fill:#ed1c24;fill-opacity:1.00" />
<polygon points="683.10,336.00 715.10,336.00 715.10,368.00 683.10,368.00 " style="fill:#d57759;fill-opacity:1.00" />
<polygon points="683.10,368.00 715.10,368.00 715.10,400.00 683.10,400.00 " style="fill:#c7463a;fill-opacity:1.00" />
<polygon points="683.10,400.00 715.10,400.00 715.10,432.00 683.10,432.00 " style="fill:#c7463a;fill-opacity:1.00" />
<polygon points="683.10,432.00 715.10,432.00 715.10,464.00 683.10,464.00 " style="fill:#c7463a;fill-opacity:1.00" />
<polygon points="683.10,464.00 715.10,464.00 715.10,496.00 683.10,496.00 " style="fill:#e3a87f;fill-opacity:1.00" />
<polygon points="683.10,496.00 715.10,496.00 715.10,528.00 683.10,528.00 " style="fill:#f5be99;fill-opacity:1.00" />
<polygon points="683.10,528.00 715.10,528.00 715.10,560.00 683.10,560.00 " style="fill:#f5be99;fill-opacity:1.00" />
<polygon points="683.10,560.00 715.10,560.00 715.10,592.00 683.10,592.00 " style="fill:#f5be99;fill-opacity:1.00" />
<polygon points="683.10,592.00 715.10,592.00 715.10,624.00 683.10,624.00 " style="fill:#f5be99;fill-opacity:1.00" />
<polygon points="683.10,624.00 715.10,624.00 715.10,656.00 683.10,656.00 " style="fill:#b7312c;fill-opacity:1.00" />
<polygon points="683.10,656.00 715.10,656.00 715.10,688.00 683.10,688.00 " style="fill:#b7312c;fill-opacity:1.00" />
<polygon points="683.10,688.00 715.10,688.00 715.10,720.00 683.10,720.00 " style="fill:#f5be99;fill-opacity:1.00" />
<polygon points="683.10,720.00 715.10,720.00 715.10,752.00 683.10,752.00 " style="fill:#e3a87f;fill-opacity:1.00" />
<polygon points="683.10,752.00 715.10,752.00 715.10,784.00 683.10,784.00 " style="fill:#7f5221;fill-opacity:1.00" />
<polygon points="683.10,784.00 715.10,784.00 715.10,816.00 683.10,816.00 " style="fill:#e3a87f;fill-opacity:1.00" />
<polygon points="683.10,816.00 715.10,816.00 715.10,848.00 683.10,848.00 " style="fill:#f5be99;fill-opacity:1.00" />
<polygon points="683.10,848.00 715.10,848.00 715.10,880.00 683.10,880.00 " style="fill:#f5be99;fill-opacity:1.00" />
<polygon points="683.10,880.00 715.10,880.00 715.10,912.00 683.10,912.00 " style="fill:#f5be99;fill-opacity:1.00" />
<polygon points="683.10,912.00 715.10,912.00 715.10,944.00 683.10,944.00 " style="fill:#f5be99;fill-opacity:1.00" />
<polygon points="683.10,944.00 715.10,944.00 715.10,976.00 683.10,976.00 " style="fill:#f5be99;fill-opacity:1.00" />
<polygon points="683.10,976.00 715.10,976.00 715.10,1008.00 683.10,1008.00 " style="fill:#f5be99;fill-opacity:1.00" />
<polygon points="683.10,1008.00 715.10,1008.00 715.10,1040.00 683.10,1040.00 " style="fill:#a3a28b;fill-opacity:1.00" />
<polygon points="683.10,1040.00 715.10,1040.00 715.10,1072.00 683.10,1072.00 " style="fill:#d8d6b4;fill-opacity:1.00" />
<polygon points="683.10,1072.00 715.10,1072.00 715.10,1104.00 683.10,1104.00 " style="fill:#d8d6b4;fill-opacity:1.00" />
<polygon points="683.10,1104.00 715.10,1104.00 715.10,1136.00 683.10,1136.00 " style="fill:#d8d6b4;fill-opacity:1.00" />
<polygon points="683.10,1136.00 715.10,1136.00 715.10,1168.00 683.10,1168.00 " style="fill:#d8d6b4;fill-opacity:1.00" />
<polygon points="683.10,1168.00 715.10,1168.00 715.10,1200.00 683.10,1200.00 " style="fill:#d8d6b4;fill-opacity:1.00" />
<polygon points="683.10,1200.00 715.10,1200.00 715.10,1232.00 683.10,1232.00 " style="fill:#d8d6b4;fill-opacity:1.00" />
<polygon points="683.10,1232.00 715.10,1232.00 715.10,1264.00 683.10,1264.00 " style="fill:#d8d6b4;fill-opacity:1.00" />
<polygon points="683.10,1264.00 715.10,1264.00 715.10,1296.00 683.10,1296.00 " style="fill:#d8d6b4;fill-opacity:1.00" />
<polygon points="683.10,1296.00 715.10,1296.00 715.10,1328.00 683.10,1328.00 " style="fill:#d8d6b4;fill-opacity:1.00" />
<polygon points="683.10,1328.00 715.10,1328.00 715.10,1360.00 683.10,1360.00 " style="fill:#d8d6b4;fill-opacity:1.00" />
<polygon points="683.10,1360.00 715.10,1360.00 715.10,1392.00 683.10,1392.00 " style="fill:#a3a28b;fill-opacity:1.00" />
<polygon points="683.10,1488.00 715.10,1488.00 715.10,1520.00 683.10,1520.00 " style="fill:#d8d6b4;fill-opacity:1.00" />
<polygon points="714.88,16.00 746.88,16.00 746.88,48.00 714.88,48.00 " style="fill:#ed1c24;fill-opacity:1.00" />
<polygon points="714.88,48.00 746.88,48.00 746.88,80.00 714.88,80.00 " style="fill:#ed1c24;fill-opacity:1.00" />
<polygon points="714.88,80.00 746.88,80.00 746.88,112.00 714.88,112.00 " style="fill:#ed1c24;fill-opacity:1.00" />
<polygon points="714.88,112.00 746.88,112.00 746.88,144.00 714.88,144.00 " style="fill:#cd2127;fill-opacity:1.00" />
<polygon points="714.88,144.00 746.88,144.00 746.88,176.00 714.88,176.00 " style="fill:#ed1c24;fill-opacity:1.00" />
<polygon points="714.88,176.00 746.88,176.00 746.88,208.00 714.88,208.00 " style="fill:#ed1c24;fill-opacity:1.00" />
<polygon points="714.88,208.00 746.88,208.00 746.88,240.00 714.88,240.00 " style="fill:#ed1c24;fill-opacity:1.00" />
<polygon points="714.88,368.00 746.88,368.00 746.88,400.00 714.88,400.00 " style="fill:#d57759;fill-opacity:1.00" />
<polygon points="714.88,400.00 746.88,400.00 746.88,432.00 714.88,432.00 " style="fill:#c7463a;fill-opacity:1.00" />
<polygon points="714.88,432.00 746.88,432.00 746.88,464.00 714.88,464.00 " style="fill:#b7312c;fill-opacity:1.00" />
<polygon points="714.88,464.00 746.88,464.00 746.88,496.00 714.88,496.00 " style="fill:#e3a87f;fill-opacity:1.00" />
<polygon points="714.88,496.00 746.88,496.00 746.88,528.00 714.88,528.00 " style="fill:#f5be99;fill-opacity:1.00" />
<polygon points="714.88,528.00 746.88,528.00 746.88,560.00 714.88,560.00 " style="fill:#47463a;fill-opacity:1.00" />
<polygon points="714.88,560.00 746.88,560.00 746.88,592.00 714.88,592.00 " style="fill:#f5be99;fill-opacity:1.00" />
<polygon points="714.88,592.00 746.88,592.00 746.88,624.00 714.88,624.00 " style="fill:#f5be99;fill-opacity:1.00" />
<polygon points="714.88,624.00 746.88,624.00 746.88,656.00 714.88,656.00 " style="fill:#b7312c;fill-opacity:1.00" />
<polygon points="714.88,688.00 746.88,688.00 746.88,720.00 714.88,720.00 " style="fill:#f5be99;fill-opacity:1.00" />
<polygon points="714.88,720.00 746.88,720.00 746.88,752.00 714.88,752.00 " style="fill:#9f6a28;fill-opacity:1.00" />
<polygon points="714.88,752.00 746.88,752.00 746.88,784.00 714.88,784.00 " style="fill:#9f6a28;fill-opacity:1.00" />
<polygon points="714.88,784.00 746.88,784.00 746.88,816.00 714.88,816.00 " style="fill:#7f5221;fill-opacity:1.00" />
<polygon points="714.88,816.00 746.88,816.00 746.88,848.00 714.88,848.00 " style="fill:#f5be99;fill-opacity:1.00" />
<polygon points="714.88,848.00 746.88,848.00 746.88,880.00 714.88,880.00 " style="fill:#f5be99;fill-opacity:1.00" />
<polygon points="714.88,880.00 746.88,880.00 746.88,912.00 714.88,912.00 " style="fill:#f5be99;fill-opacity:1.00" />
<polygon points="714.88,912.00 746.88,912.00 746.88,944.00 714.88,944.00 " style="fill:#f5be99;fill-opacity:1.00" />
<polygon points="714.88,944.00 746.88,944.00 746.88,976.00 714.88,976.00 " style="fill:#f5be99;fill-opacity:1.00" />
<polygon points="714.88,976.00 746.88,976.00 746.88,1008.00 714.88,1008.00 " style="fill:#f5be99;fill-opacity:1.00" />
<polygon points="714.88,1008.00 746.88,1008.00 746.88,1040.00 714.88,1040.00 " style="fill:#a3a28b;fill-opacity:1.00" />
<polygon points="714.88,1040.00 746.88,1040.00 746.88,1072.00 714.88,1072.00 " style="fill:#d8d6b4;fill-opacity:1.00" />
<polygon points="714.88,1072.00 746.88,1072.00 746.88,1104.00 714.88,1104.00 " style="fill:#d8d6b4;fill-opacity:1.00" />
<polygon points="714.88,1104.00 746.88,1104.00 746.88,1136.00 714.88,1136.00 " style="fill:#d8d6b4;fill-opacity:1.00" />
<polygon points="714.88,1136.00 746.88,1136.00 746.88,1168.00 714.88,1168.00 " style="fill:#d8d6b4;fill-opacity:1.00" />
<polygon points="714.88,1168.00 746.88,1168.00 746.88,1200.00 714.88,1200.00 " style="fill:#d8d6b4;fill-opacity:1.00" />
<polygon points="714.88,1200.00 746.88,1200.00 746.88,1232.00 714.88,1232.00 " style="fill:#d8d6b4;fill-opacity:1.00" />
<polygon points="714.88,1232.00 746.88,1232.00 746.88,1264.00 714.88,1264.00 " style="fill:#d8d6b4;fill-opacity:1.00" />
<polygon points="714.88,1264.00 746.88,1264.00 746.88,1296.00 714.88,1296.00 " style="fill:#d8d6b4;fill-opacity:1.00" />
<polygon points="714.88,1296.00 746.88,1296.00 746.88,1328.00 714.88,1328.00 " style="fill:#d8d6b4;fill-opacity:1.00" />
<polygon points="714.88,1328.00 746.88,1328.00 746.88,1360.00 714.88,1360.00 " style="fill:#a3a28b;fill-opacity:1.00" />
<polygon points="746.66,16.00 778.66,16.00 778.66,48.00 746.66,48.00 " style="fill:#ed1c24;fill-opacity:1.00" />
<polygon points="746.66,48.00 778.66,48.00 778.66,80.00 746.66,80.00 " style="fill:#ed1c24;fill-opacity:1.00" />
<polygon points="746.66,80.00 778.66,80.00 778.66,112.00 746.66,112.00 " style="fill:#ed1c24;fill-opacity:1.00" />
<polygon points="746.66,112.00 778.66,112.00 778.66,144.00 746.66,144.00 " style="fill:#cd2127;fill-opacity:1.00" />
<polygon points="746.66,144.00 778.66,144.00 778.66,176.00 746.66,176.00 " style="fill:#ed1c24;fill-opacity:1.00" />
<polygon points="746.66,176.00 778.66,176.00 778.66,208.00 746.66,208.00 " style="fill:#ed1c24;fill-opacity:1.00" />
<polygon points="746.66,400.00 778.66,400.00 778.66,432.00 746.66,432.00 " style="fill:#d57759;fill-opacity:1.00" />
<polygon points="746.66,432.00 778.66,432.00 778.66,464.00 746.66,464.00 " style="fill:#c7463a;fill-opacity:1.00" />
<polygon points="746.66,464.00 778.66,464.00 778.66,496.00 746.66,496.00 " style="fill:#c7463a;fill-opacity:1.00" />
<polygon points="746.66,496.00 778.66,496.00 778.66,528.00 746.66,528.00 " style="fill:#c7463a;fill-opacity:1.00" />
<polygon points="746.66,528.00 778.66,528.00 778.66,560.00 746.66,560.00 " style="fill:#c7463a;fill-opacity:1.00" />
<polygon points="746.66,560.00 778.66,560.00 778.66,592.00 746.66,592.00 " style="fill:#c7463a;fill-opacity:1.00" />
<polygon points="746.66,592.00 778.66,592.00 778.66,624.00 746.66,624.00 " style="fill:#c7463a;fill-opacity:1.00" />
<polygon points="746.66,624.00 778.66,624.00 778.66,656.00 746.66,656.00 " style="fill:#c7463a;fill-opacity:1.00" />
<polygon points="746.66,688.00 778.66,688.00 778.66,720.00 746.66,720.00 " style="fill:#f5be99;fill-opacity:1.00" />
<polygon points="746.66,752.00 778.66,752.00 778.66,784.00 746.66,784.00 " style="fill:#9f6a28;fill-opacity:1.00" />
<polygon points="746.66,784.00 778.66,784.00 778.66,816.00 746.66,816.00 " style="fill:#9f6a28;fill-opacity:1.00" />
<polygon points="746.66,1424.00 778.66,1424.00 778.66,1456.00 746.66,1456.00 " style="fill:#d8d6b4;fill-opacity:1.00" />
<polygon points="778.43,16.00 810.43,16.00 810.43,48.00 778.43,48.00 " style="fill:#f3f3f4;fill-opacity:1.00" />
<polygon points="778.43,48.00 810.43,48.00 810.43,80.00 778.43,80.00 " style="fill:#ed1c24;fill-opacity:1.00" />
<polygon points="778.43,80.00 810.43,80.00 810.43,112.00 778.43,112.00 " style="fill:#ed1c24;fill-opacity:1.00" />
<polygon points="778.43,112.00 810.43,112.00 810.43,144.00 778.43,144.00 " style="fill:#cd2127;fill-opacity:1.00" />
<polygon points="778.43,144.00 810.43,144.00 810.43,176.00 778.43,176.00 " style="fill:#ed1c24;fill-opacity:1.00" />
<polygon points="778.43,400.00 810.43,400.00 810.43,432.00 778.43,432.00 " style="fill:#f5be99;fill-opacity:1.00" />
<polygon points="778.43,432.00 810.43,432.00 810.43,464.00 778.43,464.00 " style="fill:#f5be99;fill-opacity:1.00" />
<polygon points="778.43,688.00 810.43,688.00 810.43,720.00 778.43,720.00 " style="fill:#f5be99;fill-opacity:1.00" />
<polygon points="778.43,1040.00 810.43,1040.00 810.43,1072.00 778.43,1072.00 " style="fill:#d8d6b4;fill-opacity:1.00" />
<polygon points="778.43,1136.00 810.43,1136.00 810.43,1168.00 778.43,1168.00 " style="fill:#d8d6b4;fill-opacity:1.00" />
<polygon points="778.43,1232.00 810.43,1232.00 810.43,1264.00 778.43,1264.00 " style="fill:#d8d6b4;fill-opacity:1.00" />
<polygon points="778.43,1328.00 810.43,1328.00 810.43,1360.00 778.43,1360.00 " style="fill:#d8d6b4;fill-opacity:1.00" />
<polygon points="810.21,48.00 842.21,48.00 842.21,80.00 810.21,80.00 " style="fill:#f3f3f4;fill-opacity:1.00" />
<polygon points="810.21,80.00 842.21,80.00 842.21,112.00 810.21,112.00 " style="fill:#ed1c24;fill-opacity:1.00" />
<polygon points="810.21,112.00 842.21,112.00 842.21,144.00 810.21,144.00 " style="fill:#cd2127;fill-opacity:1.00" />
<polygon points="810.21,400.00 842.21,400.00 842.21,432.00 810.21,432.00 " style="fill:#f5be99;fill-opacity:1.00" />
<polygon points="810.21,464.00 842.21,464.00 842.21,496.00 810.21,496.00 " style="fill:#f5be99;fill-opacity:1.00" />
<polygon points="810.21,656.00 842.21,656.00 842.21,688.00 810.21,688.00 " style="fill:#f5be99;fill-opacity:1.00" />
<polygon points="841.99,80.00 873.99,80.00 873.99,112.00 841.99,112.00 " style="fill:#f3f3f4;fill-opacity:1.00" />
<polygon points="841.99,336.00 873.99,336.00 873.99,368.00 841.99,368.00 " style="fill:#f5be99;fill-opacity:1.00" />
<polygon points="841.99,368.00 873.99,368.00 873.99,400.00 841.99,400.00 " style="fill:#f5be99;fill-opacity:1.00" />
<polygon points="841.99,496.00 873.99,496.00 873.99,528.00 841.99,528.00 " style="fill:#f5be99;fill-opacity:1.00" />
<polygon points="841.99,528.00 873.99,528.00 873.99,560.00 841.99,560.00 " style="fill:#f5be99;fill-opacity:1.00" />
<polygon points="841.99,560.00 873.99,560.00 873.99,592.00 841.99,592.00 " style="fill:#f5be99;fill-opacity:1.00" />
<polygon points="841.99,592.00 873.99,592.00 873.99,624.00 841.99,624.00 " style="fill:#f5be99;fill-opacity:1.00" />
<polygon points="841.99,624.00 873.99,624.00 873.99,656.00 841.99,656.00 " style="fill:#f5be99;fill-opacity:1.00" />
</svg>
